  0
SECTION
  2
HEADER
  9
$ACADVER
  1
AC1015
  9
$ACADMAINTVER
 70
     6
  9
$DWGCODEPAGE
  3
ANSI_1252
  9
$INSBASE
 10
0.0
 20
0.0
 30
0.0
  9
$EXTMIN
 10
0.0
 20
0.0
 30
0.0
  9
$EXTMAX
 10
15.16
 20
3.0
 30
0.0
  9
$LIMMIN
 10
0.0
 20
0.0
  9
$LIMMAX
 10
12.0
 20
9.0
  9
$ORTHOMODE
 70
     0
  9
$REGENMODE
 70
     1
  9
$FILLMODE
 70
     1
  9
$QTEXTMODE
 70
     0
  9
$MIRRTEXT
 70
     1
  9
$LTSCALE
 40
1.0
  9
$ATTMODE
 70
     1
  9
$TEXTSIZE
 40
0.1377952756
  9
$TRACEWID
 40
0.05
  9
$TEXTSTYLE
  7
Standard
  9
$CLAYER
  8
0
  9
$CELTYPE
  6
ByLayer
  9
$CECOLOR
 62
   256
  9
$CELTSCALE
 40
1.0
  9
$DISPSILH
 70
     0
  9
$DIMSCALE
 40
1.0
  9
$DIMASZ
 40
0.14
  9
$DIMEXO
 40
0.0
  9
$DIMDLI
 40
0.38
  9
$DIMRND
 40
0.0
  9
$DIMDLE
 40
0.0
  9
$DIMEXE
 40
0.0393700787
  9
$DIMTP
 40
0.0
  9
$DIMTM
 40
0.0
  9
$DIMTXT
 40
0.1377952756
  9
$DIMCEN
 40
0.09
  9
$DIMTSZ
 40
0.0
  9
$DIMTOL
 70
     0
  9
$DIMLIM
 70
     0
  9
$DIMTIH
 70
     1
  9
$DIMTOH
 70
     1
  9
$DIMSE1
 70
     0
  9
$DIMSE2
 70
     0
  9
$DIMTAD
 70
     1
  9
$DIMZIN
 70
     1
  9
$DIMBLK
  1

  9
$DIMASO
 70
     1
  9
$DIMSHO
 70
     1
  9
$DIMPOST
  1

  9
$DIMAPOST
  1

  9
$DIMALT
 70
     0
  9
$DIMALTD
 70
     2
  9
$DIMALTF
 40
25.4
  9
$DIMLFAC
 40
1.0
  9
$DIMTOFL
 70
     0
  9
$DIMTVP
 40
0.0
  9
$DIMTIX
 70
     0
  9
$DIMSOXD
 70
     0
  9
$DIMSAH
 70
     0
  9
$DIMBLK1
  1

  9
$DIMBLK2
  1

  9
$DIMSTYLE
  2
Standard
  9
$DIMCLRD
 70
     0
  9
$DIMCLRE
 70
     0
  9
$DIMCLRT
 70
     0
  9
$DIMTFAC
 40
1.0
  9
$DIMGAP
 40
0.06
  9
$DIMJUST
 70
     0
  9
$DIMSD1
 70
     0
  9
$DIMSD2
 70
     0
  9
$DIMTOLJ
 70
     1
  9
$DIMTZIN
 70
     1
  9
$DIMALTZ
 70
     0
  9
$DIMALTTZ
 70
     0
  9
$DIMUPT
 70
     0
  9
$DIMDEC
 70
     4
  9
$DIMTDEC
 70
     4
  9
$DIMALTU
 70
     2
  9
$DIMALTTD
 70
     2
  9
$DIMTXSTY
  7
Standard
  9
$DIMAUNIT
 70
     0
  9
$DIMADEC
 70
     2
  9
$DIMALTRND
 40
0.0
  9
$DIMAZIN
 70
     0
  9
$DIMDSEP
 70
    46
  9
$DIMATFIT
 70
     3
  9
$DIMFRAC
 70
     0
  9
$DIMLDRBLK
  1

  9
$DIMLUNIT
 70
     2
  9
$DIMLWD
 70
    -2
  9
$DIMLWE
 70
    -2
  9
$DIMTMOVE
 70
     0
  9
$LUNITS
 70
     2
  9
$LUPREC
 70
     4
  9
$SKETCHINC
 40
0.1
  9
$FILLETRAD
 40
0.0
  9
$AUNITS
 70
     0
  9
$AUPREC
 70
     2
  9
$MENU
  1
.
  9
$ELEVATION
 40
0.0
  9
$PELEVATION
 40
0.0
  9
$THICKNESS
 40
0.0
  9
$LIMCHECK
 70
     0
  9
$CHAMFERA
 40
0.0
  9
$CHAMFERB
 40
0.0
  9
$CHAMFERC
 40
0.0
  9
$CHAMFERD
 40
0.0
  9
$SKPOLY
 70
     0
  9
$TDCREATE
 40
2460739.449225336
  9
$TDUCREATE
 40
2460739.782558669
  9
$TDUPDATE
 40
2460739.449250614
  9
$TDUUPDATE
 40
2460739.782583947
  9
$TDINDWG
 40
0.0000000116
  9
$TDUSRTIMER
 40
0.0000000116
  9
$USRTIMER
 70
     1
  9
$ANGBASE
 50
0.0
  9
$ANGDIR
 70
     0
  9
$PDMODE
 70
     0
  9
$PDSIZE
 40
-1.0
  9
$PLINEWID
 40
0.0
  9
$SPLFRAME
 70
     0
  9
$SPLINETYPE
 70
     6
  9
$SPLINESEGS
 70
     8
  9
$HANDSEED
  5
2DE
  9
$SURFTAB1
 70
     6
  9
$SURFTAB2
 70
     6
  9
$SURFTYPE
 70
     6
  9
$SURFU
 70
     6
  9
$SURFV
 70
     6
  9
$UCSBASE
  2

  9
$UCSNAME
  2

  9
$UCSORG
 10
0.0
 20
0.0
 30
0.0
  9
$UCSXDIR
 10
1.0
 20
0.0
 30
0.0
  9
$UCSYDIR
 10
0.0
 20
1.0
 30
0.0
  9
$UCSORTHOREF
  2

  9
$UCSORTHOVIEW
 70
     0
  9
$UCSORGTOP
 10
0.0
 20
0.0
 30
0.0
  9
$UCSORGBOTTOM
 10
0.0
 20
0.0
 30
0.0
  9
$UCSORGLEFT
 10
0.0
 20
0.0
 30
0.0
  9
$UCSORGRIGHT
 10
0.0
 20
0.0
 30
0.0
  9
$UCSORGFRONT
 10
0.0
 20
0.0
 30
0.0
  9
$UCSORGBACK
 10
0.0
 20
0.0
 30
0.0
  9
$PUCSBASE
  2

  9
$PUCSNAME
  2

  9
$PUCSORG
 10
0.0
 20
0.0
 30
0.0
  9
$PUCSXDIR
 10
1.0
 20
0.0
 30
0.0
  9
$PUCSYDIR
 10
0.0
 20
1.0
 30
0.0
  9
$PUCSORTHOREF
  2

  9
$PUCSORTHOVIEW
 70
     0
  9
$PUCSORGTOP
 10
0.0
 20
0.0
 30
0.0
  9
$PUCSORGBOTTOM
 10
0.0
 20
0.0
 30
0.0
  9
$PUCSORGLEFT
 10
0.0
 20
0.0
 30
0.0
  9
$PUCSORGRIGHT
 10
0.0
 20
0.0
 30
0.0
  9
$PUCSORGFRONT
 10
0.0
 20
0.0
 30
0.0
  9
$PUCSORGBACK
 10
0.0
 20
0.0
 30
0.0
  9
$USERI1
 70
     0
  9
$USERI2
 70
     0
  9
$USERI3
 70
     0
  9
$USERI4
 70
     0
  9
$USERI5
 70
     0
  9
$USERR1
 40
0.0
  9
$USERR2
 40
0.0
  9
$USERR3
 40
0.0
  9
$USERR4
 40
0.0
  9
$USERR5
 40
0.0
  9
$WORLDVIEW
 70
     1
  9
$SHADEDGE
 70
     3
  9
$SHADEDIF
 70
    70
  9
$TILEMODE
 70
     1
  9
$MAXACTVP
 70
    64
  9
$PINSBASE
 10
0.0
 20
0.0
 30
0.0
  9
$PLIMCHECK
 70
     0
  9
$PEXTMIN
 10
1.0000000000E+20
 20
1.0000000000E+20
 30
1.0000000000E+20
  9
$PEXTMAX
 10
-1.0000000000E+20
 20
-1.0000000000E+20
 30
-1.0000000000E+20
  9
$PLIMMIN
 10
0.0
 20
0.0
  9
$PLIMMAX
 10
12.0
 20
9.0
  9
$UNITMODE
 70
     0
  9
$VISRETAIN
 70
     1
  9
$PLINEGEN
 70
     0
  9
$PSLTSCALE
 70
     1
  9
$TREEDEPTH
 70
  3020
  9
$CMLSTYLE
  2
Standard
  9
$CMLJUST
 70
     0
  9
$CMLSCALE
 40
1.0
  9
$PROXYGRAPHICS
 70
     1
  9
$MEASUREMENT
 70
     0
  9
$CELWEIGHT
370
    -1
  9
$ENDCAPS
280
     0
  9
$JOINSTYLE
280
     0
  9
$LWDISPLAY
290
     1
  9
$INSUNITS
 70
     1
  9
$HYPERLINKBASE
  1

  9
$STYLESHEET
  1

  9
$XEDIT
290
     1
  9
$CEPSNTYPE
380
     0
  9
$PSTYLEMODE
290
     1
  9
$FINGERPRINTGUID
  2
{b039f016-a8d9-4dd5-a3f2-4c768df1d4dd}
  9
$VERSIONGUID
  2
{FAEB1C32-E019-11D5-929B-00C0DF256EC4}
  9
$EXTNAMES
290
     1
  9
$PSVPSCALE
 40
0.0
  9
$OLESTARTUP
290
     0
  0
ENDSEC
  0
SECTION
  2
CLASSES
  0
CLASS
  1
ACDBDICTIONARYWDFLT
  2
AcDbDictionaryWithDefault
  3
ObjectDBX Classes
 90
        0
280
     0
281
     0
  0
CLASS
  1
VISUALSTYLE
  2
AcDbVisualStyle
  3
ObjectDBX Classes
 90
     4095
280
     0
281
     0
  0
CLASS
  1
MATERIAL
  2
AcDbMaterial
  3
ObjectDBX Classes
 90
     1153
280
     0
281
     0
  0
CLASS
  1
SCALE
  2
AcDbScale
  3
ObjectDBX Classes
 90
     1153
280
     0
281
     0
  0
CLASS
  1
TABLESTYLE
  2
AcDbTableStyle
  3
ObjectDBX Classes
 90
     4095
280
     0
281
     0
  0
CLASS
  1
MLEADERSTYLE
  2
AcDbMLeaderStyle
  3
ACDB_MLEADERSTYLE_CLASS
 90
     4095
280
     0
281
     0
  0
CLASS
  1
SUN
  2
AcDbSun
  3
SCENEOE
 90
     1153
280
     0
281
     0
  0
CLASS
  1
ACDBPLACEHOLDER
  2
AcDbPlaceHolder
  3
ObjectDBX Classes
 90
        0
280
     0
281
     0
  0
CLASS
  1
LAYOUT
  2
AcDbLayout
  3
ObjectDBX Classes
 90
        0
280
     0
281
     0
  0
ENDSEC
  0
SECTION
  2
TABLES
  0
TABLE
  2
VPORT
  5
8
330
0
100
AcDbSymbolTable
 70
     1
  0
VPORT
  5
29
330
8
100
AcDbSymbolTableRecord
100
AcDbViewportTableRecord
  2
*Active
 70
     0
 10
0.0
 20
0.0
 11
1.0
 21
1.0
 12
7.58
 22
1.5
 13
0.0
 23
0.0
 14
0.5
 24
0.5
 15
0.5
 25
0.5
 16
0.0
 26
0.0
 36
1.0
 17
0.0
 27
0.0
 37
0.0
 40
3.06
 41
5.0533333333
 42
50.0
 43
0.0
 44
0.0
 50
0.0
 51
0.0
 71
     0
 72
   100
 73
     1
 74
     3
 75
     0
 76
     0
 77
     0
 78
     0
281
     0
 65
     1
110
0.0
120
0.0
130
0.0
111
1.0
121
0.0
131
0.0
112
0.0
122
1.0
132
0.0
 79
     0
146
0.0
  0
ENDTAB
  0
TABLE
  2
LTYPE
  5
5
330
0
100
AcDbSymbolTable
 70
     6
  0
LTYPE
  5
14
330
5
100
AcDbSymbolTableRecord
100
AcDbLinetypeTableRecord
  2
ByBlock
 70
     0
  3

 72
    65
 73
     0
 40
0.0
  0
LTYPE
  5
15
330
5
100
AcDbSymbolTableRecord
100
AcDbLinetypeTableRecord
  2
ByLayer
 70
     0
  3

 72
    65
 73
     0
 40
0.0
  0
LTYPE
  5
16
330
5
100
AcDbSymbolTableRecord
100
AcDbLinetypeTableRecord
  2
Continuous
 70
     0
  3
Solid line
 72
    65
 73
     0
 40
0.0
  0
LTYPE
  5
5E
330
5
100
AcDbSymbolTableRecord
100
AcDbLinetypeTableRecord
  2
HIDDEN
 70
     0
  3
Hidden __ __ __ __ __ __ __ __ __ __ __ __ __ __
 72
    65
 73
     2
 40
0.075
 49
0.05
 74
     0
 49
-0.025
 74
     0
  0
LTYPE
  5
5F
330
5
100
AcDbSymbolTableRecord
100
AcDbLinetypeTableRecord
  2
PHANTOM
 70
     0
  3
Phantom ______  __  __  ______  __  __  ______
 72
    65
 73
     6
 40
0.5
 49
0.25
 74
     0
 49
-0.05
 74
     0
 49
0.05
 74
     0
 49
-0.05
 74
     0
 49
0.05
 74
     0
 49
-0.05
 74
     0
  0
LTYPE
  5
60
330
5
100
AcDbSymbolTableRecord
100
AcDbLinetypeTableRecord
  2
CENTER
 70
     0
  3
Center ____ _ ____ _ ____ _ ____ _ ____ _ ____
 72
    65
 73
     4
 40
0.4
 49
0.25
 74
     0
 49
-0.05
 74
     0
 49
0.05
 74
     0
 49
-0.05
 74
     0
  0
LTYPE
  5
61
330
5
100
AcDbSymbolTableRecord
100
AcDbLinetypeTableRecord
  2
CENTERX2
 70
     0
  3
Center (2x) ________  __  ________  __  _____
 72
    65
 73
     4
 40
0.8
 49
0.5
 74
     0
 49
-0.1
 74
     0
 49
0.1
 74
     0
 49
-0.1
 74
     0
  0
LTYPE
  5
62
330
5
100
AcDbSymbolTableRecord
100
AcDbLinetypeTableRecord
  2
DOT2
 70
     0
  3
Dot (.5x) ........................................
 72
    65
 73
     2
 40
0.025
 49
0.0
 74
     0
 49
-0.025
 74
     0
  0
ENDTAB
  0
TABLE
  2
LAYER
  5
2
330
0
100
AcDbSymbolTable
 70
     1
  0
LAYER
  5
10
330
2
100
AcDbSymbolTableRecord
100
AcDbLayerTableRecord
  2
0
 70
     0
 62
     7
  6
Continuous
370
    -3
390
F
  0
ENDTAB
  0
TABLE
  2
STYLE
  5
3
330
0
100
AcDbSymbolTable
 70
     1
  0
STYLE
  5
11
330
3
100
AcDbSymbolTableRecord
100
AcDbTextStyleTableRecord
  2
Standard
 70
     0
 40
0.0
 41
1.0
 50
0.0
 71
     0
 42
0.1377952756
  3
txt
  4

  0
ENDTAB
  0
TABLE
  2
VIEW
  5
6
330
0
100
AcDbSymbolTable
 70
     0
  0
ENDTAB
  0
TABLE
  2
UCS
  5
7
330
0
100
AcDbSymbolTable
 70
     0
  0
ENDTAB
  0
TABLE
  2
APPID
  5
9
330
0
100
AcDbSymbolTable
 70
     1
  0
APPID
  5
12
330
9
100
AcDbSymbolTableRecord
100
AcDbRegAppTableRecord
  2
ACAD
 70
     0
  0
ENDTAB
  0
TABLE
  2
DIMSTYLE
  5
A
330
0
100
AcDbSymbolTable
 70
     1
100
AcDbDimStyleTable
  0
DIMSTYLE
105
27
330
A
100
AcDbSymbolTableRecord
100
AcDbDimStyleTableRecord
  2
Standard
 70
     0
178
     0
340
11
  0
ENDTAB
  0
TABLE
  2
BLOCK_RECORD
  5
1
330
0
100
AcDbSymbolTable
 70
     1
  0
BLOCK_RECORD
  5
1F
330
1
100
AcDbSymbolTableRecord
100
AcDbBlockTableRecord
  2
*Model_Space
340
22
  0
BLOCK_RECORD
  5
1B
330
1
100
AcDbSymbolTableRecord
100
AcDbBlockTableRecord
  2
*Paper_Space
340
1E
  0
BLOCK_RECORD
  5
23
330
1
100
AcDbSymbolTableRecord
100
AcDbBlockTableRecord
  2
*Paper_Space0
340
26
  0
ENDTAB
  0
ENDSEC
  0
SECTION
  2
BLOCKS
  0
BLOCK
  5
20
330
1F
100
AcDbEntity
  8
0
100
AcDbBlockBegin
  2
*Model_Space
 70
     0
 10
0.0
 20
0.0
 30
0.0
  3
*Model_Space
  1

  0
ENDBLK
  5
21
330
1F
100
AcDbEntity
  8
0
100
AcDbBlockEnd
  0
BLOCK
  5
1C
330
1B
100
AcDbEntity
 67
     1
  8
0
100
AcDbBlockBegin
  2
*Paper_Space
 70
     0
 10
0.0
 20
0.0
 30
0.0
  3
*Paper_Space
  1

  0
ENDBLK
  5
1D
330
1B
100
AcDbEntity
 67
     1
  8
0
100
AcDbBlockEnd
  0
BLOCK
  5
24
330
23
100
AcDbEntity
  8
0
100
AcDbBlockBegin
  2
*Paper_Space0
 70
     0
 10
0.0
 20
0.0
 30
0.0
  3
*Paper_Space0
  1

  0
ENDBLK
  5
25
330
23
100
AcDbEntity
  8
0
100
AcDbBlockEnd
  0
ENDSEC
  0
SECTION
  2
ENTITIES
  0
ARC
  5
63
330
1F
100
AcDbEntity
  8
0
  6
Continuous
 62
     7
370
    25
100
AcDbCircle
 10
2.7323425197
 20
1.5015
 30
0.0
 40
0.2187500000000001
100
AcDbArc
 50
72.2168496434
 51
122.7174804949
  0
ARC
  5
64
330
1F
100
AcDbEntity
  8
0
  6
Continuous
 62
     7
370
    25
100
AcDbCircle
 10
2.580327729
 20
1.7381285399
 30
0.0
 40
0.0625000000000005
100
AcDbArc
 50
173.1725385808
 51
302.7174804949
  0
LINE
  5
65
330
1F
100
AcDbEntity
  8
0
  6
Continuous
 62
     7
370
    25
100
AcDbLine
 10
2.5525622846
 20
2.0319667543
 30
0.0
 11
2.5182709387
 21
1.7455585321
 31
0.0
  0
ARC
  5
66
330
1F
100
AcDbEntity
  8
0
  6
Continuous
 62
     7
370
    25
100
AcDbCircle
 10
2.6146190748
 20
2.0245367621
 30
0.0
 40
0.0625
100
AcDbArc
 50
69.9726781206
 51
173.1725385808
  0
ARC
  5
67
330
1F
100
AcDbEntity
  8
0
  6
Continuous
 62
     7
370
    25
100
AcDbCircle
 10
2.7323425197
 20
2.3475
 30
0.0
 40
0.2812500000000002
100
AcDbArc
 50
249.9726781206
 51
298.8386414243
  0
ARC
  5
68
330
1F
100
AcDbEntity
  8
0
  6
Continuous
 62
     7
370
    25
100
AcDbCircle
 10
2.8981484633
 20
2.0463813331
 30
0.0
 40
0.0624999999999997
100
AcDbArc
 50
343.9122475556
 51
118.8386414243
  0
LINE
  5
69
330
1F
100
AcDbEntity
  8
0
  6
Continuous
 62
     7
370
    25
100
AcDbLine
 10
2.8782929701
 20
1.7519923349
 30
0.0
 11
2.958200864
 21
2.0290620037
 31
0.0
  0
ARC
  5
6A
330
1F
100
AcDbEntity
  8
0
  6
Continuous
 62
     7
370
    25
100
AcDbCircle
 10
2.8182405694
 20
1.7693116643
 30
0.0
 40
0.0625000000001711
100
AcDbArc
 50
252.2168496434
 51
343.9122475556
  0
ARC
  5
6B
330
1F
100
AcDbEntity
  8
0
  6
Continuous
 62
     7
370
    25
100
AcDbCircle
 10
2.5287626265
 20
1.307446426
 30
0.0
 40
0.0625000000000002
100
AcDbArc
 50
43.6275966667
 51
173.1725385808
  0
ARC
  5
6C
330
1F
100
AcDbEntity
  8
0
  6
Continuous
 62
     7
370
    25
100
AcDbCircle
 10
2.7323425197
 20
1.5015
 30
0.0
 40
0.2187500000000001
100
AcDbArc
 50
223.6275966667
 51
255.6076454678
  0
ARC
  5
6D
330
1F
100
AcDbEntity
  8
0
  6
Continuous
 62
     7
370
    25
100
AcDbCircle
 10
2.6624348401
 20
1.2290766551
 30
0.0
 40
0.0625000000001705
100
AcDbArc
 50
343.9122475556
 51
75.6076454678
  0
LINE
  5
6E
330
1F
100
AcDbEntity
  8
0
  6
Continuous
 62
     7
370
    25
100
AcDbLine
 10
2.7224872408
 20
1.2117573257
 30
0.0
 11
2.4778881527
 21
0.3636435165
 31
0.0
  0
ARC
  5
6F
330
1F
100
AcDbEntity
  8
0
  6
Continuous
 62
     7
370
    25
100
AcDbCircle
 10
2.417835752
 20
0.3809628459
 30
0.0
 40
0.0625000000000006
100
AcDbArc
 50
173.1725385808
 51
343.9122475556
  0
LINE
  5
70
330
1F
100
AcDbEntity
  8
0
  6
Continuous
 62
     7
370
    25
100
AcDbLine
 10
2.4667058362
 20
1.3148764182
 30
0.0
 11
2.3557789618
 21
0.3883928381
 31
0.0
  0
LINE
  5
71
330
1F
100
AcDbEntity
  8
0
  6
Continuous
 62
     7
370
    25
100
AcDbLine
 10
0.3125524007
 20
0.2908344337
 30
0.0
 11
0.6366094348
 21
1.414457779
 31
0.0
  0
ARC
  5
72
330
1F
100
AcDbEntity
  8
0
  6
Continuous
 62
     7
370
    25
100
AcDbCircle
 10
0.2525
 20
0.3081537631
 30
0.0
 40
0.0625
100
AcDbArc
 50
180.0
 51
343.9122475556
  0
LINE
  5
73
330
1F
100
AcDbEntity
  8
0
  6
Continuous
 62
     7
370
    25
100
AcDbLine
 10
0.19
 20
1.4317771084
 30
0.0
 11
0.19
 21
0.3081537631
 31
0.0
  0
ARC
  5
74
330
1F
100
AcDbEntity
  8
0
  6
Continuous
 62
     7
370
    25
100
AcDbCircle
 10
0.2525
 20
1.4317771084
 30
0.0
 40
0.0625000000000002
100
AcDbArc
 50
90.0
 51
180.0
  0
LINE
  5
75
330
1F
100
AcDbEntity
  8
0
  6
Continuous
 62
     7
370
    25
100
AcDbLine
 10
0.2525
 20
1.4942771084
 30
0.0
 11
0.5765570341
 21
1.4942771084
 31
0.0
  0
ARC
  5
76
330
1F
100
AcDbEntity
  8
0
  6
Continuous
 62
     7
370
    25
100
AcDbCircle
 10
0.5765570341
 20
1.4317771084
 30
0.0
 40
0.0625
100
AcDbArc
 50
343.9122475556
 51
90.0
  0
LINE
  5
77
330
1F
100
AcDbEntity
  8
0
  6
Continuous
 62
     7
370
    25
100
AcDbLine
 10
13.6954450919
 20
0.4
 30
0.0
 11
13.6107981928
 21
0.4
 31
0.0
  0
ARC
  5
78
330
1F
100
AcDbEntity
  8
0
  6
Continuous
 62
     7
370
    25
100
AcDbCircle
 10
13.6954450919
 20
0.3375
 30
0.0
 40
0.0625000000000005
100
AcDbArc
 50
343.9181382853
 51
90.0
  0
LINE
  5
79
330
1F
100
AcDbEntity
  8
0
  6
Continuous
 62
     7
370
    25
100
AcDbLine
 10
13.755499273
 20
0.3201868448
 30
0.0
 11
13.7309944314
 21
0.2351868448
 31
0.0
  0
ARC
  5
7A
330
1F
100
AcDbEntity
  8
0
  6
Continuous
 62
     7
370
    25
100
AcDbCircle
 10
13.6709402504
 20
0.2525
 30
0.0
 40
0.0625000000000023
100
AcDbArc
 50
270.0
 51
343.9181382853
  0
LINE
  5
7B
330
1F
100
AcDbEntity
  8
0
  6
Continuous
 62
     7
370
    25
100
AcDbLine
 10
13.2978548769
 20
0.19
 30
0.0
 11
13.6709402504
 21
0.19
 31
0.0
  0
ARC
  5
7C
330
1F
100
AcDbEntity
  8
0
  6
Continuous
 62
     7
370
    25
100
AcDbCircle
 10
13.2978548769
 20
0.2525
 30
0.0
 40
0.0625
100
AcDbArc
 50
180.0442418105
 51
270.0
  0
LINE
  5
7D
330
1F
100
AcDbEntity
  8
0
  6
Continuous
 62
     7
370
    25
100
AcDbLine
 10
13.2353548955
 20
0.2524517397
 30
0.0
 11
13.2352409639
 21
0.4
 31
0.0
  0
SPLINE
  5
7E
330
1F
100
AcDbEntity
  8
0
  6
Continuous
 62
     7
370
    25
100
AcDbSpline
210
0.0
220
0.0
230
1.0
 70
     8
 71
     3
 72
     9
 73
     5
 74
     0
 42
0.00000001
 43
0.00000001
 40
0.0618879658674476
 40
0.0618879658674476
 40
0.0618879658674476
 40
0.0618879658674476
 40
0.4992242217353127
 40
1.0
 40
1.0
 40
1.0
 40
1.0
 10
13.23228631754479
 20
1.398510538794443
 30
0.0
 10
13.23312730801303
 20
1.243347297178284
 30
0.0
 10
13.23484676357505
 20
0.9105127393028858
 30
0.0
 10
13.23510377042693
 20
0.5776736255153303
 30
0.0
 10
13.23524096385542
 20
0.4
 30
0.0
  0
ARC
  5
7F
330
1F
100
AcDbEntity
  8
0
  6
Continuous
 62
     7
370
    25
100
AcDbCircle
 10
13.2947853995
 20
1.3988492861
 30
0.0
 40
0.0625000000000018
100
AcDbArc
 50
86.8469334648
 51
180.3105421884
  0
SPLINE
  5
80
330
1F
100
AcDbEntity
  8
0
  6
Continuous
 62
     7
370
    25
100
AcDbSpline
210
0.0
220
0.0
230
1.0
 70
     8
 71
     3
 72
     9
 73
     5
 74
     0
 42
0.00000001
 43
0.00000001
 40
0.0
 40
0.0
 40
0.0
 40
0.0
 40
0.2161515791861233
 40
0.3464851013538208
 40
0.3464851013538208
 40
0.3464851013538208
 40
0.3464851013538208
 10
13.33339608433735
 20
1.460240963855422
 30
0.0
 10
13.3260773379029
 20
1.460324669517433
 30
0.0
 10
13.31434558646405
 20
1.46045884741655
 30
0.0
 10
13.30262909309879
 20
1.461011959223887
 30
0.0
 10
13.29822312579648
 20
1.461254670803294
 30
0.0
  0
SPLINE
  5
81
330
1F
100
AcDbEntity
  8
0
  6
Continuous
 62
     7
370
    25
100
AcDbSpline
210
0.0
220
0.0
230
1.0
 70
     8
 71
     3
 72
    11
 73
     7
 74
     0
 42
0.00000001
 43
0.00000001
 40
0.5750516825581704
 40
0.5750516825581704
 40
0.5750516825581704
 40
0.5750516825581704
 40
0.6056965398904569
 40
0.7272798813732284
 40
0.8580022116237536
 40
1.0
 40
1.0
 40
1.0
 40
1.0
 10
13.45854339772862
 20
1.487131755212272
 30
0.0
 10
13.45579283907151
 20
1.485689799128832
 30
0.0
 10
13.44195513812068
 20
1.478873581815633
 30
0.0
 10
13.41470787850698
 20
1.469603068849537
 30
0.0
 10
13.37546681026438
 20
1.461343899041854
 30
0.0
 10
13.3478009362527
 20
1.460618604546964
 30
0.0
 10
13.33339608433735
 20
1.460240963855422
 30
0.0
  0
ARC
  5
82
330
1F
100
AcDbEntity
  8
0
  6
Continuous
 62
     7
370
    25
100
AcDbCircle
 10
13.4875625824
 20
1.4317771084
 30
0.0
 40
0.0624999999999969
100
AcDbArc
 50
90.0
 51
117.6653785872
  0
LINE
  5
83
330
1F
100
AcDbEntity
  8
0
  6
Continuous
 62
     7
370
    25
100
AcDbLine
 10
13.4875625824
 20
1.4942771084
 30
0.0
 11
13.7049887205
 21
1.4942771084
 31
0.0
  0
ARC
  5
84
330
1F
100
AcDbEntity
  8
0
  6
Continuous
 62
     7
370
    25
100
AcDbCircle
 10
13.7049887205
 20
1.4317771084
 30
0.0
 40
0.0625
100
AcDbArc
 50
343.9109808416
 51
90.0
  0
LINE
  5
85
330
1F
100
AcDbEntity
  8
0
  6
Continuous
 62
     7
370
    25
100
AcDbLine
 10
13.5192695783
 20
0.5623493976
 30
0.0
 11
13.7650407383
 21
1.4144564514
 31
0.0
  0
SPLINE
  5
86
330
1F
100
AcDbEntity
  8
0
  6
Continuous
 62
     7
370
    25
100
AcDbSpline
210
0.0
220
0.0
230
1.0
 70
     8
 71
     3
 72
    15
 73
    11
 74
     0
 42
0.00000001
 43
0.00000001
 40
0.0
 40
0.0
 40
0.0
 40
0.0
 40
0.1270162801907164
 40
0.2410114124181356
 40
0.348795347096373
 40
0.4602794002460878
 40
0.5786282395949817
 40
0.7044977457153938
 40
0.8421954702527202
 40
1.0
 40
1.0
 40
1.0
 40
1.0
 10
13.61079819277108
 20
0.4
 30
0.0
 10
13.60134635224412
 20
0.4005261229891053
 30
0.0
 10
13.58341163212845
 20
0.4015244331625689
 30
0.0
 10
13.55846121260507
 20
0.4098510131129882
 30
0.0
 10
13.53802054416375
 20
0.4245349844198882
 30
0.0
 10
13.52305807794948
 20
0.4450922721521265
 30
0.0
 10
13.51306369954904
 20
0.4698343543718877
 30
0.0
 10
13.50915631332158
 20
0.4981783688929393
 30
0.0
 10
13.51101966421537
 20
0.5296347725159632
 30
0.0
 10
13.51639762964509
 20
0.5509608276249914
 30
0.0
 10
13.51926957831325
 20
0.5623493975903615
 30
0.0
  0
LINE
  5
87
330
1F
100
AcDbEntity
  8
0
  6
Continuous
 62
     7
370
    25
100
AcDbLine
 10
13.9311219686
 20
0.19
 30
0.0
 11
14.6015143025
 21
0.19
 31
0.0
  0
ARC
  5
88
330
1F
100
AcDbEntity
  8
0
  6
Continuous
 62
     7
370
    25
100
AcDbCircle
 10
13.9311219686
 20
0.2525
 30
0.0
 40
0.0625000000000008
100
AcDbArc
 50
163.9181382853
 51
270.0
  0
LINE
  5
89
330
1F
100
AcDbEntity
  8
0
  6
Continuous
 62
     7
370
    25
100
AcDbLine
 10
13.8955726291
 20
0.3548131552
 30
0.0
 11
13.8710677875
 21
0.2698131552
 31
0.0
  0
ARC
  5
8A
330
1F
100
AcDbEntity
  8
0
  6
Continuous
 62
     7
370
    25
100
AcDbCircle
 10
13.9556268101
 20
0.3375
 30
0.0
 40
0.0625000000000007
100
AcDbArc
 50
90.0
 51
163.9181382853
  0
LINE
  5
8B
330
1F
100
AcDbEntity
  8
0
  6
Continuous
 62
     7
370
    25
100
AcDbLine
 10
14.076310241
 20
0.4
 30
0.0
 11
13.9556268101
 21
0.4
 31
0.0
  0
SPLINE
  5
8C
330
1F
100
AcDbEntity
  8
0
  6
Continuous
 62
     7
370
    25
100
AcDbSpline
210
0.0
220
0.0
230
1.0
 70
     8
 71
     3
 72
    15
 73
    11
 74
     0
 42
0.00000001
 43
0.00000001
 40
0.0
 40
0.0
 40
0.0
 40
0.0
 40
0.1386700644971726
 40
0.2701010615680177
 40
0.3996019276506484
 40
0.5295975093928528
 40
0.65529651806321
 40
0.7719496679237606
 40
0.8863374924354894
 40
0.9999999999999999
 40
0.9999999999999999
 40
0.9999999999999999
 40
0.9999999999999999
 10
14.26143825301205
 20
0.5623493975903615
 30
0.0
 10
14.25763810105859
 20
0.5507505050361106
 30
0.0
 10
14.25023617851337
 20
0.5281582231093903
 30
0.0
 10
14.23353639113784
 20
0.4971008360083572
 30
0.0
 10
14.21368981486478
 20
0.4689378535740598
 30
0.0
 10
14.1897653318978
 20
0.4447927110388747
 30
0.0
 10
14.16360984793767
 20
0.4249441613984188
 30
0.0
 10
14.13570752529379
 20
0.4103138262261881
 30
0.0
 10
14.1063479179232
 20
0.4018031722276619
 30
0.0
 10
14.08630154737248
 20
0.4005997816095591
 30
0.0
 10
14.07631024096386
 20
0.4
 30
0.0
  0
LINE
  5
8D
330
1F
100
AcDbEntity
  8
0
  6
Continuous
 62
     7
370
    25
100
AcDbLine
 10
14.3674755787
 20
0.9301163157
 30
0.0
 11
14.261438253
 21
0.5623493976
 31
0.0
  0
ARC
  5
8E
330
1F
100
AcDbEntity
  8
0
  6
Continuous
 62
     7
370
    25
100
AcDbCircle
 10
14.4275291959
 20
0.9128012048
 30
0.0
 40
0.0625000000000013
100
AcDbArc
 50
90.0
 51
163.91627241
  0
LINE
  5
8F
330
1F
100
AcDbEntity
  8
0
  6
Continuous
 62
     7
370
    25
100
AcDbLine
 10
14.4275291959
 20
0.9753012048
 30
0.0
 11
14.9075
 21
0.9753012048
 31
0.0
  0
ARC
  5
90
330
1F
100
AcDbEntity
  8
0
  6
Continuous
 62
     7
370
    25
100
AcDbCircle
 10
14.9075
 20
0.9128012048
 30
0.0
 40
0.0625
100
AcDbArc
 50
0.0
 51
90.0
  0
LINE
  5
91
330
1F
100
AcDbEntity
  8
0
  6
Continuous
 62
     7
370
    25
100
AcDbLine
 10
14.97
 20
0.9128012048
 30
0.0
 11
14.97
 21
0.4502148846
 31
0.0
  0
ARC
  5
92
330
1F
100
AcDbEntity
  8
0
  6
Continuous
 62
     7
370
    25
100
AcDbCircle
 10
14.9075
 20
0.4502148846
 30
0.0
 40
0.0625000000001741
100
AcDbArc
 50
246.3932075004
 51
0.0
  0
ARC
  5
93
330
1F
100
AcDbEntity
  8
0
  6
Continuous
 62
     7
370
    25
100
AcDbCircle
 10
14.82
 20
0.25
 30
0.0
 40
0.1560000000000003
100
AcDbArc
 50
66.3932075004
 51
179.3444275778
  0
ARC
  5
94
330
1F
100
AcDbEntity
  8
0
  6
Continuous
 62
     7
370
    25
100
AcDbCircle
 10
14.6015143025
 20
0.2525
 30
0.0
 40
0.0625000000000181
100
AcDbArc
 50
270.0
 51
359.3444275778
  0
LINE
  5
95
330
1F
100
AcDbEntity
  8
0
  6
Continuous
 62
     7
370
    25
100
AcDbLine
 10
9.4190231142
 20
2.6
 30
0.0
 11
9.6015148475
 21
2.6
 31
0.0
  0
ARC
  5
96
330
1F
100
AcDbEntity
  8
0
  6
Continuous
 62
     7
370
    25
100
AcDbCircle
 10
9.4190231142
 20
2.56875
 30
0.0
 40
0.0312500000000001
100
AcDbArc
 50
90.0
 51
163.9122475556
  0
LINE
  5
97
330
1F
100
AcDbEntity
  8
0
  6
Continuous
 62
     7
370
    25
100
AcDbLine
 10
9.1658965518
 20
1.8038397411
 30
0.0
 11
9.3889969138
 21
2.5774096647
 31
0.0
  0
ARC
  5
98
330
1F
100
AcDbEntity
  8
0
  6
Continuous
 62
     7
370
    25
100
AcDbCircle
 10
9.1058441512
 20
1.8211590706
 30
0.0
 40
0.0624999999999998
100
AcDbArc
 50
253.9122475556
 51
343.9122475556
  0
LINE
  5
99
330
1F
100
AcDbEntity
  8
0
  6
Continuous
 62
     7
370
    25
100
AcDbLine
 10
8.7996662112
 20
1.8444145372
 30
0.0
 11
9.0885248217
 21
1.7611066699
 31
0.0
  0
ARC
  5
9A
330
1F
100
AcDbEntity
  8
0
  6
Continuous
 62
     7
370
    25
100
AcDbCircle
 10
8.8169855406
 20
1.9044669379
 30
0.0
 40
0.0624999999999999
100
AcDbArc
 50
145.6846640319
 51
253.9122475556
  0
LINE
  5
9B
330
1F
100
AcDbEntity
  8
0
  6
Continuous
 62
     7
370
    25
100
AcDbLine
 10
9.3407727017
 20
2.7827341966
 30
0.0
 11
8.7653638262
 21
1.9397011345
 31
0.0
  0
ARC
  5
9C
330
1F
100
AcDbEntity
  8
0
  6
Continuous
 62
     7
370
    25
100
AcDbCircle
 10
9.392394416
 20
2.7475
 30
0.0
 40
0.0625000000000004
100
AcDbArc
 50
90.0
 51
145.6846640319
  0
LINE
  5
9D
330
1F
100
AcDbEntity
  8
0
  6
Continuous
 62
     7
370
    25
100
AcDbLine
 10
9.6260291547
 20
2.81
 30
0.0
 11
9.392394416
 21
2.81
 31
0.0
  0
ARC
  5
9E
330
1F
100
AcDbEntity
  8
0
  6
Continuous
 62
     7
370
    25
100
AcDbCircle
 10
9.6260291547
 20
2.7475
 30
0.0
 40
0.0625000000000004
100
AcDbArc
 50
343.9122475556
 51
90.0
  0
LINE
  5
9F
330
1F
100
AcDbEntity
  8
0
  6
Continuous
 62
     7
370
    25
100
AcDbLine
 10
9.6615672482
 20
2.6451806706
 30
0.0
 11
9.6860815554
 21
2.7301806706
 31
0.0
  0
ARC
  5
A0
330
1F
100
AcDbEntity
  8
0
  6
Continuous
 62
     7
370
    25
100
AcDbCircle
 10
9.6015148475
 20
2.6625
 30
0.0
 40
0.0625000000000004
100
AcDbArc
 50
270.0
 51
343.9122475556
  0
LINE
  5
A1
330
1F
100
AcDbEntity
  8
0
  6
Continuous
 62
     7
370
    25
100
AcDbLine
 10
8.7725341879
 20
0.4399096647
 30
0.0
 11
9.0966192342
 21
1.5636301384
 31
0.0
  0
ARC
  5
A2
330
1F
100
AcDbEntity
  8
0
  6
Continuous
 62
     7
370
    25
100
AcDbCircle
 10
8.8025603883
 20
0.43125
 30
0.0
 40
0.0312500000000004
100
AcDbArc
 50
163.9122475556
 51
270.0
  0
LINE
  5
A3
330
1F
100
AcDbEntity
  8
0
  6
Continuous
 62
     7
370
    25
100
AcDbLine
 10
8.9309764439
 20
0.4
 30
0.0
 11
8.8025603883
 21
0.4
 31
0.0
  0
ARC
  5
A4
330
1F
100
AcDbEntity
  8
0
  6
Continuous
 62
     7
370
    25
100
AcDbCircle
 10
8.9309764439
 20
0.3375
 30
0.0
 40
0.062500000000001
100
AcDbArc
 50
343.9122475556
 51
90.0
  0
LINE
  5
A5
330
1F
100
AcDbEntity
  8
0
  6
Continuous
 62
     7
370
    25
100
AcDbLine
 10
8.9910288445
 20
0.3201806706
 30
0.0
 11
8.9665145373
 21
0.2351806706
 31
0.0
  0
ARC
  5
A6
330
1F
100
AcDbEntity
  8
0
  6
Continuous
 62
     7
370
    25
100
AcDbCircle
 10
8.9064621366
 20
0.2525
 30
0.0
 40
0.062500000000001
100
AcDbArc
 50
270.0
 51
343.9122475556
  0
LINE
  5
A7
330
1F
100
AcDbEntity
  8
0
  6
Continuous
 62
     7
370
    25
100
AcDbLine
 10
8.7091297604
 20
0.19
 30
0.0
 11
8.9064621366
 21
0.19
 31
0.0
  0
ARC
  5
A8
330
1F
100
AcDbEntity
  8
0
  6
Continuous
 62
     7
370
    25
100
AcDbCircle
 10
8.7091297604
 20
0.2525
 30
0.0
 40
0.0625
100
AcDbArc
 50
186.353744323
 51
270.0
  0
LINE
  5
A9
330
1F
100
AcDbEntity
  8
0
  6
Continuous
 62
     7
370
    25
100
AcDbLine
 10
8.5039940156
 20
1.529992026
 30
0.0
 11
8.6470136613
 21
0.2455833367
 31
0.0
  0
ARC
  5
AA
330
1F
100
AcDbEntity
  8
0
  6
Continuous
 62
     7
370
    25
100
AcDbCircle
 10
8.5661101147
 20
1.5369086893
 30
0.0
 40
0.0625000000000013
100
AcDbArc
 50
145.6846640319
 51
186.353744323
  0
LINE
  5
AB
330
1F
100
AcDbEntity
  8
0
  6
Continuous
 62
     7
370
    25
100
AcDbLine
 10
8.616981446
 20
1.7223057177
 30
0.0
 11
8.5144884003
 21
1.5721428859
 31
0.0
  0
ARC
  5
AC
330
1F
100
AcDbEntity
  8
0
  6
Continuous
 62
     7
370
    25
100
AcDbCircle
 10
8.6686031604
 20
1.6870715211
 30
0.0
 40
0.0625000000000005
100
AcDbArc
 50
73.9122475556
 51
145.6846640319
  0
LINE
  5
AD
330
1F
100
AcDbEntity
  8
0
  6
Continuous
 62
     7
370
    25
100
AcDbLine
 10
8.6859224898
 20
1.7471239218
 30
0.0
 11
9.0538861629
 21
1.6410018685
 31
0.0
  0
ARC
  5
AE
330
1F
100
AcDbEntity
  8
0
  6
Continuous
 62
     7
370
    25
100
AcDbCircle
 10
9.0365668335
 20
1.5809494678
 30
0.0
 40
0.062500000000001
100
AcDbArc
 50
343.9122475556
 51
73.9122475556
  0
LINE
  5
AF
330
1F
100
AcDbEntity
  8
0
  6
Continuous
 62
     7
370
    25
100
AcDbLine
 10
14.390474417
 20
2.81
 30
0.0
 11
13.5511671687
 21
2.81
 31
0.0
  0
ARC
  5
B0
330
1F
100
AcDbEntity
  8
0
  6
Continuous
 62
     7
370
    25
100
AcDbCircle
 10
14.390474417
 20
2.7475
 30
0.0
 40
0.0625000000000005
100
AcDbArc
 50
343.9181382853
 51
90.0
  0
LINE
  5
B1
330
1F
100
AcDbEntity
  8
0
  6
Continuous
 62
     7
370
    25
100
AcDbLine
 10
14.4260237565
 20
2.6451868448
 30
0.0
 11
14.450528598
 21
2.7301868448
 31
0.0
  0
ARC
  5
B2
330
1F
100
AcDbEntity
  8
0
  6
Continuous
 62
     7
370
    25
100
AcDbCircle
 10
14.3659695754
 20
2.6625
 30
0.0
 40
0.0625000000000022
100
AcDbArc
 50
270.0
 51
343.9181382853
  0
LINE
  5
B3
330
1F
100
AcDbEntity
  8
0
  6
Continuous
 62
     7
370
    25
100
AcDbLine
 10
14.2452861446
 20
2.6
 30
0.0
 11
14.3659695754
 21
2.6
 31
0.0
  0
SPLINE
  5
B4
330
1F
100
AcDbEntity
  8
0
  6
Continuous
 62
     7
370
    25
100
AcDbSpline
210
0.0
220
0.0
230
1.0
 70
     8
 71
     3
 72
    15
 73
    11
 74
     0
 42
0.00000001
 43
0.00000001
 40
0.0
 40
0.0
 40
0.0
 40
0.0
 40
0.1387404694957186
 40
0.2702381961753782
 40
0.3998048119086031
 40
0.5287500472924941
 40
0.6545128753499342
 40
0.7733446070224423
 40
0.8862797841715667
 40
1.0
 40
1.0
 40
1.0
 40
1.0
 10
14.06015813253012
 20
2.437650602409639
 30
0.0
 10
14.06395638408254
 20
2.449251317784866
 30
0.0
 10
14.07135460503332
 20
2.471847150195841
 30
0.0
 10
14.08808091643847
 20
2.502879096057669
 30
0.0
 10
14.10777277246128
 20
2.531055766713507
 30
0.0
 10
14.13197006233365
 20
2.554800315897661
 30
0.0
 10
14.15815275124373
 20
2.574710335138197
 30
0.0
 10
14.18599432518876
 20
2.589578822047114
 30
0.0
 10
14.21537360322136
 20
2.598240484529169
 30
0.0
 10
14.23529230080372
 20
2.599412142133809
 30
0.0
 10
14.24528614457831
 20
2.6
 30
0.0
  0
LINE
  5
B5
330
1F
100
AcDbEntity
  8
0
  6
Continuous
 62
     7
370
    25
100
AcDbLine
 10
13.8371476287
 20
1.6644564514
 30
0.0
 11
14.0601581325
 21
2.4376506024
 31
0.0
  0
ARC
  5
B6
330
1F
100
AcDbEntity
  8
0
  6
Continuous
 62
     7
370
    25
100
AcDbCircle
 10
13.7770956109
 20
1.6817771084
 30
0.0
 40
0.0624999999999998
100
AcDbArc
 50
270.0
 51
343.9109808416
  0
LINE
  5
B7
330
1F
100
AcDbEntity
  8
0
  6
Continuous
 62
     7
370
    25
100
AcDbLine
 10
13.7770956109
 20
1.6192771084
 30
0.0
 11
13.6433156529
 21
1.6192771084
 31
0.0
  0
ARC
  5
B8
330
1F
100
AcDbEntity
  8
0
  6
Continuous
 62
     7
370
    25
100
AcDbCircle
 10
13.6433156529
 20
1.6817771084
 30
0.0
 40
0.0625000000000008
100
AcDbArc
 50
163.900914072
 51
270.0
  0
LINE
  5
B9
330
1F
100
AcDbEntity
  8
0
  6
Continuous
 62
     7
370
    25
100
AcDbLine
 10
13.7964231928
 20
2.4376506024
 30
0.0
 11
13.5832666793
 21
1.6991083163
 31
0.0
  0
SPLINE
  5
BA
330
1F
100
AcDbEntity
  8
0
  6
Continuous
 62
     7
370
    25
100
AcDbSpline
210
0.0
220
0.0
230
1.0
 70
     8
 71
     3
 72
    15
 73
    11
 74
     0
 42
0.00000001
 43
0.00000001
 40
0.0
 40
0.0
 40
0.0
 40
0.0
 40
0.1270950231831127
 40
0.2411608260192055
 40
0.3501117203622858
 40
0.4616648873920202
 40
0.5783670126618692
 40
0.7043145508388773
 40
0.8420976402669199
 40
1.0
 40
1.0
 40
1.0
 40
1.0
 10
13.70489457831325
 20
2.6
 30
0.0
 10
13.71433960570943
 20
2.599464442534551
 30
0.0
 10
13.7322613980156
 20
2.59844823058924
 30
0.0
 10
13.75737853455266
 20
2.590217357889725
 30
0.0
 10
13.77755466988054
 20
2.575015194039666
 30
0.0
 10
13.79253993404081
 20
2.554612231993624
 30
0.0
 10
13.80270741733641
 20
2.530055822079151
 30
0.0
 10
13.80651805781117
 20
2.501816254566131
 30
0.0
 10
13.80467869542127
 20
2.470366860481824
 30
0.0
 10
13.79929708691834
 20
2.449039740851936
 30
0.0
 10
13.79642319277108
 20
2.437650602409639
 30
0.0
  0
LINE
  5
BB
330
1F
100
AcDbEntity
  8
0
  6
Continuous
 62
     7
370
    25
100
AcDbLine
 10
13.5511671687
 20
2.6
 30
0.0
 11
13.7048945783
 21
2.6
 31
0.0
  0
ARC
  5
BC
330
1F
100
AcDbEntity
  8
0
  6
Continuous
 62
     7
370
    25
100
AcDbCircle
 10
13.5511671687
 20
2.6625
 30
0.0
 40
0.0625000000000004
100
AcDbArc
 50
180.0
 51
270.0
  0
LINE
  5
BD
330
1F
100
AcDbEntity
  8
0
  6
Continuous
 62
     7
370
    25
100
AcDbLine
 10
13.4886671687
 20
2.6625
 30
0.0
 11
13.4886671687
 21
2.7475
 31
0.0
  0
ARC
  5
BE
330
1F
100
AcDbEntity
  8
0
  6
Continuous
 62
     7
370
    25
100
AcDbCircle
 10
13.5511671687
 20
2.7475
 30
0.0
 40
0.0625000000000004
100
AcDbArc
 50
90.0
 51
180.0
  0
LINE
  5
BF
330
1F
100
AcDbEntity
  8
0
  6
Continuous
 62
     7
370
    25
100
AcDbLine
 10
14.6261512936
 20
2.6
 30
0.0
 11
14.7107981928
 21
2.6
 31
0.0
  0
ARC
  5
C0
330
1F
100
AcDbEntity
  8
0
  6
Continuous
 62
     7
370
    25
100
AcDbCircle
 10
14.6261512936
 20
2.6625
 30
0.0
 40
0.0625000000000006
100
AcDbArc
 50
163.9181382853
 51
270.0
  0
LINE
  5
C1
330
1F
100
AcDbEntity
  8
0
  6
Continuous
 62
     7
370
    25
100
AcDbLine
 10
14.5660971126
 20
2.6798131552
 30
0.0
 11
14.5906019541
 21
2.7648131552
 31
0.0
  0
ARC
  5
C2
330
1F
100
AcDbEntity
  8
0
  6
Continuous
 62
     7
370
    25
100
AcDbCircle
 10
14.6506561351
 20
2.7475
 30
0.0
 40
0.0625000000000007
100
AcDbArc
 50
90.0
 51
163.9181382853
  0
LINE
  5
C3
330
1F
100
AcDbEntity
  8
0
  6
Continuous
 62
     7
370
    25
100
AcDbLine
 10
14.9075
 20
2.81
 30
0.0
 11
14.6506561351
 21
2.81
 31
0.0
  0
ARC
  5
C4
330
1F
100
AcDbEntity
  8
0
  6
Continuous
 62
     7
370
    25
100
AcDbCircle
 10
14.9075
 20
2.7475
 30
0.0
 40
0.0625000000000004
100
AcDbArc
 50
0.0
 51
90.0
  0
LINE
  5
C5
330
1F
100
AcDbEntity
  8
0
  6
Continuous
 62
     7
370
    25
100
AcDbLine
 10
14.97
 20
2.7475
 30
0.0
 11
14.97
 21
2.6002148846
 31
0.0
  0
ARC
  5
C6
330
1F
100
AcDbEntity
  8
0
  6
Continuous
 62
     7
370
    25
100
AcDbCircle
 10
14.9075
 20
2.6002148846
 30
0.0
 40
0.0625000000001741
100
AcDbArc
 50
246.3932075004
 51
0.0
  0
ARC
  5
C7
330
1F
100
AcDbEntity
  8
0
  6
Continuous
 62
     7
370
    25
100
AcDbCircle
 10
14.82
 20
2.4
 30
0.0
 40
0.1560000000000002
100
AcDbArc
 50
66.3932075004
 51
88.2264845156
  0
ARC
  5
C8
330
1F
100
AcDbEntity
  8
0
  6
Continuous
 62
     7
370
    25
100
AcDbCircle
 10
14.8267623001
 20
2.6183953326
 30
0.0
 40
0.0624999999999908
100
AcDbArc
 50
224.8029727492
 51
268.2264845156
  0
SPLINE
  5
C9
330
1F
100
AcDbEntity
  8
0
  6
Continuous
 62
     7
370
    25
100
AcDbSpline
210
0.0
220
0.0
230
1.0
 70
     8
 71
     3
 72
    10
 73
     6
 74
     0
 42
0.00000001
 43
0.00000001
 40
0.0
 40
0.0
 40
0.0
 40
0.0
 40
0.1270950231831218
 40
0.2411608260192139
 40
0.3499156127091822
 40
0.3499156127091822
 40
0.3499156127091822
 40
0.3499156127091822
 10
14.71079819277108
 20
2.6
 30
0.0
 10
14.72024322016726
 20
2.599464442534551
 30
0.0
 10
14.73816501247344
 20
2.59844823058924
 30
0.0
 10
14.76326808017928
 20
2.590221968238463
 30
0.0
 10
14.77670744965557
 20
2.580101757300159
 30
0.0
 10
14.78241641408009
 20
2.574353393555339
 30
0.0
  0
LINE
  5
CA
330
1F
100
AcDbEntity
  8
0
  6
Continuous
 62
     7
370
    25
100
AcDbLine
 10
5.6978159451
 20
1.2746987952
 30
0.0
 11
5.3017157168
 21
1.2746987952
 31
0.0
  0
ARC
  5
CB
330
1F
100
AcDbEntity
  8
0
  6
Continuous
 62
     7
370
    25
100
AcDbCircle
 10
5.6978159451
 20
1.3371987952
 30
0.0
 40
0.0625000000000001
100
AcDbArc
 50
270.0
 51
273.094448754
  0
SPLINE
  5
CC
330
1F
100
AcDbEntity
  8
0
  6
Continuous
 62
     7
370
    25
100
AcDbSpline
210
0.0
220
0.0
230
1.0
 70
     8
 71
     3
 72
    15
 73
    11
 74
     0
 42
0.00000001
 43
0.00000001
 40
0.0033275235861972
 40
0.0033275235861972
 40
0.0033275235861972
 40
0.0033275235861972
 40
0.1367642151502759
 40
0.2682939511160746
 40
0.398814118570441
 40
0.528907360837001
 40
0.6547008021867837
 40
0.7728416231577074
 40
0.886252102301919
 40
0.99358242410831
 40
0.99358242410831
 40
0.99358242410831
 40
0.99358242410831
 10
5.884356587266126
 20
1.436211759849075
 30
0.0
 10
5.880788453297434
 20
1.42503134955357
 30
0.0
 10
5.873655299173341
 20
1.402849512603256
 30
0.0
 10
5.857175975637424
 20
1.372080395749103
 30
0.0
 10
5.836838014501703
 20
1.344172543030402
 30
0.0
 10
5.812962845307176
 20
1.319918878805159
 30
0.0
 10
5.78673610759377
 20
1.29987506719877
 30
0.0
 10
5.75859737093519
 20
1.285746592844842
 30
0.0
 10
5.730038555460778
 20
1.276483761407243
 30
0.0
 10
5.710635037325051
 20
1.275300542755204
 30
0.0
 10
5.701189824302658
 20
1.274789926105624
 30
0.0
  0
ARC
  5
CD
330
1F
100
AcDbEntity
  8
0
  6
Continuous
 62
     7
370
    25
100
AcDbCircle
 10
5.82481526
 20
1.455213874
 30
0.0
 40
0.0625000000000022
100
AcDbArc
 50
342.2999539749
 51
343.9074995585
  0
LINE
  5
CE
330
1F
100
AcDbEntity
  8
0
  6
Continuous
 62
     7
370
    25
100
AcDbLine
 10
5.9247272621
 20
1.5760592455
 30
0.0
 11
5.8848662252
 21
1.4378895682
 31
0.0
  0
ARC
  5
CF
330
1F
100
AcDbEntity
  8
0
  6
Continuous
 62
     7
370
    25
100
AcDbCircle
 10
5.9847782274
 20
1.5587349398
 30
0.0
 40
0.0625000000000002
100
AcDbArc
 50
90.0
 51
163.9074995585
  0
LINE
  5
D0
330
1F
100
AcDbEntity
  8
0
  6
Continuous
 62
     7
370
    25
100
AcDbLine
 10
5.9847782274
 20
1.6212349398
 30
0.0
 11
6.091955647
 21
1.6212349398
 31
0.0
  0
ARC
  5
D1
330
1F
100
AcDbEntity
  8
0
  6
Continuous
 62
     7
370
    25
100
AcDbCircle
 10
6.091955647
 20
1.5587349398
 30
0.0
 40
0.0625000000000002
100
AcDbArc
 50
343.9116646592
 51
90.0
  0
LINE
  5
D2
330
1F
100
AcDbEntity
  8
0
  6
Continuous
 62
     7
370
    25
100
AcDbLine
 10
5.8696310241
 20
0.5623493976
 30
0.0
 11
6.1520078714
 21
1.5414149994
 31
0.0
  0
SPLINE
  5
D3
330
1F
100
AcDbEntity
  8
0
  6
Continuous
 62
     7
370
    25
100
AcDbSpline
210
0.0
220
0.0
230
1.0
 70
     8
 71
     3
 72
    15
 73
    11
 74
     0
 42
0.00000001
 43
0.00000001
 40
0.0
 40
0.0
 40
0.0
 40
0.0
 40
0.1270162801907116
 40
0.2410114124181353
 40
0.3487953470963768
 40
0.4602794002460858
 40
0.5786282395949816
 40
0.7044977457153944
 40
0.8421954702527211
 40
1.0
 40
1.0
 40
1.0
 40
1.0
 10
5.961159638554216
 20
0.4
 30
0.0
 10
5.951707798027256
 20
0.4005261229891053
 30
0.0
 10
5.933773077911588
 20
0.4015244331625692
 30
0.0
 10
5.908822658388207
 20
0.4098510131129884
 30
0.0
 10
5.888381989946883
 20
0.4245349844198871
 30
0.0
 10
5.873419523732618
 20
0.4450922721521274
 30
0.0
 10
5.86342514533218
 20
0.4698343543718877
 30
0.0
 10
5.859517759104707
 20
0.4981783688929391
 30
0.0
 10
5.861381109998504
 20
0.529634772515963
 30
0.0
 10
5.866759075428218
 20
0.5509608276249914
 30
0.0
 10
5.869631024096384
 20
0.5623493975903615
 30
0.0
  0
LINE
  5
D4
330
1F
100
AcDbEntity
  8
0
  6
Continuous
 62
     7
370
    25
100
AcDbLine
 10
6.0458007081
 20
0.4
 30
0.0
 11
5.9611596386
 21
0.4
 31
0.0
  0
ARC
  5
D5
330
1F
100
AcDbEntity
  8
0
  6
Continuous
 62
     7
370
    25
100
AcDbCircle
 10
6.0458007081
 20
0.3375
 30
0.0
 40
0.0625000000000001
100
AcDbArc
 50
343.9149633681
 51
90.0
  0
LINE
  5
D6
330
1F
100
AcDbEntity
  8
0
  6
Continuous
 62
     7
370
    25
100
AcDbLine
 10
6.1058539296
 20
0.3201835171
 30
0.0
 11
6.0813439865
 21
0.2351835171
 31
0.0
  0
ARC
  5
D7
330
1F
100
AcDbEntity
  8
0
  6
Continuous
 62
     7
370
    25
100
AcDbCircle
 10
6.0212907649
 20
0.2525
 30
0.0
 40
0.0625
100
AcDbArc
 50
270.0
 51
343.9149633681
  0
LINE
  5
D8
330
1F
100
AcDbEntity
  8
0
  6
Continuous
 62
     7
370
    25
100
AcDbLine
 10
5.0249843881
 20
0.19
 30
0.0
 11
6.0212907649
 21
0.19
 31
0.0
  0
ARC
  5
D9
330
1F
100
AcDbEntity
  8
0
  6
Continuous
 62
     7
370
    25
100
AcDbCircle
 10
5.0249843881
 20
0.2525
 30
0.0
 40
0.0625
100
AcDbArc
 50
163.9149633681
 51
270.0
  0
LINE
  5
DA
330
1F
100
AcDbEntity
  8
0
  6
Continuous
 62
     7
370
    25
100
AcDbLine
 10
5.2416624952
 20
1.2295152781
 30
0.0
 11
4.9649311665
 21
0.2698164829
 31
0.0
  0
ARC
  5
DB
330
1F
100
AcDbEntity
  8
0
  6
Continuous
 62
     7
370
    25
100
AcDbCircle
 10
5.3017157168
 20
1.2121987952
 30
0.0
 40
0.0624999999999998
100
AcDbArc
 50
90.0
 51
163.9149633681
  0
LINE
  5
DC
330
1F
100
AcDbEntity
  8
0
  6
Continuous
 62
     7
370
    25
100
AcDbLine
 10
6.22411153
 20
1.7914149994
 30
0.0
 11
6.4548715016
 21
2.5915129982
 31
0.0
  0
ARC
  5
DD
330
1F
100
AcDbEntity
  8
0
  6
Continuous
 62
     7
370
    25
100
AcDbCircle
 10
6.1640593055
 20
1.8087349398
 30
0.0
 40
0.0625000000000015
100
AcDbArc
 50
270.0
 51
343.9116646592
  0
LINE
  5
DE
330
1F
100
AcDbEntity
  8
0
  6
Continuous
 62
     7
370
    25
100
AcDbLine
 10
6.0569015717
 20
1.7462349398
 30
0.0
 11
6.1640593055
 21
1.7462349398
 31
0.0
  0
ARC
  5
DF
330
1F
100
AcDbEntity
  8
0
  6
Continuous
 62
     7
370
    25
100
AcDbCircle
 10
6.0569015717
 20
1.8087349398
 30
0.0
 40
0.0625
100
AcDbArc
 50
163.9074995585
 51
270.0
  0
LINE
  5
E0
330
1F
100
AcDbEntity
  8
0
  6
Continuous
 62
     7
370
    25
100
AcDbLine
 10
6.1732906627
 20
2.4376506024
 30
0.0
 11
5.9968506065
 21
1.8260592455
 31
0.0
  0
SPLINE
  5
E1
330
1F
100
AcDbEntity
  8
0
  6
Continuous
 62
     7
370
    25
100
AcDbSpline
210
0.0
220
0.0
230
1.0
 70
     8
 71
     3
 72
    15
 73
    11
 74
     0
 42
0.00000001
 43
0.00000001
 40
0.0
 40
0.0
 40
0.0
 40
0.0
 40
0.1272818948069226
 40
0.2397568096608452
 40
0.3488678977710057
 40
0.4605850847673823
 40
0.5774588006715746
 40
0.7038797956562206
 40
0.8418654716923679
 40
0.9999999999999999
 40
0.9999999999999999
 40
0.9999999999999999
 40
0.9999999999999999
 10
6.081762048192771
 20
2.6
 30
0.0
 10
6.091213754063676
 20
2.599485608247615
 30
0.0
 10
6.109017628282377
 20
2.598516665055382
 30
0.0
 10
6.133930180292485
 20
2.590106199349866
 30
0.0
 10
6.15400210443251
 20
2.575022449437209
 30
0.0
 10
6.169025982541791
 20
2.554615065177614
 30
0.0
 10
6.179033303759134
 20
2.530015189123561
 30
0.0
 10
6.183548228546002
 20
2.501862916635168
 30
0.0
 10
6.181497173749518
 20
2.470359215946616
 30
0.0
 10
6.176147501926891
 20
2.449037079646929
 30
0.0
 10
6.173290662650603
 20
2.437650602409639
 30
0.0
  0
LINE
  5
E2
330
1F
100
AcDbEntity
  8
0
  6
Continuous
 62
     7
370
    25
100
AcDbLine
 10
5.9280346386
 20
2.6
 30
0.0
 11
6.0817620482
 21
2.6
 31
0.0
  0
ARC
  5
E3
330
1F
100
AcDbEntity
  8
0
  6
Continuous
 62
     7
370
    25
100
AcDbCircle
 10
5.9280346386
 20
2.6625
 30
0.0
 40
0.0625000000000004
100
AcDbArc
 50
180.0
 51
270.0
  0
LINE
  5
E4
330
1F
100
AcDbEntity
  8
0
  6
Continuous
 62
     7
370
    25
100
AcDbLine
 10
5.8655346386
 20
2.6625
 30
0.0
 11
5.8655346386
 21
2.7475
 31
0.0
  0
ARC
  5
E5
330
1F
100
AcDbEntity
  8
0
  6
Continuous
 62
     7
370
    25
100
AcDbCircle
 10
5.9280346386
 20
2.7475
 30
0.0
 40
0.0625000000000004
100
AcDbArc
 50
90.0
 51
180.0
  0
LINE
  5
E6
330
1F
100
AcDbEntity
  8
0
  6
Continuous
 62
     7
370
    25
100
AcDbLine
 10
6.3948192771
 20
2.81
 30
0.0
 11
5.9280346386
 21
2.81
 31
0.0
  0
ARC
  5
E7
330
1F
100
AcDbEntity
  8
0
  6
Continuous
 62
     7
370
    25
100
AcDbCircle
 10
6.3948192771
 20
2.7475
 30
0.0
 40
0.0625000000000004
100
AcDbArc
 50
0.0
 51
90.0
  0
LINE
  5
E8
330
1F
100
AcDbEntity
  8
0
  6
Continuous
 62
     7
370
    25
100
AcDbLine
 10
6.4573192771
 20
2.7475
 30
0.0
 11
6.4573192771
 21
2.6088329386
 31
0.0
  0
ARC
  5
E9
330
1F
100
AcDbEntity
  8
0
  6
Continuous
 62
     7
370
    25
100
AcDbCircle
 10
6.3948192771
 20
2.6088329386
 30
0.0
 40
0.0624999999999998
100
AcDbArc
 50
343.9116646592
 51
0.0
  0
LINE
  5
EA
330
1F
100
AcDbEntity
  8
0
  6
Continuous
 62
     7
370
    25
100
AcDbLine
 10
6.9041671947
 20
1.5760548801
 30
0.0
 11
6.6117996988
 21
0.5623493976
 31
0.0
  0
ARC
  5
EB
330
1F
100
AcDbEntity
  8
0
  6
Continuous
 62
     7
370
    25
100
AcDbCircle
 10
6.9642194192
 20
1.5587349398
 30
0.0
 40
0.0625
100
AcDbArc
 50
90.0
 51
163.9116646592
  0
LINE
  5
EC
330
1F
100
AcDbEntity
  8
0
  6
Continuous
 62
     7
370
    25
100
AcDbLine
 10
6.9642194192
 20
1.6212349398
 30
0.0
 11
7.1243779426
 21
1.6212349398
 31
0.0
  0
ARC
  5
ED
330
1F
100
AcDbEntity
  8
0
  6
Continuous
 62
     7
370
    25
100
AcDbCircle
 10
7.1243779426
 20
1.5587349398
 30
0.0
 40
0.0625000000000007
100
AcDbArc
 50
343.9109808416
 51
90.0
  0
LINE
  5
EE
330
1F
100
AcDbEntity
  8
0
  6
Continuous
 62
     7
370
    25
100
AcDbLine
 10
6.9020406627
 20
0.5623493976
 30
0.0
 11
7.1844299603
 21
1.5414142827
 31
0.0
  0
SPLINE
  5
EF
330
1F
100
AcDbEntity
  8
0
  6
Continuous
 62
     7
370
    25
100
AcDbSpline
210
0.0
220
0.0
230
1.0
 70
     8
 71
     3
 72
    15
 73
    11
 74
     0
 42
0.00000001
 43
0.00000001
 40
0.0
 40
0.0
 40
0.0
 40
0.0
 40
0.127016280190716
 40
0.2410114124181394
 40
0.3487953470963766
 40
0.4602794002460881
 40
0.5786282395949834
 40
0.7044977457153954
 40
0.8421954702527217
 40
1.0
 40
1.0
 40
1.0
 40
1.0
 10
6.993569277108434
 20
0.4
 30
0.0
 10
6.984117436581475
 20
0.4005261229891053
 30
0.0
 10
6.966182716465806
 20
0.4015244331625692
 30
0.0
 10
6.941232296942425
 20
0.4098510131129881
 30
0.0
 10
6.9207916285011
 20
0.4245349844198877
 30
0.0
 10
6.905829162286838
 20
0.4450922721521272
 30
0.0
 10
6.895834783886394
 20
0.4698343543718876
 30
0.0
 10
6.891927397658922
 20
0.4981783688929392
 30
0.0
 10
6.893790748552722
 20
0.5296347725159631
 30
0.0
 10
6.899168713982437
 20
0.5509608276249917
 30
0.0
 10
6.902040662650602
 20
0.5623493975903615
 30
0.0
  0
LINE
  5
F0
330
1F
100
AcDbEntity
  8
0
  6
Continuous
 62
     7
370
    25
100
AcDbLine
 10
7.0782161763
 20
0.4
 30
0.0
 11
6.9935692771
 21
0.4
 31
0.0
  0
ARC
  5
F1
330
1F
100
AcDbEntity
  8
0
  6
Continuous
 62
     7
370
    25
100
AcDbCircle
 10
7.0782161763
 20
0.3375
 30
0.0
 40
0.0625
100
AcDbArc
 50
343.9181382853
 51
90.0
  0
LINE
  5
F2
330
1F
100
AcDbEntity
  8
0
  6
Continuous
 62
     7
370
    25
100
AcDbLine
 10
7.1137655157
 20
0.2351868448
 30
0.0
 11
7.1382703573
 21
0.3201868448
 31
0.0
  0
ARC
  5
F3
330
1F
100
AcDbEntity
  8
0
  6
Continuous
 62
     7
370
    25
100
AcDbCircle
 10
7.0537113347
 20
0.2525
 30
0.0
 40
0.0625000000000008
100
AcDbArc
 50
270.0
 51
343.9181382853
  0
LINE
  5
F4
330
1F
100
AcDbEntity
  8
0
  6
Continuous
 62
     7
370
    25
100
AcDbLine
 10
6.2814766399
 20
0.19
 30
0.0
 11
7.0537113347
 21
0.19
 31
0.0
  0
ARC
  5
F5
330
1F
100
AcDbEntity
  8
0
  6
Continuous
 62
     7
370
    25
100
AcDbCircle
 10
6.2814766399
 20
0.2525
 30
0.0
 40
0.0625000000000003
100
AcDbArc
 50
163.9149633681
 51
270.0
  0
LINE
  5
F6
330
1F
100
AcDbEntity
  8
0
  6
Continuous
 62
     7
370
    25
100
AcDbLine
 10
6.2459333616
 20
0.3548164829
 30
0.0
 11
6.2214234184
 21
0.2698164829
 31
0.0
  0
ARC
  5
F7
330
1F
100
AcDbEntity
  8
0
  6
Continuous
 62
     7
370
    25
100
AcDbCircle
 10
6.3059865831
 20
0.3375
 30
0.0
 40
0.0625
100
AcDbArc
 50
90.0
 51
163.9149633681
  0
LINE
  5
F8
330
1F
100
AcDbEntity
  8
0
  6
Continuous
 62
     7
370
    25
100
AcDbLine
 10
6.4266716867
 20
0.4
 30
0.0
 11
6.3059865831
 21
0.4
 31
0.0
  0
SPLINE
  5
F9
330
1F
100
AcDbEntity
  8
0
  6
Continuous
 62
     7
370
    25
100
AcDbSpline
210
0.0
220
0.0
230
1.0
 70
     8
 71
     3
 72
    15
 73
    11
 74
     0
 42
0.00000001
 43
0.00000001
 40
0.0
 40
0.0
 40
0.0
 40
0.0
 40
0.13875173889006
 40
0.270260146661848
 40
0.400759149628706
 40
0.5308312966357779
 40
0.6566043399599524
 40
0.7733261966118893
 40
0.8862705470833415
 40
0.9999999999999999
 40
0.9999999999999999
 40
0.9999999999999999
 40
0.9999999999999999
 10
6.61179969879518
 20
0.5623493975903615
 30
0.0
 10
6.607990743197403
 20
0.550756873746287
 30
0.0
 10
6.60057167294489
 20
0.5281769967707419
 30
0.0
 10
6.583956538988813
 20
0.4969589104295521
 30
0.0
 10
6.563592025322226
 20
0.4690692757619764
 30
0.0
 10
6.539738374575146
 20
0.4447761971944251
 30
0.0
 10
6.513553257321739
 20
0.4249393706509246
 30
0.0
 10
6.485765826914792
 20
0.4104066963387336
 30
0.0
 10
6.456588566856159
 20
0.4017499077488194
 30
0.0
 10
6.436666980107939
 20
0.4005846479058051
 30
0.0
 10
6.426671686746988
 20
0.4
 30
0.0
  0
LINE
  5
FA
330
1F
100
AcDbEntity
  8
0
  6
Continuous
 62
     7
370
    25
100
AcDbLine
 10
7.1982640641
 20
2.5957564991
 30
0.0
 11
6.9762708532
 21
1.8260548801
 31
0.0
  0
ARC
  5
FB
330
1F
100
AcDbEntity
  8
0
  6
Continuous
 62
     7
370
    25
100
AcDbCircle
 10
7.1682379518
 20
2.6044164693
 30
0.0
 40
0.03125
100
AcDbArc
 50
343.9116646592
 51
0.0
  0
LINE
  5
FC
330
1F
100
AcDbEntity
  8
0
  6
Continuous
 62
     7
370
    25
100
AcDbLine
 10
7.1994879518
 20
2.6044164693
 30
0.0
 11
7.1994879518
 21
2.7475
 31
0.0
  0
ARC
  5
FD
330
1F
100
AcDbEntity
  8
0
  6
Continuous
 62
     7
370
    25
100
AcDbCircle
 10
7.2619879518
 20
2.7475
 30
0.0
 40
0.0625000000000004
100
AcDbArc
 50
90.0
 51
180.0
  0
LINE
  5
FE
330
1F
100
AcDbEntity
  8
0
  6
Continuous
 62
     7
370
    25
100
AcDbLine
 10
7.7732455013
 20
2.81
 30
0.0
 11
7.2619879518
 21
2.81
 31
0.0
  0
ARC
  5
FF
330
1F
100
AcDbEntity
  8
0
  6
Continuous
 62
     7
370
    25
100
AcDbCircle
 10
7.7732455013
 20
2.7475
 30
0.0
 40
0.0625000000000004
100
AcDbArc
 50
343.9181382853
 51
90.0
  0
LINE
  5
100
330
1F
100
AcDbEntity
  8
0
  6
Continuous
 62
     7
370
    25
100
AcDbLine
 10
7.8087948408
 20
2.6451868448
 30
0.0
 11
7.8332996823
 21
2.7301868448
 31
0.0
  0
ARC
  5
101
330
1F
100
AcDbEntity
  8
0
  6
Continuous
 62
     7
370
    25
100
AcDbCircle
 10
7.7487406598
 20
2.6625
 30
0.0
 40
0.0625000000000004
100
AcDbArc
 50
270.0
 51
343.9181382853
  0
LINE
  5
102
330
1F
100
AcDbEntity
  8
0
  6
Continuous
 62
     7
370
    25
100
AcDbLine
 10
7.6280572289
 20
2.6
 30
0.0
 11
7.7487406598
 21
2.6
 31
0.0
  0
SPLINE
  5
103
330
1F
100
AcDbEntity
  8
0
  6
Continuous
 62
     7
370
    25
100
AcDbSpline
210
0.0
220
0.0
230
1.0
 70
     8
 71
     3
 72
    15
 73
    11
 74
     0
 42
0.00000001
 43
0.00000001
 40
0.0
 40
0.0
 40
0.0
 40
0.0
 40
0.1387404694957193
 40
0.2702381961753781
 40
0.3998048119086023
 40
0.5287500472924925
 40
0.6545128753499353
 40
0.7733446070224353
 40
0.8862797841715632
 40
1.0
 40
1.0
 40
1.0
 40
1.0
 10
7.44292921686747
 20
2.437650602409639
 30
0.0
 10
7.446727468419882
 20
2.449251317784865
 30
0.0
 10
7.454125689370662
 20
2.47184715019584
 30
0.0
 10
7.470852000775828
 20
2.502879096057672
 30
0.0
 10
7.490543856798623
 20
2.531055766713505
 30
0.0
 10
7.514741146671
 20
2.554800315897662
 30
0.0
 10
7.540923835581074
 20
2.574710335138195
 30
0.0
 10
7.568765409526103
 20
2.589578822047115
 30
0.0
 10
7.598144687558717
 20
2.598240484529169
 30
0.0
 10
7.618063385141071
 20
2.599412142133808
 30
0.0
 10
7.628057228915664
 20
2.600000000000001
 30
0.0
  0
LINE
  5
104
330
1F
100
AcDbEntity
  8
0
  6
Continuous
 62
     7
370
    25
100
AcDbLine
 10
7.2565368508
 20
1.7914142827
 30
0.0
 11
7.4429292169
 21
2.4376506024
 31
0.0
  0
ARC
  5
105
330
1F
100
AcDbEntity
  8
0
  6
Continuous
 62
     7
370
    25
100
AcDbCircle
 10
7.196484833
 20
1.8087349398
 30
0.0
 40
0.0625
100
AcDbArc
 50
270.0
 51
343.9109808416
  0
LINE
  5
106
330
1F
100
AcDbEntity
  8
0
  6
Continuous
 62
     7
370
    25
100
AcDbLine
 10
7.0363230777
 20
1.7462349398
 30
0.0
 11
7.196484833
 21
1.7462349398
 31
0.0
  0
ARC
  5
107
330
1F
100
AcDbEntity
  8
0
  6
Continuous
 62
     7
370
    25
100
AcDbCircle
 10
7.0363230777
 20
1.8087349398
 30
0.0
 40
0.0625
100
AcDbArc
 50
163.9116646592
 51
270.0
  0
LINE
  5
108
330
1F
100
AcDbEntity
  8
0
  6
Continuous
 62
     7
370
    25
100
AcDbLine
 10
5.5014327527
 20
2.6
 30
0.0
 11
5.6780346386
 21
2.6
 31
0.0
  0
ARC
  5
109
330
1F
100
AcDbEntity
  8
0
  6
Continuous
 62
     7
370
    25
100
AcDbCircle
 10
5.5014327527
 20
2.56875
 30
0.0
 40
0.03125
100
AcDbArc
 50
90.0
 51
163.9122475556
  0
LINE
  5
10A
330
1F
100
AcDbEntity
  8
0
  6
Continuous
 62
     7
370
    25
100
AcDbLine
 10
5.2483061904
 20
1.8038397411
 30
0.0
 11
5.4714065524
 21
2.5774096647
 31
0.0
  0
ARC
  5
10B
330
1F
100
AcDbEntity
  8
0
  6
Continuous
 62
     7
370
    25
100
AcDbCircle
 10
5.1882537897
 20
1.8211590706
 30
0.0
 40
0.0625000000000003
100
AcDbArc
 50
253.9122475556
 51
343.9122475556
  0
LINE
  5
10C
330
1F
100
AcDbEntity
  8
0
  6
Continuous
 62
     7
370
    25
100
AcDbLine
 10
5.1709344603
 20
1.7611066699
 30
0.0
 11
4.5066924851
 21
1.9526764564
 31
0.0
  0
ARC
  5
10D
330
1F
100
AcDbEntity
  8
0
  6
Continuous
 62
     7
370
    25
100
AcDbCircle
 10
4.5240118145
 20
2.0127288571
 30
0.0
 40
0.0625000000000006
100
AcDbArc
 50
145.6846640319
 51
253.9122475556
  0
LINE
  5
10E
330
1F
100
AcDbEntity
  8
0
  6
Continuous
 62
     7
370
    25
100
AcDbLine
 10
4.9739052318
 20
2.7827341966
 30
0.0
 11
4.4723901002
 21
2.0479630536
 31
0.0
  0
ARC
  5
10F
330
1F
100
AcDbEntity
  8
0
  6
Continuous
 62
     7
370
    25
100
AcDbCircle
 10
5.0255269461
 20
2.7475
 30
0.0
 40
0.0625000000000004
100
AcDbArc
 50
90.0
 51
145.6846640319
  0
LINE
  5
110
330
1F
100
AcDbEntity
  8
0
  6
Continuous
 62
     7
370
    25
100
AcDbLine
 10
5.6780346386
 20
2.81
 30
0.0
 11
5.0255269461
 21
2.81
 31
0.0
  0
ARC
  5
111
330
1F
100
AcDbEntity
  8
0
  6
Continuous
 62
     7
370
    25
100
AcDbCircle
 10
5.6780346386
 20
2.7475
 30
0.0
 40
0.0625000000000004
100
AcDbArc
 50
0.0
 51
90.0
  0
LINE
  5
112
330
1F
100
AcDbEntity
  8
0
  6
Continuous
 62
     7
370
    25
100
AcDbLine
 10
5.7405346386
 20
2.6625
 30
0.0
 11
5.7405346386
 21
2.7475
 31
0.0
  0
ARC
  5
113
330
1F
100
AcDbEntity
  8
0
  6
Continuous
 62
     7
370
    25
100
AcDbCircle
 10
5.6780346386
 20
2.6625
 30
0.0
 40
0.0625000000000004
100
AcDbArc
 50
270.0
 51
0.0
  0
LINE
  5
114
330
1F
100
AcDbEntity
  8
0
  6
Continuous
 62
     7
370
    25
100
AcDbLine
 10
4.32400772
 20
1.8305676368
 30
0.0
 11
4.1476209305
 21
1.5721428859
 31
0.0
  0
ARC
  5
115
330
1F
100
AcDbEntity
  8
0
  6
Continuous
 62
     7
370
    25
100
AcDbCircle
 10
4.3756294344
 20
1.7953334403
 30
0.0
 40
0.0625000000000003
100
AcDbArc
 50
73.9122475556
 51
145.6846640319
  0
LINE
  5
116
330
1F
100
AcDbEntity
  8
0
  6
Continuous
 62
     7
370
    25
100
AcDbLine
 10
5.1362958015
 20
1.6410018685
 30
0.0
 11
4.3929487638
 21
1.8553858409
 31
0.0
  0
ARC
  5
117
330
1F
100
AcDbEntity
  8
0
  6
Continuous
 62
     7
370
    25
100
AcDbCircle
 10
5.1189764721
 20
1.5809494678
 30
0.0
 40
0.0625000000000001
100
AcDbArc
 50
343.9122475556
 51
73.9122475556
  0
LINE
  5
118
330
1F
100
AcDbEntity
  8
0
  6
Continuous
 62
     7
370
    25
100
AcDbLine
 10
4.7958992446
 20
0.2351806706
 30
0.0
 11
5.1790288727
 21
1.5636301384
 31
0.0
  0
ARC
  5
119
330
1F
100
AcDbEntity
  8
0
  6
Continuous
 62
     7
370
    25
100
AcDbCircle
 10
4.7358468439
 20
0.2525
 30
0.0
 40
0.0625000000000008
100
AcDbArc
 50
270.0
 51
343.9122475556
  0
LINE
  5
11A
330
1F
100
AcDbEntity
  8
0
  6
Continuous
 62
     7
370
    25
100
AcDbLine
 10
4.3883122951
 20
0.19
 30
0.0
 11
4.7358468439
 21
0.19
 31
0.0
  0
ARC
  5
11B
330
1F
100
AcDbEntity
  8
0
  6
Continuous
 62
     7
370
    25
100
AcDbCircle
 10
4.3883122951
 20
0.2525
 30
0.0
 40
0.0625000000000181
100
AcDbArc
 50
168.7276290802
 51
270.0
  0
ARC
  5
11C
330
1F
100
AcDbEntity
  8
0
  6
Continuous
 62
     7
370
    25
100
AcDbCircle
 10
4.15
 20
0.3
 30
0.0
 40
0.1804999999999994
100
AcDbArc
 50
348.7276290802
 51
46.4724932189
  0
ARC
  5
11D
330
1F
100
AcDbEntity
  8
0
  6
Continuous
 62
     7
370
    25
100
AcDbCircle
 10
4.3173547651
 20
0.4761856481
 30
0.0
 40
0.0625000000000002
100
AcDbArc
 50
186.353744323
 51
226.4724932189
  0
LINE
  5
11E
330
1F
100
AcDbEntity
  8
0
  6
Continuous
 62
     7
370
    25
100
AcDbLine
 10
4.1371265457
 20
1.529992026
 30
0.0
 11
4.255238666
 21
0.4692689848
 31
0.0
  0
ARC
  5
11F
330
1F
100
AcDbEntity
  8
0
  6
Continuous
 62
     7
370
    25
100
AcDbCircle
 10
4.1992426448
 20
1.5369086893
 30
0.0
 40
0.0624999999999999
100
AcDbArc
 50
145.6846640319
 51
186.353744323
  0
LINE
  5
120
330
1F
100
AcDbEntity
  8
0
  6
Continuous
 62
     7
370
    25
100
AcDbLine
 10
12.2323471859
 20
0.4
 30
0.0
 11
12.0498405742
 21
0.4
 31
0.0
  0
ARC
  5
121
330
1F
100
AcDbEntity
  8
0
  6
Continuous
 62
     7
370
    25
100
AcDbCircle
 10
12.2323471859
 20
0.43125
 30
0.0
 40
0.0312500000000009
100
AcDbArc
 50
270.0
 51
343.8774012223
  0
LINE
  5
122
330
1F
100
AcDbEntity
  8
0
  6
Continuous
 62
     7
370
    25
100
AcDbLine
 10
12.2902730933
 20
0.51910822
 30
0.0
 11
12.2623681141
 21
0.4225720755
 31
0.0
  0
ARC
  5
123
330
1F
100
AcDbEntity
  8
0
  6
Continuous
 62
     7
370
    25
100
AcDbCircle
 10
12.2602521652
 20
0.5277861446
 30
0.0
 40
0.031250000000001
100
AcDbArc
 50
343.8774012223
 51
90.0
  0
LINE
  5
124
330
1F
100
AcDbEntity
  8
0
  6
Continuous
 62
     7
370
    25
100
AcDbLine
 10
11.9077581394
 20
0.5590361446
 30
0.0
 11
12.2602521652
 21
0.5590361446
 31
0.0
  0
ARC
  5
125
330
1F
100
AcDbEntity
  8
0
  6
Continuous
 62
     7
370
    25
100
AcDbCircle
 10
11.9077581394
 20
0.6215361446
 30
0.0
 40
0.0625
100
AcDbArc
 50
163.9260137629
 51
270.0
  0
LINE
  5
126
330
1F
100
AcDbEntity
  8
0
  6
Continuous
 62
     7
370
    25
100
AcDbLine
 10
12.0713598613
 20
1.4150458642
 30
0.0
 11
11.8477015792
 21
0.638841045
 31
0.0
  0
ARC
  5
127
330
1F
100
AcDbEntity
  8
0
  6
Continuous
 62
     7
370
    25
100
AcDbCircle
 10
12.1314164214
 20
1.3977409639
 30
0.0
 40
0.0625
100
AcDbArc
 50
90.0
 51
163.9260137629
  0
LINE
  5
128
330
1F
100
AcDbEntity
  8
0
  6
Continuous
 62
     7
370
    25
100
AcDbLine
 10
12.4849827281
 20
1.4602409639
 30
0.0
 11
12.1314164214
 21
1.4602409639
 31
0.0
  0
ARC
  5
129
330
1F
100
AcDbEntity
  8
0
  6
Continuous
 62
     7
370
    25
100
AcDbCircle
 10
12.4849827281
 20
1.4914909639
 30
0.0
 40
0.0312500000000002
100
AcDbArc
 50
270.0
 51
343.8774012223
  0
LINE
  5
12A
330
1F
100
AcDbEntity
  8
0
  6
Continuous
 62
     7
370
    25
100
AcDbLine
 10
12.5429086355
 20
1.5793491839
 30
0.0
 11
12.5150036562
 21
1.4828130393
 31
0.0
  0
ARC
  5
12B
330
1F
100
AcDbEntity
  8
0
  6
Continuous
 62
     7
370
    25
100
AcDbCircle
 10
12.5128877074
 20
1.5880271084
 30
0.0
 40
0.0312500000000009
100
AcDbArc
 50
343.8774012223
 51
90.0
  0
LINE
  5
12C
330
1F
100
AcDbEntity
  8
0
  6
Continuous
 62
     7
370
    25
100
AcDbLine
 10
12.2134187442
 20
1.6192771084
 30
0.0
 11
12.5128877074
 21
1.6192771084
 31
0.0
  0
ARC
  5
12D
330
1F
100
AcDbEntity
  8
0
  6
Continuous
 62
     7
370
    25
100
AcDbCircle
 10
12.2134187442
 20
1.6817771084
 30
0.0
 40
0.0624999999999998
100
AcDbArc
 50
163.9173872205
 51
270.0
  0
LINE
  5
12E
330
1F
100
AcDbEntity
  8
0
  6
Continuous
 62
     7
370
    25
100
AcDbLine
 10
12.3542240741
 20
2.3957777978
 30
0.0
 11
12.1533647902
 21
1.6990910508
 31
0.0
  0
ARC
  5
12F
330
1F
100
AcDbEntity
  8
0
  6
Continuous
 62
     7
370
    25
100
AcDbCircle
 10
12.4142780282
 20
2.3784638554
 30
0.0
 40
0.0624999999999996
100
AcDbArc
 50
90.0
 51
163.9173872205
  0
LINE
  5
130
330
1F
100
AcDbEntity
  8
0
  6
Continuous
 62
     7
370
    25
100
AcDbLine
 10
12.8208637522
 20
2.4409638554
 30
0.0
 11
12.4142780282
 21
2.4409638554
 31
0.0
  0
ARC
  5
131
330
1F
100
AcDbEntity
  8
0
  6
Continuous
 62
     7
370
    25
100
AcDbCircle
 10
12.8208637522
 20
2.4722138554
 30
0.0
 40
0.0312500000000009
100
AcDbArc
 50
270.0
 51
343.8774012223
  0
LINE
  5
132
330
1F
100
AcDbEntity
  8
0
  6
Continuous
 62
     7
370
    25
100
AcDbLine
 10
12.8787896596
 20
2.5600720755
 30
0.0
 11
12.8508846803
 21
2.4635359309
 31
0.0
  0
ARC
  5
133
330
1F
100
AcDbEntity
  8
0
  6
Continuous
 62
     7
370
    25
100
AcDbCircle
 10
12.8487687315
 20
2.56875
 30
0.0
 40
0.03125
100
AcDbArc
 50
343.8774012223
 51
90.0
  0
LINE
  5
134
330
1F
100
AcDbEntity
  8
0
  6
Continuous
 62
     7
370
    25
100
AcDbLine
 10
12.7203789778
 20
2.6
 30
0.0
 11
12.8487687315
 21
2.6
 31
0.0
  0
ARC
  5
135
330
1F
100
AcDbEntity
  8
0
  6
Continuous
 62
     7
370
    25
100
AcDbCircle
 10
12.7203789778
 20
2.6625
 30
0.0
 40
0.0625000000000011
100
AcDbArc
 50
163.9122475556
 51
270.0
  0
LINE
  5
136
330
1F
100
AcDbEntity
  8
0
  6
Continuous
 62
     7
370
    25
100
AcDbLine
 10
12.6603265771
 20
2.6798193294
 30
0.0
 11
12.6848408844
 21
2.7648193294
 31
0.0
  0
ARC
  5
137
330
1F
100
AcDbEntity
  8
0
  6
Continuous
 62
     7
370
    25
100
AcDbCircle
 10
12.7448932851
 20
2.7475
 30
0.0
 40
0.0625000000000045
100
AcDbArc
 50
90.0
 51
163.9122475556
  0
LINE
  5
138
330
1F
100
AcDbEntity
  8
0
  6
Continuous
 62
     7
370
    25
100
AcDbLine
 10
13.3011671687
 20
2.81
 30
0.0
 11
12.7448932851
 21
2.81
 31
0.0
  0
ARC
  5
139
330
1F
100
AcDbEntity
  8
0
  6
Continuous
 62
     7
370
    25
100
AcDbCircle
 10
13.3011671687
 20
2.7475
 30
0.0
 40
0.0625000000000018
100
AcDbArc
 50
0.0
 51
90.0
  0
LINE
  5
13A
330
1F
100
AcDbEntity
  8
0
  6
Continuous
 62
     7
370
    25
100
AcDbLine
 10
13.3636671687
 20
2.6625
 30
0.0
 11
13.3636671687
 21
2.7475
 31
0.0
  0
ARC
  5
13B
330
1F
100
AcDbEntity
  8
0
  6
Continuous
 62
     7
370
    25
100
AcDbCircle
 10
13.3011671687
 20
2.6625
 30
0.0
 40
0.0625000000000018
100
AcDbArc
 50
270.0
 51
0.0
  0
LINE
  5
13C
330
1F
100
AcDbEntity
  8
0
  6
Continuous
 62
     7
370
    25
100
AcDbLine
 10
13.1245652829
 20
2.6
 30
0.0
 11
13.3011671687
 21
2.6
 31
0.0
  0
ARC
  5
13D
330
1F
100
AcDbEntity
  8
0
  6
Continuous
 62
     7
370
    25
100
AcDbCircle
 10
13.1245652829
 20
2.56875
 30
0.0
 40
0.0312500000000001
100
AcDbArc
 50
90.0
 51
163.9122475556
  0
LINE
  5
13E
330
1F
100
AcDbEntity
  8
0
  6
Continuous
 62
     7
370
    25
100
AcDbLine
 10
12.4190317747
 20
0.2351806706
 30
0.0
 11
13.0945390825
 21
2.5774096647
 31
0.0
  0
ARC
  5
13F
330
1F
100
AcDbEntity
  8
0
  6
Continuous
 62
     7
370
    25
100
AcDbCircle
 10
12.358979374
 20
0.2525
 30
0.0
 40
0.0625000000000006
100
AcDbArc
 50
270.0
 51
343.9122475556
  0
LINE
  5
140
330
1F
100
AcDbEntity
  8
0
  6
Continuous
 62
     7
370
    25
100
AcDbLine
 10
12.025326267
 20
0.19
 30
0.0
 11
12.358979374
 21
0.19
 31
0.0
  0
ARC
  5
141
330
1F
100
AcDbEntity
  8
0
  6
Continuous
 62
     7
370
    25
100
AcDbCircle
 10
12.025326267
 20
0.2525
 30
0.0
 40
0.0625000000000027
100
AcDbArc
 50
163.9122475556
 51
270.0
  0
LINE
  5
142
330
1F
100
AcDbEntity
  8
0
  6
Continuous
 62
     7
370
    25
100
AcDbLine
 10
11.9652738663
 20
0.2698193294
 30
0.0
 11
11.9897881735
 21
0.3548193294
 31
0.0
  0
ARC
  5
143
330
1F
100
AcDbEntity
  8
0
  6
Continuous
 62
     7
370
    25
100
AcDbCircle
 10
12.0498405742
 20
0.3375
 30
0.0
 40
0.0625000000000008
100
AcDbArc
 50
90.0
 51
163.9122475556
  0
LINE
  5
144
330
1F
100
AcDbEntity
  8
0
  6
Continuous
 62
     7
370
    25
100
AcDbLine
 10
11.6312088867
 20
0.4399096647
 30
0.0
 11
11.9649484367
 21
1.5971058065
 31
0.0
  0
ARC
  5
145
330
1F
100
AcDbEntity
  8
0
  6
Continuous
 62
     7
370
    25
100
AcDbCircle
 10
11.6612350871
 20
0.43125
 30
0.0
 40
0.0312500000000006
100
AcDbArc
 50
163.9122475556
 51
270.0
  0
LINE
  5
146
330
1F
100
AcDbEntity
  8
0
  6
Continuous
 62
     7
370
    25
100
AcDbLine
 10
11.7896511426
 20
0.4
 30
0.0
 11
11.6612350871
 21
0.4
 31
0.0
  0
ARC
  5
147
330
1F
100
AcDbEntity
  8
0
  6
Continuous
 62
     7
370
    25
100
AcDbCircle
 10
11.7896511426
 20
0.3375
 30
0.0
 40
0.0625000000000008
100
AcDbArc
 50
343.9122475556
 51
90.0
  0
LINE
  5
148
330
1F
100
AcDbEntity
  8
0
  6
Continuous
 62
     7
370
    25
100
AcDbLine
 10
11.8251892361
 20
0.2351806706
 30
0.0
 11
11.8497035433
 21
0.3201806706
 31
0.0
  0
ARC
  5
149
330
1F
100
AcDbEntity
  8
0
  6
Continuous
 62
     7
370
    25
100
AcDbCircle
 10
11.7651368354
 20
0.2525
 30
0.0
 40
0.0625000000000026
100
AcDbArc
 50
270.0
 51
343.9122475556
  0
LINE
  5
14A
330
1F
100
AcDbEntity
  8
0
  6
Continuous
 62
     7
370
    25
100
AcDbLine
 10
11.0725394873
 20
0.19
 30
0.0
 11
11.7651368354
 21
0.19
 31
0.0
  0
ARC
  5
14B
330
1F
100
AcDbEntity
  8
0
  6
Continuous
 62
     7
370
    25
100
AcDbCircle
 10
11.0725394873
 20
0.2525
 30
0.0
 40
0.0625000000000009
100
AcDbArc
 50
163.9122475556
 51
270.0
  0
LINE
  5
14C
330
1F
100
AcDbEntity
  8
0
  6
Continuous
 62
     7
370
    25
100
AcDbLine
 10
11.0124870867
 20
0.2698193294
 30
0.0
 11
11.0370013939
 21
0.3548193294
 31
0.0
  0
ARC
  5
14D
330
1F
100
AcDbEntity
  8
0
  6
Continuous
 62
     7
370
    25
100
AcDbCircle
 10
11.0970537946
 20
0.3375
 30
0.0
 40
0.0625000000000009
100
AcDbArc
 50
90.0
 51
163.9122475556
  0
LINE
  5
14E
330
1F
100
AcDbEntity
  8
0
  6
Continuous
 62
     7
370
    25
100
AcDbLine
 10
11.2176355422
 20
0.4
 30
0.0
 11
11.0970537946
 21
0.4
 31
0.0
  0
SPLINE
  5
14F
330
1F
100
AcDbEntity
  8
0
  6
Continuous
 62
     7
370
    25
100
AcDbSpline
210
0.0
220
0.0
230
1.0
 70
     8
 71
     3
 72
    15
 73
    11
 74
     0
 42
0.00000001
 43
0.00000001
 40
0.0
 40
0.0
 40
0.0
 40
0.0
 40
0.1386700644971692
 40
0.2701010615680137
 40
0.3996019276506438
 40
0.5295975093928476
 40
0.6552965180632108
 40
0.7719496679237535
 40
0.8863374924354817
 40
1.0
 40
1.0
 40
1.0
 40
1.0
 10
11.40276355421687
 20
0.5623493975903615
 30
0.0
 10
11.39896340226341
 20
0.5507505050361103
 30
0.0
 10
11.39156147971819
 20
0.52815822310939
 30
0.0
 10
11.37486169234266
 20
0.4971008360083573
 30
0.0
 10
11.3550151160696
 20
0.4689378535740599
 30
0.0
 10
11.33109063310262
 20
0.4447927110388735
 30
0.0
 10
11.30493514914249
 20
0.4249441613984201
 30
0.0
 10
11.27703282649861
 20
0.4103138262261875
 30
0.0
 10
11.24767321912801
 20
0.4018031722276615
 30
0.0
 10
11.2276268485773
 20
0.400599781609559
 30
0.0
 10
11.21763554216867
 20
0.4
 30
0.0
  0
LINE
  5
150
330
1F
100
AcDbEntity
  8
0
  6
Continuous
 62
     7
370
    25
100
AcDbLine
 10
11.6454593373
 20
1.4039156627
 30
0.0
 11
11.4027635542
 21
0.5623493976
 31
0.0
  0
SPLINE
  5
151
330
1F
100
AcDbEntity
  8
0
  6
Continuous
 62
     7
370
    25
100
AcDbSpline
210
0.0
220
0.0
230
1.0
 70
     8
 71
     3
 72
    11
 73
     7
 74
     0
 42
0.00000001
 43
0.00000001
 40
0.0
 40
0.0
 40
0.0
 40
0.0
 40
0.2564422761601732
 40
0.485582260735243
 40
0.7211445065541033
 40
1.0
 40
1.0
 40
1.0
 40
1.0
 10
11.61232680722891
 20
1.496272590361446
 30
0.0
 10
11.6200417279999
 20
1.491153208358655
 30
0.0
 10
11.63465019554847
 20
1.481459482644997
 30
0.0
 10
11.64777980164699
 20
1.458424860425423
 30
0.0
 10
11.65226721943558
 20
1.431648287661059
 30
0.0
 10
11.64785247913231
 20
1.413664377863664
 30
0.0
 10
11.6454593373494
 20
1.403915662650603
 30
0.0
  0
LINE
  5
152
330
1F
100
AcDbEntity
  8
0
  6
Continuous
 62
     7
370
    25
100
AcDbLine
 10
11.6001354752
 20
1.5037106232
 30
0.0
 11
11.6123268072
 21
1.4962725904
 31
0.0
  0
ARC
  5
153
330
1F
100
AcDbEntity
  8
0
  6
Continuous
 62
     7
370
    25
100
AcDbCircle
 10
11.6326871366
 20
1.5570645298
 30
0.0
 40
0.0625000000000011
100
AcDbArc
 50
113.5948205699
 51
238.6122866637
  0
LINE
  5
154
330
1F
100
AcDbEntity
  8
0
  6
Continuous
 62
     7
370
    25
100
AcDbLine
 10
11.6417319277
 20
1.6292168675
 30
0.0
 11
11.6076704995
 21
1.6143394621
 31
0.0
  0
SPLINE
  5
155
330
1F
100
AcDbEntity
  8
0
  6
Continuous
 62
     7
370
    25
100
AcDbSpline
210
0.0
220
0.0
230
1.0
 70
     8
 71
     3
 72
    10
 73
     6
 74
     0
 42
0.00000001
 43
0.00000001
 40
0.3038703165649493
 40
0.3038703165649493
 40
0.3038703165649493
 40
0.3038703165649493
 40
0.4527195399460694
 40
0.711083368956152
 40
1.0
 40
1.0
 40
1.0
 40
1.0
 10
11.71636882063478
 20
1.690416020289682
 30
0.0
 10
11.71234255783164
 20
1.68477133706163
 30
0.0
 10
11.69990509128912
 20
1.670206043524962
 30
0.0
 10
11.67579171402958
 20
1.648335798592228
 30
0.0
 10
11.65350001303671
 20
1.635822699070868
 30
0.0
 10
11.64173192771084
 20
1.62921686746988
 30
0.0
  0
ARC
  5
156
330
1F
100
AcDbEntity
  8
0
  6
Continuous
 62
     7
370
    25
100
AcDbCircle
 10
11.7672512562
 20
1.654122388
 30
0.0
 40
0.0625000000000152
100
AcDbArc
 50
73.9122475556
 51
144.5003405076
  0
LINE
  5
157
330
1F
100
AcDbEntity
  8
0
  6
Continuous
 62
     7
370
    25
100
AcDbLine
 10
11.7845705856
 20
1.7141747886
 30
0.0
 11
11.9222153654
 21
1.6744775366
 31
0.0
  0
ARC
  5
158
330
1F
100
AcDbEntity
  8
0
  6
Continuous
 62
     7
370
    25
100
AcDbCircle
 10
11.904896036
 20
1.614425136
 30
0.0
 40
0.0625000000000012
100
AcDbArc
 50
343.9122475556
 51
73.9122475556
  0
LINE
  5
159
330
1F
100
AcDbEntity
  8
0
  6
Continuous
 62
     7
370
    25
100
AcDbLine
 10
12.277697813
 20
2.6
 30
0.0
 11
12.4601895463
 21
2.6
 31
0.0
  0
ARC
  5
15A
330
1F
100
AcDbEntity
  8
0
  6
Continuous
 62
     7
370
    25
100
AcDbCircle
 10
12.277697813
 20
2.56875
 30
0.0
 40
0.0312500000000001
100
AcDbArc
 50
90.0
 51
163.9122475556
  0
LINE
  5
15B
330
1F
100
AcDbEntity
  8
0
  6
Continuous
 62
     7
370
    25
100
AcDbLine
 10
12.0342257543
 20
1.8373154093
 30
0.0
 11
12.2476716126
 21
2.5774096647
 31
0.0
  0
ARC
  5
15C
330
1F
100
AcDbEntity
  8
0
  6
Continuous
 62
     7
370
    25
100
AcDbCircle
 10
11.9741733536
 20
1.8546347387
 30
0.0
 40
0.0625000000000009
100
AcDbArc
 50
253.9122475556
 51
343.9122475556
  0
LINE
  5
15D
330
1F
100
AcDbEntity
  8
0
  6
Continuous
 62
     7
370
    25
100
AcDbLine
 10
11.9568540242
 20
1.794582338
 30
0.0
 11
11.8292186516
 21
1.8313928408
 31
0.0
  0
ARC
  5
15E
330
1F
100
AcDbEntity
  8
0
  6
Continuous
 62
     7
370
    25
100
AcDbCircle
 10
11.846537981
 20
1.8914452415
 30
0.0
 40
0.0624999999999997
100
AcDbArc
 50
163.9044304911
 51
253.9122475556
  0
LINE
  5
15F
330
1F
100
AcDbEntity
  8
0
  6
Continuous
 62
     7
370
    25
100
AcDbLine
 10
11.9390963855
 20
2.4376506024
 30
0.0
 11
11.7864879438
 21
1.9087727639
 31
0.0
  0
SPLINE
  5
160
330
1F
100
AcDbEntity
  8
0
  6
Continuous
 62
     7
370
    25
100
AcDbSpline
210
0.0
220
0.0
230
1.0
 70
     8
 71
     3
 72
    15
 73
    11
 74
     0
 42
0.00000001
 43
0.00000001
 40
0.0
 40
0.0
 40
0.0
 40
0.0
 40
0.1287065558958463
 40
0.2425617736424232
 40
0.3513115258967563
 40
0.4626587465948211
 40
0.5791454196705423
 40
0.7048604370311383
 40
0.8423891551796363
 40
1.0
 40
1.0
 40
1.0
 40
1.0
 10
11.84715361445783
 20
2.6
 30
0.0
 10
11.85673830541872
 20
2.599477453116635
 30
0.0
 10
11.87480171814162
 20
2.598492655582754
 30
0.0
 10
11.90005177134813
 20
2.590217130713139
 30
0.0
 10
11.92022785079616
 20
2.57501525521672
 30
0.0
 10
11.93521313017614
 20
2.554612214633357
 30
0.0
 10
11.94538060911118
 20
2.530055827220333
 30
0.0
 10
11.94919125088397
 20
2.501816253009189
 30
0.0
 10
11.94735188810071
 20
2.470366860954706
 30
0.0
 10
11.94197027965752
 20
2.449039741016556
 30
0.0
 10
11.93909638554217
 20
2.437650602409639
 30
0.0
  0
LINE
  5
161
330
1F
100
AcDbEntity
  8
0
  6
Continuous
 62
     7
370
    25
100
AcDbLine
 10
11.7651047635
 20
2.6
 30
0.0
 11
11.8471536145
 21
2.6
 31
0.0
  0
ARC
  5
162
330
1F
100
AcDbEntity
  8
0
  6
Continuous
 62
     7
370
    25
100
AcDbCircle
 10
11.7651047635
 20
2.6625
 30
0.0
 40
0.0625000000000006
100
AcDbArc
 50
163.9122475556
 51
270.0
  0
LINE
  5
163
330
1F
100
AcDbEntity
  8
0
  6
Continuous
 62
     7
370
    25
100
AcDbLine
 10
11.72956667
 20
2.7648193294
 30
0.0
 11
11.7050523628
 21
2.6798193294
 31
0.0
  0
ARC
  5
164
330
1F
100
AcDbEntity
  8
0
  6
Continuous
 62
     7
370
    25
100
AcDbCircle
 10
11.7896190707
 20
2.7475
 30
0.0
 40
0.0625000000000006
100
AcDbArc
 50
90.0
 51
163.9122475556
  0
LINE
  5
165
330
1F
100
AcDbEntity
  8
0
  6
Continuous
 62
     7
370
    25
100
AcDbLine
 10
12.4847038535
 20
2.81
 30
0.0
 11
11.7896190707
 21
2.81
 31
0.0
  0
ARC
  5
166
330
1F
100
AcDbEntity
  8
0
  6
Continuous
 62
     7
370
    25
100
AcDbCircle
 10
12.4847038535
 20
2.7475
 30
0.0
 40
0.0625000000000041
100
AcDbArc
 50
343.9122475556
 51
90.0
  0
LINE
  5
167
330
1F
100
AcDbEntity
  8
0
  6
Continuous
 62
     7
370
    25
100
AcDbLine
 10
12.520241947
 20
2.6451806706
 30
0.0
 11
12.5447562542
 21
2.7301806706
 31
0.0
  0
ARC
  5
168
330
1F
100
AcDbEntity
  8
0
  6
Continuous
 62
     7
370
    25
100
AcDbCircle
 10
12.4601895463
 20
2.6625
 30
0.0
 40
0.062500000000001
100
AcDbArc
 50
270.0
 51
343.9122475556
  0
LINE
  5
169
330
1F
100
AcDbEntity
  8
0
  6
Continuous
 62
     7
370
    25
100
AcDbLine
 10
11.2717941985
 20
2.6
 30
0.0
 11
11.5049153319
 21
2.6
 31
0.0
  0
ARC
  5
16A
330
1F
100
AcDbEntity
  8
0
  6
Continuous
 62
     7
370
    25
100
AcDbCircle
 10
11.2717941985
 20
2.56875
 30
0.0
 40
0.0312500000000001
100
AcDbArc
 50
90.0
 51
163.9122475556
  0
LINE
  5
16B
330
1F
100
AcDbEntity
  8
0
  6
Continuous
 62
     7
370
    25
100
AcDbLine
 10
10.9784693745
 20
1.664457779
 30
0.0
 11
11.2417679982
 21
2.5774096647
 31
0.0
  0
ARC
  5
16C
330
1F
100
AcDbEntity
  8
0
  6
Continuous
 62
     7
370
    25
100
AcDbCircle
 10
10.9184169738
 20
1.6817771084
 30
0.0
 40
0.0625000000000009
100
AcDbArc
 50
270.0
 51
343.9122475556
  0
LINE
  5
16D
330
1F
100
AcDbEntity
  8
0
  6
Continuous
 62
     7
370
    25
100
AcDbLine
 10
10.9184169738
 20
1.6192771084
 30
0.0
 11
10.7846409541
 21
1.6192771084
 31
0.0
  0
ARC
  5
16E
330
1F
100
AcDbEntity
  8
0
  6
Continuous
 62
     7
370
    25
100
AcDbCircle
 10
10.7846409541
 20
1.6817771084
 30
0.0
 40
0.0625000000000009
100
AcDbArc
 50
163.900914072
 51
270.0
  0
LINE
  5
16F
330
1F
100
AcDbEntity
  8
0
  6
Continuous
 62
     7
370
    25
100
AcDbLine
 10
10.937748494
 20
2.4376506024
 30
0.0
 11
10.7245919805
 21
1.6991083163
 31
0.0
  0
SPLINE
  5
170
330
1F
100
AcDbEntity
  8
0
  6
Continuous
 62
     7
370
    25
100
AcDbSpline
210
0.0
220
0.0
230
1.0
 70
     8
 71
     3
 72
    15
 73
    11
 74
     0
 42
0.00000001
 43
0.00000001
 40
0.0
 40
0.0
 40
0.0
 40
0.0
 40
0.127095023183122
 40
0.241160826019205
 40
0.3501117203622847
 40
0.4616648873920245
 40
0.5783670126618693
 40
0.7043145508388782
 40
0.8420976402669207
 40
1.0
 40
1.0
 40
1.0
 40
1.0
 10
10.84621987951807
 20
2.6
 30
0.0
 10
10.85566490691425
 20
2.599464442534552
 30
0.0
 10
10.87358669922043
 20
2.59844823058924
 30
0.0
 10
10.89870383575748
 20
2.590217357889725
 30
0.0
 10
10.91887997108536
 20
2.575015194039665
 30
0.0
 10
10.93386523524564
 20
2.554612231993626
 30
0.0
 10
10.94403271854122
 20
2.530055822079149
 30
0.0
 10
10.94784335901599
 20
2.501816254566132
 30
0.0
 10
10.94600399662609
 20
2.470366860481823
 30
0.0
 10
10.94062238812316
 20
2.449039740851936
 30
0.0
 10
10.9377484939759
 20
2.437650602409639
 30
0.0
  0
LINE
  5
171
330
1F
100
AcDbEntity
  8
0
  6
Continuous
 62
     7
370
    25
100
AcDbLine
 10
10.6924924699
 20
2.6
 30
0.0
 11
10.8462198795
 21
2.6
 31
0.0
  0
ARC
  5
172
330
1F
100
AcDbEntity
  8
0
  6
Continuous
 62
     7
370
    25
100
AcDbCircle
 10
10.6924924699
 20
2.6625
 30
0.0
 40
0.0625000000000004
100
AcDbArc
 50
180.0
 51
270.0
  0
LINE
  5
173
330
1F
100
AcDbEntity
  8
0
  6
Continuous
 62
     7
370
    25
100
AcDbLine
 10
10.6299924699
 20
2.6625
 30
0.0
 11
10.6299924699
 21
2.7475
 31
0.0
  0
ARC
  5
174
330
1F
100
AcDbEntity
  8
0
  6
Continuous
 62
     7
370
    25
100
AcDbCircle
 10
10.6924924699
 20
2.7475
 30
0.0
 40
0.0625000000000004
100
AcDbArc
 50
90.0
 51
180.0
  0
LINE
  5
175
330
1F
100
AcDbEntity
  8
0
  6
Continuous
 62
     7
370
    25
100
AcDbLine
 10
11.5294296392
 20
2.81
 30
0.0
 11
10.6924924699
 21
2.81
 31
0.0
  0
ARC
  5
176
330
1F
100
AcDbEntity
  8
0
  6
Continuous
 62
     7
370
    25
100
AcDbCircle
 10
11.5294296392
 20
2.7475
 30
0.0
 40
0.0625000000000007
100
AcDbArc
 50
343.9122475556
 51
90.0
  0
LINE
  5
177
330
1F
100
AcDbEntity
  8
0
  6
Continuous
 62
     7
370
    25
100
AcDbLine
 10
11.5894820399
 20
2.7301806706
 30
0.0
 11
11.5649677326
 21
2.6451806706
 31
0.0
  0
ARC
  5
178
330
1F
100
AcDbEntity
  8
0
  6
Continuous
 62
     7
370
    25
100
AcDbCircle
 10
11.5049153319
 20
2.6625
 30
0.0
 40
0.062500000000001
100
AcDbArc
 50
270.0
 51
343.9122475556
  0
LINE
  5
179
330
1F
100
AcDbEntity
  8
0
  6
Continuous
 62
     7
370
    25
100
AcDbLine
 10
10.2658905841
 20
2.6
 30
0.0
 11
10.4424924699
 21
2.6
 31
0.0
  0
ARC
  5
17A
330
1F
100
AcDbEntity
  8
0
  6
Continuous
 62
     7
370
    25
100
AcDbCircle
 10
10.2658905841
 20
2.56875
 30
0.0
 40
0.0312500000000008
100
AcDbArc
 50
90.0
 51
163.9122475556
  0
LINE
  5
17B
330
1F
100
AcDbEntity
  8
0
  6
Continuous
 62
     7
370
    25
100
AcDbLine
 10
10.2358643837
 20
2.5774096647
 30
0.0
 11
9.5603570759
 21
0.2351806706
 31
0.0
  0
ARC
  5
17C
330
1F
100
AcDbEntity
  8
0
  6
Continuous
 62
     7
370
    25
100
AcDbCircle
 10
9.5003046752
 20
0.2525
 30
0.0
 40
0.0625
100
AcDbArc
 50
270.0
 51
343.9122475556
  0
LINE
  5
17D
330
1F
100
AcDbEntity
  8
0
  6
Continuous
 62
     7
370
    25
100
AcDbLine
 10
9.1666515682
 20
0.19
 30
0.0
 11
9.5003046752
 21
0.19
 31
0.0
  0
ARC
  5
17E
330
1F
100
AcDbEntity
  8
0
  6
Continuous
 62
     7
370
    25
100
AcDbCircle
 10
9.1666515682
 20
0.2525
 30
0.0
 40
0.0625000000000011
100
AcDbArc
 50
163.9122475556
 51
270.0
  0
LINE
  5
17F
330
1F
100
AcDbEntity
  8
0
  6
Continuous
 62
     7
370
    25
100
AcDbLine
 10
9.1311134747
 20
0.3548193294
 30
0.0
 11
9.1065991675
 21
0.2698193294
 31
0.0
  0
ARC
  5
180
330
1F
100
AcDbEntity
  8
0
  6
Continuous
 62
     7
370
    25
100
AcDbCircle
 10
9.1911658754
 20
0.3375
 30
0.0
 40
0.0625000000000012
100
AcDbArc
 50
90.0
 51
163.9122475556
  0
LINE
  5
181
330
1F
100
AcDbEntity
  8
0
  6
Continuous
 62
     7
370
    25
100
AcDbLine
 10
9.3736724871
 20
0.4
 30
0.0
 11
9.1911658754
 21
0.4
 31
0.0
  0
ARC
  5
182
330
1F
100
AcDbEntity
  8
0
  6
Continuous
 62
     7
370
    25
100
AcDbCircle
 10
9.3736724871
 20
0.43125
 30
0.0
 40
0.031250000000001
100
AcDbArc
 50
270.0
 51
343.8774012223
  0
LINE
  5
183
330
1F
100
AcDbEntity
  8
0
  6
Continuous
 62
     7
370
    25
100
AcDbLine
 10
9.4315983946
 20
0.51910822
 30
0.0
 11
9.4036934153
 21
0.4225720755
 31
0.0
  0
ARC
  5
184
330
1F
100
AcDbEntity
  8
0
  6
Continuous
 62
     7
370
    25
100
AcDbCircle
 10
9.4015774664
 20
0.5277861446
 30
0.0
 40
0.0312500000000009
100
AcDbArc
 50
343.8774012223
 51
90.0
  0
LINE
  5
185
330
1F
100
AcDbEntity
  8
0
  6
Continuous
 62
     7
370
    25
100
AcDbLine
 10
9.0490834406
 20
0.5590361446
 30
0.0
 11
9.4015774664
 21
0.5590361446
 31
0.0
  0
ARC
  5
186
330
1F
100
AcDbEntity
  8
0
  6
Continuous
 62
     7
370
    25
100
AcDbCircle
 10
9.0490834406
 20
0.6215361446
 30
0.0
 40
0.0625
100
AcDbArc
 50
163.9260137629
 51
270.0
  0
LINE
  5
187
330
1F
100
AcDbEntity
  8
0
  6
Continuous
 62
     7
370
    25
100
AcDbLine
 10
9.2191964969
 20
1.437643414
 30
0.0
 11
8.9890268804
 21
0.638841045
 31
0.0
  0
ARC
  5
188
330
1F
100
AcDbEntity
  8
0
  6
Continuous
 62
     7
370
    25
100
AcDbCircle
 10
9.249224777
 20
1.4289909639
 30
0.0
 40
0.03125
100
AcDbArc
 50
90.0
 51
163.9260137629
  0
LINE
  5
189
330
1F
100
AcDbEntity
  8
0
  6
Continuous
 62
     7
370
    25
100
AcDbLine
 10
9.6263080293
 20
1.4602409639
 30
0.0
 11
9.249224777
 21
1.4602409639
 31
0.0
  0
ARC
  5
18A
330
1F
100
AcDbEntity
  8
0
  6
Continuous
 62
     7
370
    25
100
AcDbCircle
 10
9.6263080293
 20
1.4914909639
 30
0.0
 40
0.0312500000000002
100
AcDbArc
 50
270.0
 51
343.8774012223
  0
LINE
  5
18B
330
1F
100
AcDbEntity
  8
0
  6
Continuous
 62
     7
370
    25
100
AcDbLine
 10
9.6842339367
 20
1.5793491839
 30
0.0
 11
9.6563289574
 21
1.4828130393
 31
0.0
  0
ARC
  5
18C
330
1F
100
AcDbEntity
  8
0
  6
Continuous
 62
     7
370
    25
100
AcDbCircle
 10
9.6542130086
 20
1.5880271084
 30
0.0
 40
0.0312500000000002
100
AcDbArc
 50
343.8774012223
 51
90.0
  0
LINE
  5
18D
330
1F
100
AcDbEntity
  8
0
  6
Continuous
 62
     7
370
    25
100
AcDbLine
 10
9.3547440455
 20
1.6192771084
 30
0.0
 11
9.6542130086
 21
1.6192771084
 31
0.0
  0
ARC
  5
18E
330
1F
100
AcDbEntity
  8
0
  6
Continuous
 62
     7
370
    25
100
AcDbCircle
 10
9.3547440455
 20
1.6817771084
 30
0.0
 40
0.0625000000000007
100
AcDbArc
 50
163.9173872205
 51
270.0
  0
LINE
  5
18F
330
1F
100
AcDbEntity
  8
0
  6
Continuous
 62
     7
370
    25
100
AcDbLine
 10
9.4955493753
 20
2.3957777978
 30
0.0
 11
9.2946900914
 21
1.6990910508
 31
0.0
  0
ARC
  5
190
330
1F
100
AcDbEntity
  8
0
  6
Continuous
 62
     7
370
    25
100
AcDbCircle
 10
9.5556033294
 20
2.3784638554
 30
0.0
 40
0.0624999999999996
100
AcDbArc
 50
90.0
 51
163.9173872205
  0
LINE
  5
191
330
1F
100
AcDbEntity
  8
0
  6
Continuous
 62
     7
370
    25
100
AcDbLine
 10
9.9621890534
 20
2.4409638554
 30
0.0
 11
9.5556033294
 21
2.4409638554
 31
0.0
  0
ARC
  5
192
330
1F
100
AcDbEntity
  8
0
  6
Continuous
 62
     7
370
    25
100
AcDbCircle
 10
9.9621890534
 20
2.4722138554
 30
0.0
 40
0.0312500000000011
100
AcDbArc
 50
270.0
 51
343.8774012223
  0
LINE
  5
193
330
1F
100
AcDbEntity
  8
0
  6
Continuous
 62
     7
370
    25
100
AcDbLine
 10
10.0201149608
 20
2.5600720755
 30
0.0
 11
9.9922099815
 21
2.4635359309
 31
0.0
  0
ARC
  5
194
330
1F
100
AcDbEntity
  8
0
  6
Continuous
 62
     7
370
    25
100
AcDbCircle
 10
9.9900940327
 20
2.56875
 30
0.0
 40
0.03125
100
AcDbArc
 50
343.8774012223
 51
90.0
  0
LINE
  5
195
330
1F
100
AcDbEntity
  8
0
  6
Continuous
 62
     7
370
    25
100
AcDbLine
 10
9.861704279
 20
2.6
 30
0.0
 11
9.9900940327
 21
2.6
 31
0.0
  0
ARC
  5
196
330
1F
100
AcDbEntity
  8
0
  6
Continuous
 62
     7
370
    25
100
AcDbCircle
 10
9.861704279
 20
2.6625
 30
0.0
 40
0.0625000000000008
100
AcDbArc
 50
163.9122475556
 51
270.0
  0
LINE
  5
197
330
1F
100
AcDbEntity
  8
0
  6
Continuous
 62
     7
370
    25
100
AcDbLine
 10
9.8016518783
 20
2.6798193294
 30
0.0
 11
9.8261661856
 21
2.7648193294
 31
0.0
  0
ARC
  5
198
330
1F
100
AcDbEntity
  8
0
  6
Continuous
 62
     7
370
    25
100
AcDbCircle
 10
9.8862185863
 20
2.7475
 30
0.0
 40
0.0625000000000004
100
AcDbArc
 50
90.0
 51
163.9122475556
  0
LINE
  5
199
330
1F
100
AcDbEntity
  8
0
  6
Continuous
 62
     7
370
    25
100
AcDbLine
 10
10.4424924699
 20
2.81
 30
0.0
 11
9.8862185863
 21
2.81
 31
0.0
  0
ARC
  5
19A
330
1F
100
AcDbEntity
  8
0
  6
Continuous
 62
     7
370
    25
100
AcDbCircle
 10
10.4424924699
 20
2.7475
 30
0.0
 40
0.0625000000000018
100
AcDbArc
 50
0.0
 51
90.0
  0
LINE
  5
19B
330
1F
100
AcDbEntity
  8
0
  6
Continuous
 62
     7
370
    25
100
AcDbLine
 10
10.5049924699
 20
2.6625
 30
0.0
 11
10.5049924699
 21
2.7475
 31
0.0
  0
ARC
  5
19C
330
1F
100
AcDbEntity
  8
0
  6
Continuous
 62
     7
370
    25
100
AcDbCircle
 10
10.4424924699
 20
2.6625
 30
0.0
 40
0.0625000000000018
100
AcDbArc
 50
270.0
 51
0.0
  0
LINE
  5
19D
330
1F
100
AcDbEntity
  8
0
  6
Continuous
 62
     7
370
    25
100
AcDbLine
 10
10.6253052723
 20
0.4399096647
 30
0.0
 11
10.9063684709
 21
1.414457779
 31
0.0
  0
ARC
  5
19E
330
1F
100
AcDbEntity
  8
0
  6
Continuous
 62
     7
370
    25
100
AcDbCircle
 10
10.6553314726
 20
0.43125
 30
0.0
 40
0.0312500000000006
100
AcDbArc
 50
163.9122475556
 51
270.0
  0
LINE
  5
19F
330
1F
100
AcDbEntity
  8
0
  6
Continuous
 62
     7
370
    25
100
AcDbLine
 10
10.836864363
 20
0.4
 30
0.0
 11
10.6553314726
 21
0.4
 31
0.0
  0
ARC
  5
1A0
330
1F
100
AcDbEntity
  8
0
  6
Continuous
 62
     7
370
    25
100
AcDbCircle
 10
10.836864363
 20
0.3375
 30
0.0
 40
0.0625000000000008
100
AcDbArc
 50
343.9122475556
 51
90.0
  0
LINE
  5
1A1
330
1F
100
AcDbEntity
  8
0
  6
Continuous
 62
     7
370
    25
100
AcDbLine
 10
10.8724024565
 20
0.2351806706
 30
0.0
 11
10.8969167637
 21
0.3201806706
 31
0.0
  0
ARC
  5
1A2
330
1F
100
AcDbEntity
  8
0
  6
Continuous
 62
     7
370
    25
100
AcDbCircle
 10
10.8123500558
 20
0.2525
 30
0.0
 40
0.0625000000000025
100
AcDbArc
 50
270.0
 51
343.9122475556
  0
LINE
  5
1A3
330
1F
100
AcDbEntity
  8
0
  6
Continuous
 62
     7
370
    25
100
AcDbLine
 10
10.4391801781
 20
0.19
 30
0.0
 11
10.8123500558
 21
0.19
 31
0.0
  0
ARC
  5
1A4
330
1F
100
AcDbEntity
  8
0
  6
Continuous
 62
     7
370
    25
100
AcDbCircle
 10
10.4391801781
 20
0.2525
 30
0.0
 40
0.0625000000000004
100
AcDbArc
 50
180.0442418105
 51
270.0
  0
LINE
  5
1A5
330
1F
100
AcDbEntity
  8
0
  6
Continuous
 62
     7
370
    25
100
AcDbLine
 10
10.3766801967
 20
0.2524517397
 30
0.0
 11
10.3765662651
 21
0.4
 31
0.0
  0
SPLINE
  5
1A6
330
1F
100
AcDbEntity
  8
0
  6
Continuous
 62
     7
370
    25
100
AcDbSpline
210
0.0
220
0.0
230
1.0
 70
     8
 71
     3
 72
     9
 73
     5
 74
     0
 42
0.00000001
 43
0.00000001
 40
0.0618879658674473
 40
0.0618879658674473
 40
0.0618879658674473
 40
0.0618879658674473
 40
0.4992242217353127
 40
1.0
 40
1.0
 40
1.0
 40
1.0
 10
10.37361161874961
 20
1.398510538794444
 30
0.0
 10
10.37445260921785
 20
1.243347297178284
 30
0.0
 10
10.37617206477986
 20
0.9105127393028859
 30
0.0
 10
10.37642907163175
 20
0.5776736255153303
 30
0.0
 10
10.37656626506024
 20
0.4
 30
0.0
  0
ARC
  5
1A7
330
1F
100
AcDbEntity
  8
0
  6
Continuous
 62
     7
370
    25
100
AcDbCircle
 10
10.4361107007
 20
1.3988492861
 30
0.0
 40
0.0625000000000005
100
AcDbArc
 50
86.8469334648
 51
180.3105421884
  0
SPLINE
  5
1A8
330
1F
100
AcDbEntity
  8
0
  6
Continuous
 62
     7
370
    25
100
AcDbSpline
210
0.0
220
0.0
230
1.0
 70
     8
 71
     3
 72
     9
 73
     5
 74
     0
 42
0.00000001
 43
0.00000001
 40
0.0
 40
0.0
 40
0.0
 40
0.0
 40
0.216151579186128
 40
0.3464851013537897
 40
0.3464851013537897
 40
0.3464851013537897
 40
0.3464851013537897
 10
10.47472138554217
 20
1.460240963855422
 30
0.0
 10
10.46740263910772
 20
1.460324669517434
 30
0.0
 10
10.45567088766887
 20
1.460458847416551
 30
0.0
 10
10.44395439430361
 20
1.461011959223887
 30
0.0
 10
10.4395484270013
 20
1.461254670803294
 30
0.0
  0
SPLINE
  5
1A9
330
1F
100
AcDbEntity
  8
0
  6
Continuous
 62
     7
370
    25
100
AcDbSpline
210
0.0
220
0.0
230
1.0
 70
     8
 71
     3
 72
    11
 73
     7
 74
     0
 42
0.00000001
 43
0.00000001
 40
0.575051682558225
 40
0.575051682558225
 40
0.575051682558225
 40
0.575051682558225
 40
0.6056965398904584
 40
0.7272798813732226
 40
0.8580022116237541
 40
0.9999999999999999
 40
0.9999999999999999
 40
0.9999999999999999
 40
0.9999999999999999
 10
10.59986869893342
 20
1.487131755212263
 30
0.0
 10
10.59711814027632
 20
1.485689799128826
 30
0.0
 10
10.5832804393255
 20
1.478873581815632
 30
0.0
 10
10.5560331797118
 20
1.469603068849535
 30
0.0
 10
10.5167921114692
 20
1.461343899041854
 30
0.0
 10
10.48912623745752
 20
1.460618604546964
 30
0.0
 10
10.47472138554217
 20
1.460240963855422
 30
0.0
  0
ARC
  5
1AA
330
1F
100
AcDbEntity
  8
0
  6
Continuous
 62
     7
370
    25
100
AcDbCircle
 10
10.6288878836
 20
1.4317771084
 30
0.0
 40
0.0624999999999996
100
AcDbArc
 50
90.0
 51
117.6653785872
  0
LINE
  5
1AB
330
1F
100
AcDbEntity
  8
0
  6
Continuous
 62
     7
370
    25
100
AcDbLine
 10
10.6288878836
 20
1.4942771084
 30
0.0
 11
10.8463160702
 21
1.4942771084
 31
0.0
  0
ARC
  5
1AC
330
1F
100
AcDbEntity
  8
0
  6
Continuous
 62
     7
370
    25
100
AcDbCircle
 10
10.8463160702
 20
1.4317771084
 30
0.0
 40
0.0625000000000008
100
AcDbArc
 50
343.9122475556
 51
90.0
  0
SPLINE
  5
1AD
330
1F
100
AcDbEntity
  8
0
  6
Continuous
 62
     7
370
    25
100
AcDbSpline
210
0.0
220
0.0
230
1.0
 70
     8
 71
     3
 72
    15
 73
    11
 74
     0
 42
0.00000001
 43
0.00000001
 40
0.0085763649297973
 40
0.0085763649297973
 40
0.0085763649297973
 40
0.0085763649297973
 40
0.1254868498171028
 40
0.2397722566538705
 40
0.3474446109303283
 40
0.4603400600041173
 40
0.5772668648269912
 40
0.7037452855028697
 40
0.841793640390955
 40
0.9410567056548428
 40
0.9410567056548428
 40
0.9410567056548428
 40
0.9410567056548428
 10
8.095475291531836
 20
2.599885002803892
 30
0.0
 10
8.104135626915895
 20
2.599358920998709
 30
0.0
 10
8.121245369617869
 20
2.59817519124014
 30
0.0
 10
8.145624900520946
 20
2.590359429660974
 30
0.0
 10
8.165380540432958
 20
2.574731540958053
 30
0.0
 10
8.180910807446837
 20
2.554787366966295
 30
0.0
 10
8.190808193060324
 20
2.529987331358412
 30
0.0
 10
8.195365235102093
 20
2.50187133922199
 30
0.0
 10
8.193589199021757
 20
2.474750872046473
 30
0.0
 10
8.18992724612818
 20
2.457550390632528
 30
0.0
 10
8.188232333845699
 20
2.45038774970806
 30
0.0
  0
ARC
  5
1AE
330
1F
100
AcDbEntity
  8
0
  6
Continuous
 62
     7
370
    25
100
AcDbCircle
 10
8.0916856444
 20
2.5375
 30
0.0
 40
0.0625
100
AcDbArc
 50
86.5237751491
 51
90.0
  0
LINE
  5
1AF
330
1F
100
AcDbEntity
  8
0
  6
Continuous
 62
     7
370
    25
100
AcDbLine
 10
8.0089223779
 20
2.6
 30
0.0
 11
8.0916856444
 21
2.6
 31
0.0
  0
ARC
  5
1B0
330
1F
100
AcDbEntity
  8
0
  6
Continuous
 62
     7
370
    25
100
AcDbCircle
 10
8.0089223779
 20
2.6625
 30
0.0
 40
0.0625000000000004
100
AcDbArc
 50
163.9181382853
 51
270.0
  0
LINE
  5
1B1
330
1F
100
AcDbEntity
  8
0
  6
Continuous
 62
     7
370
    25
100
AcDbLine
 10
7.9488681969
 20
2.6798131552
 30
0.0
 11
7.9733730385
 21
2.7648131552
 31
0.0
  0
ARC
  5
1B2
330
1F
100
AcDbEntity
  8
0
  6
Continuous
 62
     7
370
    25
100
AcDbCircle
 10
8.0334272195
 20
2.7475
 30
0.0
 40
0.0625000000000004
100
AcDbArc
 50
90.0
 51
163.9181382853
  0
LINE
  5
1B3
330
1F
100
AcDbEntity
  8
0
  6
Continuous
 62
     7
370
    25
100
AcDbLine
 10
8.4731247054
 20
2.81
 30
0.0
 11
8.0334272195
 21
2.81
 31
0.0
  0
ARC
  5
1B4
330
1F
100
AcDbEntity
  8
0
  6
Continuous
 62
     7
370
    25
100
AcDbCircle
 10
8.4731247054
 20
2.7475
 30
0.0
 40
0.062500000000001
100
AcDbArc
 50
343.9122475556
 51
90.0
  0
LINE
  5
1B5
330
1F
100
AcDbEntity
  8
0
  6
Continuous
 62
     7
370
    25
100
AcDbLine
 10
8.4508665995
 20
2.4447802719
 30
0.0
 11
8.533177106
 21
2.7301806706
 31
0.0
  0
ARC
  5
1B6
330
1F
100
AcDbEntity
  8
0
  6
Continuous
 62
     7
370
    25
100
AcDbCircle
 10
8.3908141988
 20
2.4620996013
 30
0.0
 40
0.0625000000001692
100
AcDbArc
 50
267.0992831089
 51
343.9122475556
  0
ARC
  5
1B7
330
1F
100
AcDbEntity
  8
0
  6
Continuous
 62
     7
370
    25
100
AcDbCircle
 10
8.375
 20
2.15
 30
0.0
 40
0.2500000000000002
100
AcDbArc
 50
87.0992831089
 51
113.7678182941
  0
ARC
  5
1B8
330
1F
100
AcDbEntity
  8
0
  6
Continuous
 62
     7
370
    25
100
AcDbCircle
 10
8.2490527121
 20
2.435995683
 30
0.0
 40
0.0625000000000018
100
AcDbArc
 50
166.6868510846
 51
293.7678182941
  0
LINE
  5
1B9
330
1F
100
AcDbEntity
  8
0
  6
Continuous
 62
     7
370
    25
100
AcDbLine
 10
8.0174529956
 20
1.9373493976
 30
0.0
 11
7.9234486027
 21
1.9373493976
 31
0.0
  0
ARC
  5
1BA
330
1F
100
AcDbEntity
  8
0
  6
Continuous
 62
     7
370
    25
100
AcDbCircle
 10
8.0174529956
 20
1.9685993976
 30
0.0
 40
0.0312500000000002
100
AcDbArc
 50
270.0
 51
343.92939499
  0
LINE
  5
1BB
330
1F
100
AcDbEntity
  8
0
  6
Continuous
 62
     7
370
    25
100
AcDbLine
 10
8.0565743001
 20
1.991511239
 30
0.0
 11
8.0474817862
 21
1.9599487195
 31
0.0
  0
ARC
  5
1BC
330
1F
100
AcDbEntity
  8
0
  6
Continuous
 62
     7
370
    25
100
AcDbCircle
 10
8.1166318814
 20
1.9742098828
 30
0.0
 40
0.0625000000000005
100
AcDbArc
 50
34.2308326997
 51
163.92939499
  0
ARC
  5
1BD
330
1F
100
AcDbEntity
  8
0
  6
Continuous
 62
     7
370
    25
100
AcDbCircle
 10
8.375
 20
2.15
 30
0.0
 40
0.2499999999999999
100
AcDbArc
 50
214.2308326997
 51
240.7252120023
  0
ARC
  5
1BE
330
1F
100
AcDbEntity
  8
0
  6
Continuous
 62
     7
370
    25
100
AcDbCircle
 10
8.222187917
 20
1.8774110837
 30
0.0
 40
0.062500000000171
100
AcDbArc
 50
343.9122475556
 51
60.7252120023
  0
LINE
  5
1BF
330
1F
100
AcDbEntity
  8
0
  6
Continuous
 62
     7
370
    25
100
AcDbLine
 10
7.813610088
 20
0.2351806706
 30
0.0
 11
8.2822403177
 21
1.8600917543
 31
0.0
  0
ARC
  5
1C0
330
1F
100
AcDbEntity
  8
0
  6
Continuous
 62
     7
370
    25
100
AcDbCircle
 10
7.7535576873
 20
0.2525
 30
0.0
 40
0.0625
100
AcDbArc
 50
270.0
 51
343.9122475556
  0
LINE
  5
1C1
330
1F
100
AcDbEntity
  8
0
  6
Continuous
 62
     7
370
    25
100
AcDbLine
 10
7.3138930529
 20
0.19
 30
0.0
 11
7.7535576873
 21
0.19
 31
0.0
  0
ARC
  5
1C2
330
1F
100
AcDbEntity
  8
0
  6
Continuous
 62
     7
370
    25
100
AcDbCircle
 10
7.3138930529
 20
0.2525
 30
0.0
 40
0.0625000000000005
100
AcDbArc
 50
163.9181382853
 51
270.0
  0
LINE
  5
1C3
330
1F
100
AcDbEntity
  8
0
  6
Continuous
 62
     7
370
    25
100
AcDbLine
 10
7.2538388719
 20
0.2698131552
 30
0.0
 11
7.2783437134
 21
0.3548131552
 31
0.0
  0
ARC
  5
1C4
330
1F
100
AcDbEntity
  8
0
  6
Continuous
 62
     7
370
    25
100
AcDbCircle
 10
7.3383978944
 20
0.3375
 30
0.0
 40
0.0625
100
AcDbArc
 50
90.0
 51
163.9181382853
  0
LINE
  5
1C5
330
1F
100
AcDbEntity
  8
0
  6
Continuous
 62
     7
370
    25
100
AcDbLine
 10
7.4590813253
 20
0.4
 30
0.0
 11
7.3383978944
 21
0.4
 31
0.0
  0
SPLINE
  5
1C6
330
1F
100
AcDbEntity
  8
0
  6
Continuous
 62
     7
370
    25
100
AcDbSpline
210
0.0
220
0.0
230
1.0
 70
     8
 71
     3
 72
    15
 73
    11
 74
     0
 42
0.00000001
 43
0.00000001
 40
0.0
 40
0.0
 40
0.0
 40
0.0
 40
0.1387746193222665
 40
0.2703047130868405
 40
0.4008252355936645
 40
0.5309188317513226
 40
0.656712615295506
 40
0.7748537576435021
 40
0.8878167328585013
 40
1.0
 40
1.0
 40
1.0
 40
1.0
 10
7.644209337349398
 20
0.5623493975903615
 30
0.0
 10
7.640400439310548
 20
0.5507567599292227
 30
0.0
 10
7.632981481171112
 20
0.528176661261202
 30
0.0
 10
7.616365542008856
 20
0.4969601671352589
 30
0.0
 10
7.596004027645256
 20
0.46906460164392
 30
0.0
 10
7.572139339970899
 20
0.4447933475038693
 30
0.0
 10
7.545894899055829
 20
0.4248047549499755
 30
0.0
 10
7.517847471638924
 20
0.4105058685818396
 30
0.0
 10
7.488725124867516
 20
0.4017760189622069
 30
0.0
 10
7.468939752127799
 20
0.4005906379491735
 30
0.0
 10
7.459081325301205
 20
0.4
 30
0.0
  0
LINE
  5
1C7
330
1F
100
AcDbEntity
  8
0
  6
Continuous
 62
     7
370
    25
100
AcDbLine
 10
7.7846890556
 20
1.0492436799
 30
0.0
 11
7.6442093373
 21
0.5623493976
 31
0.0
  0
ARC
  5
1C8
330
1F
100
AcDbEntity
  8
0
  6
Continuous
 62
     7
370
    25
100
AcDbCircle
 10
7.754663802
 20
1.0579066265
 30
0.0
 40
0.0312500000000008
100
AcDbArc
 50
343.9059849587
 51
90.0
  0
LINE
  5
1C9
330
1F
100
AcDbEntity
  8
0
  6
Continuous
 62
     7
370
    25
100
AcDbLine
 10
7.6606825052
 20
1.0891566265
 30
0.0
 11
7.754663802
 21
1.0891566265
 31
0.0
  0
ARC
  5
1CA
330
1F
100
AcDbEntity
  8
0
  6
Continuous
 62
     7
370
    25
100
AcDbCircle
 10
7.6606825052
 20
1.0579066265
 30
0.0
 40
0.0312500000000001
100
AcDbArc
 50
90.0
 51
163.9187203645
  0
LINE
  5
1CB
330
1F
100
AcDbEntity
  8
0
  6
Continuous
 62
     7
370
    25
100
AcDbLine
 10
7.4973715755
 20
0.6042235995
 30
0.0
 11
7.6306553267
 21
1.066562899
 31
0.0
  0
ARC
  5
1CC
330
1F
100
AcDbEntity
  8
0
  6
Continuous
 62
     7
370
    25
100
AcDbCircle
 10
7.4373172186
 20
0.6215361446
 30
0.0
 40
0.0625000000000001
100
AcDbArc
 50
270.0
 51
343.9187203645
  0
LINE
  5
1CD
330
1F
100
AcDbEntity
  8
0
  6
Continuous
 62
     7
370
    25
100
AcDbLine
 10
7.1433121894
 20
0.5590361446
 30
0.0
 11
7.4373172186
 21
0.5590361446
 31
0.0
  0
ARC
  5
1CE
330
1F
100
AcDbEntity
  8
0
  6
Continuous
 62
     7
370
    25
100
AcDbCircle
 10
7.1433121894
 20
0.6215361446
 30
0.0
 40
0.0625
100
AcDbArc
 50
163.9181382853
 51
270.0
  0
LINE
  5
1CF
330
1F
100
AcDbEntity
  8
0
  6
Continuous
 62
     7
370
    25
100
AcDbLine
 10
7.5897666574
 20
2.3957770106
 30
0.0
 11
7.0832580083
 21
0.6388492998
 31
0.0
  0
ARC
  5
1D0
330
1F
100
AcDbEntity
  8
0
  6
Continuous
 62
     7
370
    25
100
AcDbCircle
 10
7.6498208384
 20
2.3784638554
 30
0.0
 40
0.0624999999999996
100
AcDbArc
 50
90.0
 51
163.9181382853
  0
LINE
  5
1D1
330
1F
100
AcDbEntity
  8
0
  6
Continuous
 62
     7
370
    25
100
AcDbLine
 10
7.9438633368
 20
2.4409638554
 30
0.0
 11
7.6498208384
 21
2.4409638554
 31
0.0
  0
ARC
  5
1D2
330
1F
100
AcDbEntity
  8
0
  6
Continuous
 62
     7
370
    25
100
AcDbCircle
 10
7.9438633368
 20
2.3784638554
 30
0.0
 40
0.0624999999999996
100
AcDbArc
 50
343.9426498309
 51
90.0
  0
LINE
  5
1D3
330
1F
100
AcDbEntity
  8
0
  6
Continuous
 62
     7
370
    25
100
AcDbLine
 10
7.8934178116
 20
1.9772431286
 30
0.0
 11
8.003924919
 21
2.3611763934
 31
0.0
  0
ARC
  5
1D4
330
1F
100
AcDbEntity
  8
0
  6
Continuous
 62
     7
370
    25
100
AcDbCircle
 10
7.9234486027
 20
1.9685993976
 30
0.0
 40
0.0312500000000002
100
AcDbArc
 50
163.9426498309
 51
270.0
  0
LINE
  5
1D5
330
1F
100
AcDbEntity
  8
0
  6
Continuous
 62
     7
370
    25
100
AcDbLine
 10
3.5729743976
 20
2.6
 30
0.0
 11
3.7267018072
 21
2.6
 31
0.0
  0
ARC
  5
1D6
330
1F
100
AcDbEntity
  8
0
  6
Continuous
 62
     7
370
    25
100
AcDbCircle
 10
3.5729743976
 20
2.6625
 30
0.0
 40
0.0625000000000004
100
AcDbArc
 50
180.0
 51
270.0
  0
LINE
  5
1D7
330
1F
100
AcDbEntity
  8
0
  6
Continuous
 62
     7
370
    25
100
AcDbLine
 10
3.5104743976
 20
2.6625
 30
0.0
 11
3.5104743976
 21
2.7475
 31
0.0
  0
ARC
  5
1D8
330
1F
100
AcDbEntity
  8
0
  6
Continuous
 62
     7
370
    25
100
AcDbCircle
 10
3.5729743976
 20
2.7475
 30
0.0
 40
0.0625000000000004
100
AcDbArc
 50
90.0
 51
180.0
  0
LINE
  5
1D9
330
1F
100
AcDbEntity
  8
0
  6
Continuous
 62
     7
370
    25
100
AcDbLine
 10
3.9116877049
 20
2.81
 30
0.0
 11
3.5729743976
 21
2.81
 31
0.0
  0
ARC
  5
1DA
330
1F
100
AcDbEntity
  8
0
  6
Continuous
 62
     7
370
    25
100
AcDbCircle
 10
3.9116877049
 20
2.7475
 30
0.0
 40
0.0625
100
AcDbArc
 50
348.7276290802
 51
90.0
  0
ARC
  5
1DB
330
1F
100
AcDbEntity
  8
0
  6
Continuous
 62
     7
370
    25
100
AcDbCircle
 10
4.15
 20
2.7
 30
0.0
 40
0.1805
100
AcDbArc
 50
168.7276290802
 51
240.7841275174
  0
ARC
  5
1DC
330
1F
100
AcDbEntity
  8
0
  6
Continuous
 62
     7
370
    25
100
AcDbCircle
 10
4.0313913444
 20
2.4879127849
 30
0.0
 40
0.0625000000001719
100
AcDbArc
 50
343.9122475556
 51
60.7841275174
  0
LINE
  5
1DD
330
1F
100
AcDbEntity
  8
0
  6
Continuous
 62
     7
370
    25
100
AcDbLine
 10
3.8589513022
 20
1.664457779
 30
0.0
 11
4.0914437451
 21
2.4705934555
 31
0.0
  0
ARC
  5
1DE
330
1F
100
AcDbEntity
  8
0
  6
Continuous
 62
     7
370
    25
100
AcDbCircle
 10
3.7988989015
 20
1.6817771084
 30
0.0
 40
0.0625
100
AcDbArc
 50
270.0
 51
343.9122475556
  0
LINE
  5
1DF
330
1F
100
AcDbEntity
  8
0
  6
Continuous
 62
     7
370
    25
100
AcDbLine
 10
3.7988989015
 20
1.6192771084
 30
0.0
 11
3.6651228818
 21
1.6192771084
 31
0.0
  0
ARC
  5
1E0
330
1F
100
AcDbEntity
  8
0
  6
Continuous
 62
     7
370
    25
100
AcDbCircle
 10
3.6651228818
 20
1.6817771084
 30
0.0
 40
0.0624999999999998
100
AcDbArc
 50
163.900914072
 51
270.0
  0
LINE
  5
1E1
330
1F
100
AcDbEntity
  8
0
  6
Continuous
 62
     7
370
    25
100
AcDbLine
 10
3.8182304217
 20
2.4376506024
 30
0.0
 11
3.6050739082
 21
1.6991083163
 31
0.0
  0
SPLINE
  5
1E2
330
1F
100
AcDbEntity
  8
0
  6
Continuous
 62
     7
370
    25
100
AcDbSpline
210
0.0
220
0.0
230
1.0
 70
     8
 71
     3
 72
    15
 73
    11
 74
     0
 42
0.00000001
 43
0.00000001
 40
0.0
 40
0.0
 40
0.0
 40
0.0
 40
0.1270950231831198
 40
0.2411608260192054
 40
0.3501117203622874
 40
0.461664887392023
 40
0.57836701266187
 40
0.7043145508388785
 40
0.8420976402669212
 40
1.0
 40
1.0
 40
1.0
 40
1.0
 10
3.726701807228915
 20
2.6
 30
0.0
 10
3.736146834625092
 20
2.599464442534551
 30
0.0
 10
3.754068626931266
 20
2.59844823058924
 30
0.0
 10
3.779185763468322
 20
2.590217357889725
 30
0.0
 10
3.7993618987962
 20
2.575015194039665
 30
0.0
 10
3.81434716295648
 20
2.554612231993624
 30
0.0
 10
3.824514646252064
 20
2.53005582207915
 30
0.0
 10
3.828325286726837
 20
2.501816254566132
 30
0.0
 10
3.826485924336929
 20
2.470366860481823
 30
0.0
 10
3.821104315833999
 20
2.449039740851936
 30
0.0
 10
3.818230421686747
 20
2.437650602409639
 30
0.0
  0
LINE
  5
1E3
330
1F
100
AcDbEntity
  8
0
  6
Continuous
 62
     7
370
    25
100
AcDbLine
 10
1.5743101925
 20
1.4490964378
 30
0.0
 11
1.234202412
 21
0.2698193294
 31
0.0
  0
ARC
  5
1E4
330
1F
100
AcDbEntity
  8
0
  6
Continuous
 62
     7
370
    25
100
AcDbCircle
 10
1.6343625932
 20
1.4317771084
 30
0.0
 40
0.0625000000000002
100
AcDbArc
 50
90.0
 51
163.9122475556
  0
LINE
  5
1E5
330
1F
100
AcDbEntity
  8
0
  6
Continuous
 62
     7
370
    25
100
AcDbLine
 10
1.6343625932
 20
1.4942771084
 30
0.0
 11
1.8583066906
 21
1.4942771084
 31
0.0
  0
ARC
  5
1E6
330
1F
100
AcDbEntity
  8
0
  6
Continuous
 62
     7
370
    25
100
AcDbCircle
 10
1.8583066906
 20
1.4317771084
 30
0.0
 40
0.0625000000000002
100
AcDbArc
 50
335.414429757
 51
90.0
  0
LINE
  5
1E7
330
1F
100
AcDbEntity
  8
0
  6
Continuous
 62
     7
370
    25
100
AcDbLine
 10
1.3755844937
 20
0.2264967631
 30
0.0
 11
1.915140498
 21
1.4057738715
 31
0.0
  0
ARC
  5
1E8
330
1F
100
AcDbEntity
  8
0
  6
Continuous
 62
     7
370
    25
100
AcDbCircle
 10
1.3187506863
 20
0.2525
 30
0.0
 40
0.0625000000000001
100
AcDbArc
 50
270.0
 51
335.414429757
  0
LINE
  5
1E9
330
1F
100
AcDbEntity
  8
0
  6
Continuous
 62
     7
370
    25
100
AcDbLine
 10
1.2942548127
 20
0.19
 30
0.0
 11
1.3187506863
 21
0.19
 31
0.0
  0
ARC
  5
1EA
330
1F
100
AcDbEntity
  8
0
  6
Continuous
 62
     7
370
    25
100
AcDbCircle
 10
1.2942548127
 20
0.2525
 30
0.0
 40
0.0625000000000003
100
AcDbArc
 50
163.9122475556
 51
270.0
  0
LINE
  5
1EB
330
1F
100
AcDbEntity
  8
0
  6
Continuous
 62
     7
370
    25
100
AcDbLine
 10
2.029523284
 20
1.6557738715
 30
0.0
 11
2.4574738849
 21
2.5911213482
 31
0.0
  0
ARC
  5
1EC
330
1F
100
AcDbEntity
  8
0
  6
Continuous
 62
     7
370
    25
100
AcDbCircle
 10
1.9726894765
 20
1.6817771084
 30
0.0
 40
0.0625
100
AcDbArc
 50
270.0
 51
335.414429757
  0
LINE
  5
1ED
330
1F
100
AcDbEntity
  8
0
  6
Continuous
 62
     7
370
    25
100
AcDbLine
 10
1.7064634968
 20
1.6192771084
 30
0.0
 11
1.9726894765
 21
1.6192771084
 31
0.0
  0
ARC
  5
1EE
330
1F
100
AcDbEntity
  8
0
  6
Continuous
 62
     7
370
    25
100
AcDbCircle
 10
1.7064634968
 20
1.6817771084
 30
0.0
 40
0.0625
100
AcDbArc
 50
163.9122475556
 51
270.0
  0
LINE
  5
1EF
330
1F
100
AcDbEntity
  8
0
  6
Continuous
 62
     7
370
    25
100
AcDbLine
 10
1.8835307287
 20
2.5212762603
 30
0.0
 11
1.6464110962
 21
1.6990964378
 31
0.0
  0
ARC
  5
1F0
330
1F
100
AcDbEntity
  8
0
  6
Continuous
 62
     7
370
    25
100
AcDbCircle
 10
1.9435831294
 20
2.5039569309
 30
0.0
 40
0.0625000000000004
100
AcDbArc
 50
126.2192728751
 51
163.9122475556
  0
ARC
  5
1F1
330
1F
100
AcDbEntity
  8
0
  6
Continuous
 62
     7
370
    25
100
AcDbCircle
 10
1.8
 20
2.7
 30
0.0
 40
0.1805
100
AcDbArc
 50
306.2192728751
 51
11.2723709198
  0
ARC
  5
1F2
330
1F
100
AcDbEntity
  8
0
  6
Continuous
 62
     7
370
    25
100
AcDbCircle
 10
2.0383122951
 20
2.7475
 30
0.0
 40
0.0624999999999999
100
AcDbArc
 50
90.0
 51
191.2723709198
  0
LINE
  5
1F3
330
1F
100
AcDbEntity
  8
0
  6
Continuous
 62
     7
370
    25
100
AcDbLine
 10
2.4162497845
 20
2.81
 30
0.0
 11
2.0383122951
 21
2.81
 31
0.0
  0
ARC
  5
1F4
330
1F
100
AcDbEntity
  8
0
  6
Continuous
 62
     7
370
    25
100
AcDbCircle
 10
2.4162497845
 20
2.7475
 30
0.0
 40
0.0625000000000006
100
AcDbArc
 50
353.1725385808
 51
90.0
  0
LINE
  5
1F5
330
1F
100
AcDbEntity
  8
0
  6
Continuous
 62
     7
370
    25
100
AcDbLine
 10
2.4783065747
 20
2.7400700078
 30
0.0
 11
2.4626968677
 21
2.609694593
 31
0.0
  0
ARC
  5
1F6
330
1F
100
AcDbEntity
  8
0
  6
Continuous
 62
     7
370
    25
100
AcDbCircle
 10
2.4006400774
 20
2.6171245852
 30
0.0
 40
0.0625000000000001
100
AcDbArc
 50
335.414429757
 51
353.1725385808
  0
LINE
  5
1F7
330
1F
100
AcDbEntity
  8
0
  6
Continuous
 62
     7
370
    25
100
AcDbLine
 10
0.7087103384
 20
1.664457779
 30
0.0
 11
0.9767611664
 21
2.5938872818
 31
0.0
  0
ARC
  5
1F8
330
1F
100
AcDbEntity
  8
0
  6
Continuous
 62
     7
370
    25
100
AcDbCircle
 10
0.6486579377
 20
1.6817771084
 30
0.0
 40
0.0625
100
AcDbArc
 50
270.0
 51
343.9122475556
  0
LINE
  5
1F9
330
1F
100
AcDbEntity
  8
0
  6
Continuous
 62
     7
370
    25
100
AcDbLine
 10
0.2525
 20
1.6192771084
 30
0.0
 11
0.6486579377
 21
1.6192771084
 31
0.0
  0
ARC
  5
1FA
330
1F
100
AcDbEntity
  8
0
  6
Continuous
 62
     7
370
    25
100
AcDbCircle
 10
0.2525
 20
1.6817771084
 30
0.0
 40
0.0625
100
AcDbArc
 50
180.0
 51
270.0
  0
LINE
  5
1FB
330
1F
100
AcDbEntity
  8
0
  6
Continuous
 62
     7
370
    25
100
AcDbLine
 10
0.19
 20
2.7475
 30
0.0
 11
0.19
 21
1.6817771084
 31
0.0
  0
ARC
  5
1FC
330
1F
100
AcDbEntity
  8
0
  6
Continuous
 62
     7
370
    25
100
AcDbCircle
 10
0.2525
 20
2.7475
 30
0.0
 40
0.0625000000000004
100
AcDbArc
 50
90.0
 51
180.0
  0
LINE
  5
1FD
330
1F
100
AcDbEntity
  8
0
  6
Continuous
 62
     7
370
    25
100
AcDbLine
 10
0.9273480349
 20
2.81
 30
0.0
 11
0.2525
 21
2.81
 31
0.0
  0
ARC
  5
1FE
330
1F
100
AcDbEntity
  8
0
  6
Continuous
 62
     7
370
    25
100
AcDbCircle
 10
0.9273480349
 20
2.7475
 30
0.0
 40
0.0625000000000004
100
AcDbArc
 50
355.5364559935
 51
90.0
  0
LINE
  5
1FF
330
1F
100
AcDbEntity
  8
0
  6
Continuous
 62
     7
370
    25
100
AcDbLine
 10
0.9896584757
 20
2.7426359522
 30
0.0
 11
0.9790192065
 21
2.6063425635
 31
0.0
  0
ARC
  5
200
330
1F
100
AcDbEntity
  8
0
  6
Continuous
 62
     7
370
    25
100
AcDbCircle
 10
0.9167087657
 20
2.6112066112
 30
0.0
 40
0.0625
100
AcDbArc
 50
343.9122475556
 51
355.5364559935
  0
CIRCLE
  5
201
330
1F
100
AcDbEntity
  8
0
  6
Continuous
 62
     7
370
    25
100
AcDbCircle
 10
8.375
 20
0.4
 30
0.0
 40
0.097999999999999
  0
CIRCLE
  5
202
330
1F
100
AcDbEntity
  8
0
  6
Continuous
 62
     7
370
    25
100
AcDbCircle
 10
14.82
 20
2.4
 30
0.0
 40
0.0847499999999997
  0
CIRCLE
  5
203
330
1F
100
AcDbEntity
  8
0
  6
Continuous
 62
     7
370
    25
100
AcDbCircle
 10
14.82
 20
0.25
 30
0.0
 40
0.0847499999999997
  0
CIRCLE
  5
204
330
1F
100
AcDbEntity
  8
0
  6
Continuous
 62
     7
370
    25
100
AcDbCircle
 10
2.7323425197
 20
2.3475
 30
0.0
 40
0.21875
  0
CIRCLE
  5
205
330
1F
100
AcDbEntity
  8
0
  6
Continuous
 62
     7
370
    25
100
AcDbCircle
 10
1.8
 20
0.51
 30
0.0
 40
0.0979999999999999
  0
CIRCLE
  5
206
330
1F
100
AcDbEntity
  8
0
  6
Continuous
 62
     7
370
    25
100
AcDbCircle
 10
4.15
 20
2.7
 30
0.0
 40
0.0979999999999999
  0
CIRCLE
  5
207
330
1F
100
AcDbEntity
  8
0
  6
Continuous
 62
     7
370
    25
100
AcDbCircle
 10
4.15
 20
0.3
 30
0.0
 40
0.0979999999999999
  0
CIRCLE
  5
208
330
1F
100
AcDbEntity
  8
0
  6
Continuous
 62
     7
370
    25
100
AcDbCircle
 10
8.375
 20
2.15
 30
0.0
 40
0.097999999999999
  0
CIRCLE
  5
209
330
1F
100
AcDbEntity
  8
0
  6
Continuous
 62
     7
370
    25
100
AcDbCircle
 10
2.7323425197
 20
1.5015
 30
0.0
 40
0.1562499999999996
  0
CIRCLE
  5
20A
330
1F
100
AcDbEntity
  8
0
  6
Continuous
 62
     7
370
    25
100
AcDbCircle
 10
1.8
 20
2.7
 30
0.0
 40
0.0979999999999999
  0
ARC
  5
20B
330
1F
100
AcDbEntity
  8
0
  6
Continuous
 62
     7
370
    25
100
AcDbCircle
 10
8.6429523811
 20
2.0663586794
 30
0.0
 40
0.0312500000000006
100
AcDbArc
 50
172.7860125712
 51
325.1747983153
  0
ARC
  5
20C
330
1F
100
AcDbEntity
  8
0
  6
Continuous
 62
     7
370
    25
100
AcDbCircle
 10
8.375
 20
2.15
 30
0.0
 40
0.2500000000000194
100
AcDbArc
 50
341.4054984897
 51
32.5344963497
  0
ARC
  5
20D
330
1F
100
AcDbEntity
  8
0
  6
Continuous
 62
     7
370
    25
100
AcDbCircle
 10
8.638458687
 20
2.3180647799
 30
0.0
 40
0.0625000000000009
100
AcDbArc
 50
163.9230005793
 51
212.5344963497
  0
LINE
  5
20E
330
1F
100
AcDbEntity
  8
0
  6
Continuous
 62
     7
370
    25
100
AcDbLine
 10
8.7021664132
 20
2.7648080587
 30
0.0
 11
8.5784030369
 21
2.3353728387
 31
0.0
  0
ARC
  5
20F
330
1F
100
AcDbEntity
  8
0
  6
Continuous
 62
     7
370
    25
100
AcDbCircle
 10
8.7622220632
 20
2.7475
 30
0.0
 40
0.0625000000000004
100
AcDbArc
 50
90.0
 51
163.9230005793
  0
LINE
  5
210
330
1F
100
AcDbEntity
  8
0
  6
Continuous
 62
     7
370
    25
100
AcDbLine
 10
9.0787343292
 20
2.81
 30
0.0
 11
8.7622220632
 21
2.81
 31
0.0
  0
ARC
  5
211
330
1F
100
AcDbEntity
  8
0
  6
Continuous
 62
     7
370
    25
100
AcDbCircle
 10
9.0787343292
 20
2.7475
 30
0.0
 40
0.0625000000000004
100
AcDbArc
 50
325.1747983153
 51
90.0
  0
LINE
  5
212
330
1F
100
AcDbEntity
  8
0
  6
Continuous
 62
     7
370
    25
100
AcDbLine
 10
8.6686054467
 20
2.0485125951
 30
0.0
 11
9.1300404605
 21
2.7118078314
 31
0.0
  0
LINE
  5
213
330
1F
100
AcDbEntity
  8
0
  6
Continuous
 62
     7
370
    25
100
AcDbLine
 10
8.4283699278
 20
0.7205793396
 30
0.0
 11
8.3487319044
 21
1.3225217094
 31
0.0
  0
ARC
  5
214
330
1F
100
AcDbEntity
  8
0
  6
Continuous
 62
     7
370
    25
100
AcDbCircle
 10
8.3664098424
 20
0.7123819124
 30
0.0
 40
0.0625000000001703
100
AcDbArc
 50
271.5751736974
 51
7.536562059
  0
ARC
  5
215
330
1F
100
AcDbEntity
  8
0
  6
Continuous
 62
     7
370
    25
100
AcDbCircle
 10
8.375
 20
0.4
 30
0.0
 40
0.2500000000000004
100
AcDbArc
 50
91.5751736974
 51
208.1641993696
  0
ARC
  5
216
330
1F
100
AcDbEntity
  8
0
  6
Continuous
 62
     7
370
    25
100
AcDbCircle
 10
8.0995004537
 20
0.2525
 30
0.0
 40
0.0625000000000001
100
AcDbArc
 50
270.0
 51
28.1641993696
  0
LINE
  5
217
330
1F
100
AcDbEntity
  8
0
  6
Continuous
 62
     7
370
    25
100
AcDbLine
 10
8.0426645442
 20
0.19
 30
0.0
 11
8.0995004537
 21
0.19
 31
0.0
  0
ARC
  5
218
330
1F
100
AcDbEntity
  8
0
  6
Continuous
 62
     7
370
    25
100
AcDbCircle
 10
8.0426645442
 20
0.2525
 30
0.0
 40
0.0625000000000005
100
AcDbArc
 50
163.9024943561
 51
270.0
  0
LINE
  5
219
330
1F
100
AcDbEntity
  8
0
  6
Continuous
 62
     7
370
    25
100
AcDbLine
 10
8.2877271359
 20
1.3270877716
 30
0.0
 11
7.9826150925
 21
0.2698295516
 31
0.0
  0
ARC
  5
21A
330
1F
100
AcDbEntity
  8
0
  6
Continuous
 62
     7
370
    25
100
AcDbCircle
 10
8.3177518617
 20
1.3184229958
 30
0.0
 40
0.031250000000001
100
AcDbArc
 50
7.536562059
 51
163.9024943561
  0
LINE
  5
21B
330
1F
100
AcDbEntity
  8
0
  6
Continuous
 62
     7
370
    25
100
AcDbLine
 10
2.2863515798
 20
1.0906308572
 30
0.0
 11
2.407998663
 21
2.0315403924
 31
0.0
  0
ARC
  5
21C
330
1F
100
AcDbEntity
  8
0
  6
Continuous
 62
     7
370
    25
100
AcDbCircle
 10
2.2243674667
 20
1.0986445783
 30
0.0
 40
0.0625
100
AcDbArc
 50
270.0
 51
352.6332817332
  0
LINE
  5
21D
330
1F
100
AcDbEntity
  8
0
  6
Continuous
 62
     7
370
    25
100
AcDbLine
 10
1.9944858974
 20
1.0361445783
 30
0.0
 11
2.2243674667
 21
1.0361445783
 31
0.0
  0
ARC
  5
21E
330
1F
100
AcDbEntity
  8
0
  6
Continuous
 62
     7
370
    25
100
AcDbCircle
 10
1.9944858974
 20
1.0986445783
 30
0.0
 40
0.0625
100
AcDbArc
 50
156.0211053878
 51
270.0
  0
LINE
  5
21F
330
1F
100
AcDbEntity
  8
0
  6
Continuous
 62
     7
370
    25
100
AcDbLine
 10
2.3484536309
 20
2.0482472561
 30
0.0
 11
1.9373799461
 21
1.1240445848
 31
0.0
  0
ARC
  5
220
330
1F
100
AcDbEntity
  8
0
  6
Continuous
 62
     7
370
    25
100
AcDbCircle
 10
2.3770066065
 20
2.0355472529
 30
0.0
 40
0.0312500000000006
100
AcDbArc
 50
352.6332817332
 51
156.0211053878
  0
LINE
  5
221
330
1F
100
AcDbEntity
  8
0
  6
Continuous
 62
     7
370
    25
100
AcDbLine
 10
0.0
 20
0.0
 30
0.0
 11
15.16
 21
0.0
 31
0.0
  0
LINE
  5
222
330
1F
100
AcDbEntity
  8
0
  6
Continuous
 62
     7
370
    25
100
AcDbLine
 10
15.16
 20
3.0
 30
0.0
 11
15.16
 21
0.0
 31
0.0
  0
LINE
  5
223
330
1F
100
AcDbEntity
  8
0
  6
Continuous
 62
     7
370
    25
100
AcDbLine
 10
15.16
 20
3.0
 30
0.0
 11
0.0
 21
3.0
 31
0.0
  0
LINE
  5
224
330
1F
100
AcDbEntity
  8
0
  6
Continuous
 62
     7
370
    25
100
AcDbLine
 10
0.0
 20
3.0
 30
0.0
 11
0.0
 21
0.0
 31
0.0
  0
LINE
  5
225
330
1F
100
AcDbEntity
  8
0
  6
Continuous
 62
     7
370
    25
100
AcDbLine
 10
0.8574528277
 20
0.6880879415
 30
0.0
 11
0.9159663764
 21
1.6088323876
 31
0.0
  0
ARC
  5
226
330
1F
100
AcDbEntity
  8
0
  6
Continuous
 62
     7
370
    25
100
AcDbCircle
 10
0.8886399145
 20
0.686105994
 30
0.0
 40
0.0312500000000001
100
AcDbArc
 50
176.3637282634
 51
332.8289985467
  0
LINE
  5
227
330
1F
100
AcDbEntity
  8
0
  6
Continuous
 62
     7
370
    25
100
AcDbLine
 10
1.3962276634
 20
1.606562201
 30
0.0
 11
0.9164414022
 21
0.6718357529
 31
0.0
  0
ARC
  5
228
330
1F
100
AcDbEntity
  8
0
  6
Continuous
 62
     7
370
    25
100
AcDbCircle
 10
1.4240291511
 20
1.5922919598
 30
0.0
 40
0.0312500000000002
100
AcDbArc
 50
343.9131111442
 51
152.8289985467
  0
LINE
  5
229
330
1F
100
AcDbEntity
  8
0
  6
Continuous
 62
     7
370
    25
100
AcDbLine
 10
1.0651793049
 20
0.2351815757
 30
0.0
 11
1.4540554819
 21
1.5836327477
 31
0.0
  0
ARC
  5
22A
330
1F
100
AcDbEntity
  8
0
  6
Continuous
 62
     7
370
    25
100
AcDbCircle
 10
1.0051266432
 20
0.2525
 30
0.0
 40
0.0625
100
AcDbArc
 50
270.0
 51
343.9131111442
  0
LINE
  5
22B
330
1F
100
AcDbEntity
  8
0
  6
Continuous
 62
     7
370
    25
100
AcDbLine
 10
0.5255822393
 20
0.19
 30
0.0
 11
1.0051266432
 21
0.19
 31
0.0
  0
ARC
  5
22C
330
1F
100
AcDbEntity
  8
0
  6
Continuous
 62
     7
370
    25
100
AcDbCircle
 10
0.5255822393
 20
0.2525
 30
0.0
 40
0.0625000000000001
100
AcDbArc
 50
163.9131111442
 51
270.0
  0
LINE
  5
22D
330
1F
100
AcDbEntity
  8
0
  6
Continuous
 62
     7
370
    25
100
AcDbLine
 10
0.8547529587
 20
1.6194735472
 30
0.0
 11
0.4655295775
 21
0.2698184243
 31
0.0
  0
ARC
  5
22E
330
1F
100
AcDbEntity
  8
0
  6
Continuous
 62
     7
370
    25
100
AcDbCircle
 10
0.8847792896
 20
1.6108143351
 30
0.0
 40
0.0312500000000001
100
AcDbArc
 50
356.3637282634
 51
163.9131111442
  0
LINE
  5
22F
330
1F
100
AcDbEntity
  8
0
  6
Continuous
 62
     7
370
    25
100
AcDbLine
 10
5.383722186
 20
1.4337349398
 30
0.0
 11
5.6777295171
 21
1.4337349398
 31
0.0
  0
ARC
  5
230
330
1F
100
AcDbEntity
  8
0
  6
Continuous
 62
     7
370
    25
100
AcDbCircle
 10
5.383722186
 20
1.4962349398
 30
0.0
 40
0.0624999999999998
100
AcDbArc
 50
163.9208955326
 51
270.0
  0
LINE
  5
231
330
1F
100
AcDbEntity
  8
0
  6
Continuous
 62
     7
370
    25
100
AcDbLine
 10
5.5779609507
 20
2.3957741206
 30
0.0
 11
5.3236671719
 21
1.5135452049
 31
0.0
  0
ARC
  5
232
330
1F
100
AcDbEntity
  8
0
  6
Continuous
 62
     7
370
    25
100
AcDbCircle
 10
5.6380159648
 20
2.3784638554
 30
0.0
 40
0.0624999999999998
100
AcDbArc
 50
90.0
 51
163.9208955326
  0
LINE
  5
233
330
1F
100
AcDbEntity
  8
0
  6
Continuous
 62
     7
370
    25
100
AcDbLine
 10
5.9320232959
 20
2.4409638554
 30
0.0
 11
5.6380159648
 21
2.4409638554
 31
0.0
  0
ARC
  5
234
330
1F
100
AcDbEntity
  8
0
  6
Continuous
 62
     7
370
    25
100
AcDbCircle
 10
5.9320232959
 20
2.3784638554
 30
0.0
 40
0.0624999999999999
100
AcDbArc
 50
343.9208955326
 51
90.0
  0
LINE
  5
235
330
1F
100
AcDbEntity
  8
0
  6
Continuous
 62
     7
370
    25
100
AcDbLine
 10
5.7377845313
 20
1.4789246746
 30
0.0
 11
5.99207831
 21
2.3611535903
 31
0.0
  0
ARC
  5
236
330
1F
100
AcDbEntity
  8
0
  6
Continuous
 62
     7
370
    25
100
AcDbCircle
 10
5.6777295171
 20
1.4962349398
 30
0.0
 40
0.0624999999999998
100
AcDbArc
 50
270.0
 51
343.9208955326
  0
LINE
  5
237
330
1F
100
AcDbEntity
  8
0
  6
Continuous
 62
     7
370
    25
100
AcDbLine
 10
1.1494540102
 20
2.7523640478
 30
0.0
 11
1.0261521084
 21
1.1728162651
 31
0.0
  0
ARC
  5
238
330
1F
100
AcDbEntity
  8
0
  6
Continuous
 62
     7
370
    25
100
AcDbCircle
 10
1.2117644511
 20
2.7475
 30
0.0
 40
0.0625000000000004
100
AcDbArc
 50
90.0
 51
175.5364559935
  0
LINE
  5
239
330
1F
100
AcDbEntity
  8
0
  6
Continuous
 62
     7
370
    25
100
AcDbLine
 10
1.5616877049
 20
2.81
 30
0.0
 11
1.2117644511
 21
2.81
 31
0.0
  0
ARC
  5
23A
330
1F
100
AcDbEntity
  8
0
  6
Continuous
 62
     7
370
    25
100
AcDbCircle
 10
1.5616877049
 20
2.7475
 30
0.0
 40
0.0625000000000001
100
AcDbArc
 50
348.7276290802
 51
90.0
  0
ARC
  5
23B
330
1F
100
AcDbEntity
  8
0
  6
Continuous
 62
     7
370
    25
100
AcDbCircle
 10
1.8
 20
2.7
 30
0.0
 40
0.1804999999999998
100
AcDbArc
 50
168.7276290802
 51
227.9461916029
  0
ARC
  5
23C
330
1F
100
AcDbEntity
  8
0
  6
Continuous
 62
     7
370
    25
100
AcDbCircle
 10
1.6372317417
 20
2.519568589
 30
0.0
 40
0.0625000000001624
100
AcDbArc
 50
333.4881791219
 51
47.9461916029
  0
LINE
  5
23D
330
1F
100
AcDbEntity
  8
0
  6
Continuous
 62
     7
370
    25
100
AcDbLine
 10
1.0352635542
 20
1.1728162651
 30
0.0
 11
1.6931593846
 21
2.4916696864
 31
0.0
  0
SPLINE
  5
23E
330
1F
100
AcDbEntity
  8
0
  6
Continuous
 62
     7
370
    25
100
AcDbSpline
210
0.0
220
0.0
230
1.0
 70
     8
 71
     3
 72
     9
 73
     5
 74
     0
 42
0.00000001
 43
0.00000001
 40
0.0
 40
0.0
 40
0.0
 40
0.0
 40
0.4165644893502812
 40
1.0
 40
1.0
 40
1.0
 40
1.0
 10
1.012484939759036
 20
1.109864457831325
 30
0.0
 10
1.015289852802104
 20
1.118733420376614
 30
0.0
 10
1.022023295317674
 20
1.14002415151676
 30
0.0
 10
1.030385024488293
 20
1.160733623625306
 30
0.0
 10
1.035263554216868
 20
1.172816265060241
 30
0.0
  0
SPLINE
  5
23F
330
1F
100
AcDbEntity
  8
0
  6
Continuous
 62
     7
370
    25
100
AcDbSpline
210
0.0
220
0.0
230
1.0
 70
     8
 71
     3
 72
    11
 73
     7
 74
     0
 42
0.00000001
 43
0.00000001
 40
0.0
 40
0.0
 40
0.0
 40
0.0
 40
0.1299801130687095
 40
0.3342366400869514
 40
0.63051144689862
 40
1.0
 40
1.0
 40
1.0
 40
1.0
 10
1.026152108433735
 20
1.172816265060241
 30
0.0
 10
1.025780470801526
 20
1.170047216827109
 30
0.0
 10
1.024824825275555
 20
1.162926763122075
 30
0.0
 10
1.021430974351608
 20
1.149794099720551
 30
0.0
 10
1.017627426009571
 20
1.131501284325642
 30
0.0
 10
1.01432032859548
 20
1.117586790545314
 30
0.0
 10
1.012484939759036
 20
1.109864457831325
 30
0.0
  0
LINE
  5
240
330
1F
100
AcDbEntity
  8
0
  6
Continuous
 62
     7
370
    25
100
AcDbLine
 10
1.6176273546
 20
0.19
 30
0.0
 11
2.1164390144
 21
0.19
 31
0.0
  0
ARC
  5
241
330
1F
100
AcDbEntity
  8
0
  6
Continuous
 62
     7
370
    25
100
AcDbCircle
 10
1.6176273546
 20
0.2525
 30
0.0
 40
0.0625
100
AcDbArc
 50
155.9545004564
 51
270.0
  0
LINE
  5
242
330
1F
100
AcDbEntity
  8
0
  6
Continuous
 62
     7
370
    25
100
AcDbLine
 10
1.5908696545
 20
0.3459179804
 30
0.0
 11
1.5605509687
 21
0.2779663735
 31
0.0
  0
ARC
  5
243
330
1F
100
AcDbEntity
  8
0
  6
Continuous
 62
     7
370
    25
100
AcDbCircle
 10
1.6479460403
 20
0.3204516069
 30
0.0
 40
0.0624999999999999
100
AcDbArc
 50
51.2637379227
 51
155.9545004564
  0
ARC
  5
244
330
1F
100
AcDbEntity
  8
0
  6
Continuous
 62
     7
370
    25
100
AcDbCircle
 10
1.8
 20
0.51
 30
0.0
 40
0.1804999999999999
100
AcDbArc
 50
231.2637379227
 51
80.6452629901
  0
ARC
  5
245
330
1F
100
AcDbEntity
  8
0
  6
Continuous
 62
     7
370
    25
100
AcDbCircle
 10
1.839498807
 20
0.7497683137
 30
0.0
 40
0.0625000000000003
100
AcDbArc
 50
155.9545004564
 51
260.6452629901
  0
LINE
  5
246
330
1F
100
AcDbEntity
  8
0
  6
Continuous
 62
     7
370
    25
100
AcDbLine
 10
1.811352822
 20
0.8400748073
 30
0.0
 11
1.7824224212
 21
0.7752346872
 31
0.0
  0
ARC
  5
247
330
1F
100
AcDbEntity
  8
0
  6
Continuous
 62
     7
370
    25
100
AcDbCircle
 10
1.8684292078
 20
0.8146084337
 30
0.0
 40
0.0625
100
AcDbArc
 50
90.0
 51
155.9545004564
  0
LINE
  5
248
330
1F
100
AcDbEntity
  8
0
  6
Continuous
 62
     7
370
    25
100
AcDbLine
 10
2.1876784514
 20
0.8771084337
 30
0.0
 11
1.8684292078
 21
0.8771084337
 31
0.0
  0
ARC
  5
249
330
1F
100
AcDbEntity
  8
0
  6
Continuous
 62
     7
370
    25
100
AcDbCircle
 10
2.1876784514
 20
0.8146084337
 30
0.0
 40
0.0625
100
AcDbArc
 50
352.7770631662
 51
90.0
  0
LINE
  5
24A
330
1F
100
AcDbEntity
  8
0
  6
Continuous
 62
     7
370
    25
100
AcDbLine
 10
2.1784430424
 20
0.2446418506
 30
0.0
 11
2.2496824794
 21
0.8067502844
 31
0.0
  0
ARC
  5
24B
330
1F
100
AcDbEntity
  8
0
  6
Continuous
 62
     7
370
    25
100
AcDbCircle
 10
2.1164390144
 20
0.2525
 30
0.0
 40
0.0625
100
AcDbArc
 50
270.0
 51
352.7770631662
  0
LINE
  5
24C
330
1F
100
AcDbEntity
  8
0
  6
Continuous
 62
     7
370
    25
100
AcDbLine
 10
3.6757970743
 20
0.19
 30
0.0
 11
3.9116877049
 21
0.19
 31
0.0
  0
ARC
  5
24D
330
1F
100
AcDbEntity
  8
0
  6
Continuous
 62
     7
370
    25
100
AcDbCircle
 10
3.6757970743
 20
0.2525
 30
0.0
 40
0.0625
100
AcDbArc
 50
163.9024943561
 51
270.0
  0
LINE
  5
24E
330
1F
100
AcDbEntity
  8
0
  6
Continuous
 62
     7
370
    25
100
AcDbLine
 10
3.920859666
 20
1.3270877716
 30
0.0
 11
3.6157476226
 21
0.2698295516
 31
0.0
  0
ARC
  5
24F
330
1F
100
AcDbEntity
  8
0
  6
Continuous
 62
     7
370
    25
100
AcDbCircle
 10
3.9508843918
 20
1.3184229958
 30
0.0
 40
0.0312500000000002
100
AcDbArc
 50
7.536562059
 51
163.9024943561
  0
LINE
  5
250
330
1F
100
AcDbEntity
  8
0
  6
Continuous
 62
     7
370
    25
100
AcDbLine
 10
4.088379891
 20
0.5174268121
 30
0.0
 11
3.9818644346
 21
1.3225217094
 31
0.0
  0
ARC
  5
251
330
1F
100
AcDbEntity
  8
0
  6
Continuous
 62
     7
370
    25
100
AcDbCircle
 10
4.0264198055
 20
0.509229385
 30
0.0
 40
0.0625000000001685
100
AcDbArc
 50
300.5679909276
 51
7.536562059
  0
ARC
  5
252
330
1F
100
AcDbEntity
  8
0
  6
Continuous
 62
     7
370
    25
100
AcDbCircle
 10
4.15
 20
0.3
 30
0.0
 40
0.1805
100
AcDbArc
 50
120.5679909276
 51
191.2723709198
  0
ARC
  5
253
330
1F
100
AcDbEntity
  8
0
  6
Continuous
 62
     7
370
    25
100
AcDbCircle
 10
3.9116877049
 20
0.2525
 30
0.0
 40
0.0625000000000181
100
AcDbArc
 50
270.0
 51
11.2723709198
  0
LINE
  5
254
330
1F
100
AcDbEntity
  8
0
  6
Continuous
 62
     7
370
    25
100
AcDbLine
 10
4.7118668594
 20
2.81
 30
0.0
 11
4.3883122951
 21
2.81
 31
0.0
  0
ARC
  5
255
330
1F
100
AcDbEntity
  8
0
  6
Continuous
 62
     7
370
    25
100
AcDbCircle
 10
4.7118668594
 20
2.7475
 30
0.0
 40
0.0625000000000004
100
AcDbArc
 50
325.1747983153
 51
90.0
  0
LINE
  5
256
330
1F
100
AcDbEntity
  8
0
  6
Continuous
 62
     7
370
    25
100
AcDbLine
 10
4.1146915459
 20
1.7796404833
 30
0.0
 11
4.7631729906
 21
2.7118078314
 31
0.0
  0
ARC
  5
257
330
1F
100
AcDbEntity
  8
0
  6
Continuous
 62
     7
370
    25
100
AcDbCircle
 10
4.0890384803
 20
1.7974865676
 30
0.0
 40
0.0312499999999997
100
AcDbArc
 50
163.9230005793
 51
325.1747983153
  0
LINE
  5
258
330
1F
100
AcDbEntity
  8
0
  6
Continuous
 62
     7
370
    25
100
AcDbLine
 10
4.2768569265
 20
2.5620254495
 30
0.0
 11
4.0590106553
 21
1.8061405969
 31
0.0
  0
ARC
  5
259
330
1F
100
AcDbEntity
  8
0
  6
Continuous
 62
     7
370
    25
100
AcDbCircle
 10
4.3369125765
 20
2.5447173907
 30
0.0
 40
0.0625000000000003
100
AcDbArc
 50
140.2809881943
 51
163.9230005793
  0
ARC
  5
25A
330
1F
100
AcDbEntity
  8
0
  6
Continuous
 62
     7
370
    25
100
AcDbCircle
 10
4.15
 20
2.7
 30
0.0
 40
0.1804999999999995
100
AcDbArc
 50
320.2809881943
 51
11.2723709198
  0
ARC
  5
25B
330
1F
100
AcDbEntity
  8
0
  6
Continuous
 62
     7
370
    25
100
AcDbCircle
 10
4.3883122951
 20
2.7475
 30
0.0
 40
0.0625
100
AcDbArc
 50
90.0
 51
191.2723709198
  0
LINE
  5
25C
330
1F
100
AcDbEntity
  8
0
  6
Continuous
 62
     7
370
    25
100
AcDbLine
 10
6.6151320325
 20
2.5957573103
 30
0.0
 11
6.0508541197
 21
0.6388526275
 31
0.0
  0
ARC
  5
25D
330
1F
100
AcDbEntity
  8
0
  6
Continuous
 62
     7
370
    25
100
AcDbCircle
 10
6.5851054217
 20
2.6044155517
 30
0.0
 40
0.0312500000000009
100
AcDbArc
 50
343.9149633681
 51
0.0
  0
LINE
  5
25E
330
1F
100
AcDbEntity
  8
0
  6
Continuous
 62
     7
370
    25
100
AcDbLine
 10
6.6163554217
 20
2.6044155517
 30
0.0
 11
6.6163554217
 21
2.7475
 31
0.0
  0
ARC
  5
25F
330
1F
100
AcDbEntity
  8
0
  6
Continuous
 62
     7
370
    25
100
AcDbCircle
 10
6.6788554217
 20
2.7475
 30
0.0
 40
0.0625000000000004
100
AcDbArc
 50
90.0
 51
180.0
  0
LINE
  5
260
330
1F
100
AcDbEntity
  8
0
  6
Continuous
 62
     7
370
    25
100
AcDbLine
 10
6.9779518072
 20
2.81
 30
0.0
 11
6.6788554217
 21
2.81
 31
0.0
  0
ARC
  5
261
330
1F
100
AcDbEntity
  8
0
  6
Continuous
 62
     7
370
    25
100
AcDbCircle
 10
6.9779518072
 20
2.7475
 30
0.0
 40
0.0625000000000004
100
AcDbArc
 50
0.0
 51
90.0
  0
LINE
  5
262
330
1F
100
AcDbEntity
  8
0
  6
Continuous
 62
     7
370
    25
100
AcDbLine
 10
7.0404518072
 20
2.7475
 30
0.0
 11
7.0404518072
 21
2.6088311035
 31
0.0
  0
ARC
  5
263
330
1F
100
AcDbEntity
  8
0
  6
Continuous
 62
     7
370
    25
100
AcDbCircle
 10
6.9779518072
 20
2.6088311035
 30
0.0
 40
0.0625
100
AcDbArc
 50
343.9149633681
 51
0.0
  0
LINE
  5
264
330
1F
100
AcDbEntity
  8
0
  6
Continuous
 62
     7
370
    25
100
AcDbLine
 10
6.4649640108
 20
0.6042196617
 30
0.0
 11
7.0380050288
 21
2.5915146206
 31
0.0
  0
ARC
  5
265
330
1F
100
AcDbEntity
  8
0
  6
Continuous
 62
     7
370
    25
100
AcDbCircle
 10
6.4049107892
 20
0.6215361446
 30
0.0
 40
0.0625
100
AcDbArc
 50
270.0
 51
343.9149633681
  0
LINE
  5
266
330
1F
100
AcDbEntity
  8
0
  6
Continuous
 62
     7
370
    25
100
AcDbLine
 10
6.1109073412
 20
0.5590361446
 30
0.0
 11
6.4049107892
 21
0.5590361446
 31
0.0
  0
ARC
  5
267
330
1F
100
AcDbEntity
  8
0
  6
Continuous
 62
     7
370
    25
100
AcDbCircle
 10
6.1109073412
 20
0.6215361446
 30
0.0
 40
0.0625
100
AcDbArc
 50
163.9149633681
 51
270.0
  0
LINE
  5
268
330
1F
100
AcDbEntity
  8
0
  6
Continuous
 62
     7
370
    25
100
AcDbLine
 10
11.4017104723
 20
1.6558414769
 30
0.0
 11
11.5703665977
 21
1.7651937208
 31
0.0
  0
ARC
  5
269
330
1F
100
AcDbEntity
  8
0
  6
Continuous
 62
     7
370
    25
100
AcDbCircle
 10
11.3677086672
 20
1.7082831325
 30
0.0
 40
0.0625
100
AcDbArc
 50
270.0
 51
302.9583258333
  0
LINE
  5
26A
330
1F
100
AcDbEntity
  8
0
  6
Continuous
 62
     7
370
    25
100
AcDbLine
 10
11.2153613116
 20
1.6457831325
 30
0.0
 11
11.3677086672
 21
1.6457831325
 31
0.0
  0
ARC
  5
26B
330
1F
100
AcDbEntity
  8
0
  6
Continuous
 62
     7
370
    25
100
AcDbCircle
 10
11.2153613116
 20
1.7082831325
 30
0.0
 40
0.0625
100
AcDbArc
 50
163.9324972329
 51
270.0
  0
LINE
  5
26C
330
1F
100
AcDbEntity
  8
0
  6
Continuous
 62
     7
370
    25
100
AcDbLine
 10
11.3483288039
 20
2.3957619598
 30
0.0
 11
11.1553027936
 21
1.7255812369
 31
0.0
  0
ARC
  5
26D
330
1F
100
AcDbEntity
  8
0
  6
Continuous
 62
     7
370
    25
100
AcDbCircle
 10
11.4083873219
 20
2.3784638554
 30
0.0
 40
0.0624999999999996
100
AcDbArc
 50
90.0
 51
163.9324972329
  0
LINE
  5
26E
330
1F
100
AcDbEntity
  8
0
  6
Continuous
 62
     7
370
    25
100
AcDbLine
 10
11.6978525681
 20
2.4409638554
 30
0.0
 11
11.4083873219
 21
2.4409638554
 31
0.0
  0
ARC
  5
26F
330
1F
100
AcDbEntity
  8
0
  6
Continuous
 62
     7
370
    25
100
AcDbCircle
 10
11.6978525681
 20
2.3784638554
 30
0.0
 40
0.0625000000000013
100
AcDbArc
 50
343.9365075982
 51
90.0
  0
LINE
  5
270
330
1F
100
AcDbEntity
  8
0
  6
Continuous
 62
     7
370
    25
100
AcDbLine
 10
11.5964245211
 20
1.8003414758
 30
0.0
 11
11.7579122968
 21
2.3611699548
 31
0.0
  0
ARC
  5
271
330
1F
100
AcDbEntity
  8
0
  6
Continuous
 62
     7
370
    25
100
AcDbCircle
 10
11.5363647925
 20
1.8176353764
 30
0.0
 40
0.0625000000000016
100
AcDbArc
 50
302.9583258333
 51
343.9365075982
  0
LINE
  5
272
330
1F
100
AcDbEntity
  8
0
  6
Continuous
 62
     7
370
    25
100
AcDbLine
 10
10.901874436
 20
0.5590361446
 30
0.0
 11
11.1958768577
 21
0.5590361446
 31
0.0
  0
ARC
  5
273
330
1F
100
AcDbEntity
  8
0
  6
Continuous
 62
     7
370
    25
100
AcDbCircle
 10
10.901874436
 20
0.6215361446
 30
0.0
 40
0.0625
100
AcDbArc
 50
163.9128165768
 51
270.0
  0
LINE
  5
274
330
1F
100
AcDbEntity
  8
0
  6
Continuous
 62
     7
370
    25
100
AcDbLine
 10
11.0733179369
 20
1.441565721
 30
0.0
 11
10.8418218633
 21
0.6388548776
 31
0.0
  0
ARC
  5
275
330
1F
100
AcDbEntity
  8
0
  6
Continuous
 62
     7
370
    25
100
AcDbCircle
 10
11.1333705096
 20
1.424246988
 30
0.0
 40
0.0625
100
AcDbArc
 50
90.0
 51
163.9128165768
  0
LINE
  5
276
330
1F
100
AcDbEntity
  8
0
  6
Continuous
 62
     7
370
    25
100
AcDbLine
 10
11.3159562644
 20
1.486746988
 30
0.0
 11
11.1333705096
 21
1.486746988
 31
0.0
  0
ARC
  5
277
330
1F
100
AcDbEntity
  8
0
  6
Continuous
 62
     7
370
    25
100
AcDbCircle
 10
11.3159562644
 20
1.424246988
 30
0.0
 40
0.0625000000000003
100
AcDbArc
 50
43.6510551143
 51
90.0
  0
LINE
  5
278
330
1F
100
AcDbEntity
  8
0
  6
Continuous
 62
     7
370
    25
100
AcDbLine
 10
11.4467367796
 20
1.3777037236
 30
0.0
 11
11.3611785812
 21
1.4673885233
 31
0.0
  0
ARC
  5
279
330
1F
100
AcDbEntity
  8
0
  6
Continuous
 62
     7
370
    25
100
AcDbCircle
 10
11.4015144628
 20
1.3345621883
 30
0.0
 40
0.0625000000000012
100
AcDbArc
 50
343.9123724189
 51
43.6510551143
  0
LINE
  5
27A
330
1F
100
AcDbEntity
  8
0
  6
Continuous
 62
     7
370
    25
100
AcDbLine
 10
11.2559292962
 20
0.604216946
 30
0.0
 11
11.4615669013
 21
1.3172429898
 31
0.0
  0
ARC
  5
27B
330
1F
100
AcDbEntity
  8
0
  6
Continuous
 62
     7
370
    25
100
AcDbCircle
 10
11.1958768577
 20
0.6215361446
 30
0.0
 40
0.0625
100
AcDbArc
 50
270.0
 51
343.9123724189
  0
LINE
  5
27C
330
1F
100
AcDbEntity
  8
0
  6
Continuous
 62
     7
370
    25
100
AcDbLine
 10
10.2616569699
 20
1.6192771084
 30
0.0
 11
10.4956165502
 21
1.6192771084
 31
0.0
  0
ARC
  5
27D
330
1F
100
AcDbEntity
  8
0
  6
Continuous
 62
     7
370
    25
100
AcDbCircle
 10
10.2616569699
 20
1.5880271084
 30
0.0
 40
0.0312500000000005
100
AcDbArc
 50
90.0
 51
139.2006222046
  0
LINE
  5
27E
330
1F
100
AcDbEntity
  8
0
  6
Continuous
 62
     7
370
    25
100
AcDbLine
 10
10.2210230553
 20
1.5887770777
 30
0.0
 11
10.2380006527
 21
1.6084462454
 31
0.0
  0
ARC
  5
27F
330
1F
100
AcDbEntity
  8
0
  6
Continuous
 62
     7
370
    25
100
AcDbCircle
 10
10.2446793725
 20
1.5683579407
 30
0.0
 40
0.0312500000000019
100
AcDbArc
 50
139.2006222046
 51
180.2011075613
  0
LINE
  5
280
330
1F
100
AcDbEntity
  8
0
  6
Continuous
 62
     7
370
    25
100
AcDbLine
 10
10.218047076
 20
0.2527193739
 30
0.0
 11
10.213429565
 21
1.5682482538
 31
0.0
  0
ARC
  5
281
330
1F
100
AcDbEntity
  8
0
  6
Continuous
 62
     7
370
    25
100
AcDbCircle
 10
10.155547461
 20
0.2525
 30
0.0
 40
0.0625000000000002
100
AcDbArc
 50
270.0
 51
0.2011075613
  0
LINE
  5
282
330
1F
100
AcDbEntity
  8
0
  6
Continuous
 62
     7
370
    25
100
AcDbLine
 10
9.7894422194
 20
0.19
 30
0.0
 11
10.155547461
 21
0.19
 31
0.0
  0
ARC
  5
283
330
1F
100
AcDbEntity
  8
0
  6
Continuous
 62
     7
370
    25
100
AcDbCircle
 10
9.7894422194
 20
0.2525
 30
0.0
 40
0.0625000000000006
100
AcDbArc
 50
163.9149633681
 51
270.0
  0
LINE
  5
284
330
1F
100
AcDbEntity
  8
0
  6
Continuous
 62
     7
370
    25
100
AcDbLine
 10
9.7293889978
 20
0.2698164829
 30
0.0
 11
10.3424155073
 21
2.3957803383
 31
0.0
  0
ARC
  5
285
330
1F
100
AcDbEntity
  8
0
  6
Continuous
 62
     7
370
    25
100
AcDbCircle
 10
10.4024687288
 20
2.3784638554
 30
0.0
 40
0.0624999999999996
100
AcDbArc
 50
90.0
 51
163.9149633681
  0
LINE
  5
286
330
1F
100
AcDbEntity
  8
0
  6
Continuous
 62
     7
370
    25
100
AcDbLine
 10
10.6964758341
 20
2.4409638554
 30
0.0
 11
10.4024687288
 21
2.4409638554
 31
0.0
  0
ARC
  5
287
330
1F
100
AcDbEntity
  8
0
  6
Continuous
 62
     7
370
    25
100
AcDbCircle
 10
10.6964758341
 20
2.3784638554
 30
0.0
 40
0.0624999999999996
100
AcDbArc
 50
343.9173872205
 51
90.0
  0
LINE
  5
288
330
1F
100
AcDbEntity
  8
0
  6
Continuous
 62
     7
370
    25
100
AcDbLine
 10
10.5556705042
 20
1.664463166
 30
0.0
 11
10.7565297881
 21
2.361149913
 31
0.0
  0
ARC
  5
289
330
1F
100
AcDbEntity
  8
0
  6
Continuous
 62
     7
370
    25
100
AcDbCircle
 10
10.4956165502
 20
1.6817771084
 30
0.0
 40
0.0624999999999998
100
AcDbArc
 50
270.0
 51
343.9173872205
  0
LINE
  5
28A
330
1F
100
AcDbEntity
  8
0
  6
Continuous
 62
     7
370
    25
100
AcDbLine
 10
13.1203316687
 20
1.6192771084
 30
0.0
 11
13.354291249
 21
1.6192771084
 31
0.0
  0
ARC
  5
28B
330
1F
100
AcDbEntity
  8
0
  6
Continuous
 62
     7
370
    25
100
AcDbCircle
 10
13.1203316687
 20
1.5880271084
 30
0.0
 40
0.0312500000000002
100
AcDbArc
 50
90.0
 51
139.2006222046
  0
LINE
  5
28C
330
1F
100
AcDbEntity
  8
0
  6
Continuous
 62
     7
370
    25
100
AcDbLine
 10
13.0796977541
 20
1.5887770777
 30
0.0
 11
13.0966753515
 21
1.6084462454
 31
0.0
  0
ARC
  5
28D
330
1F
100
AcDbEntity
  8
0
  6
Continuous
 62
     7
370
    25
100
AcDbCircle
 10
13.1033540713
 20
1.5683579407
 30
0.0
 40
0.0312500000000019
100
AcDbArc
 50
139.2006222046
 51
180.2011075613
  0
LINE
  5
28E
330
1F
100
AcDbEntity
  8
0
  6
Continuous
 62
     7
370
    25
100
AcDbLine
 10
13.0767217748
 20
0.2527193739
 30
0.0
 11
13.0721042638
 21
1.5682482538
 31
0.0
  0
ARC
  5
28F
330
1F
100
AcDbEntity
  8
0
  6
Continuous
 62
     7
370
    25
100
AcDbCircle
 10
13.0142221598
 20
0.2525
 30
0.0
 40
0.0625000000000002
100
AcDbArc
 50
270.0
 51
0.2011075613
  0
LINE
  5
290
330
1F
100
AcDbEntity
  8
0
  6
Continuous
 62
     7
370
    25
100
AcDbLine
 10
12.6481169182
 20
0.19
 30
0.0
 11
13.0142221598
 21
0.19
 31
0.0
  0
ARC
  5
291
330
1F
100
AcDbEntity
  8
0
  6
Continuous
 62
     7
370
    25
100
AcDbCircle
 10
12.6481169182
 20
0.2525
 30
0.0
 40
0.0625
100
AcDbArc
 50
163.9149633681
 51
270.0
  0
LINE
  5
292
330
1F
100
AcDbEntity
  8
0
  6
Continuous
 62
     7
370
    25
100
AcDbLine
 10
13.2010902061
 20
2.3957803383
 30
0.0
 11
12.5880636966
 21
0.2698164829
 31
0.0
  0
ARC
  5
293
330
1F
100
AcDbEntity
  8
0
  6
Continuous
 62
     7
370
    25
100
AcDbCircle
 10
13.2611434276
 20
2.3784638554
 30
0.0
 40
0.0625000000000014
100
AcDbArc
 50
90.0
 51
163.9149633681
  0
LINE
  5
294
330
1F
100
AcDbEntity
  8
0
  6
Continuous
 62
     7
370
    25
100
AcDbLine
 10
13.5551505329
 20
2.4409638554
 30
0.0
 11
13.2611434276
 21
2.4409638554
 31
0.0
  0
ARC
  5
295
330
1F
100
AcDbEntity
  8
0
  6
Continuous
 62
     7
370
    25
100
AcDbCircle
 10
13.5551505329
 20
2.3784638554
 30
0.0
 40
0.0624999999999996
100
AcDbArc
 50
343.9173872205
 51
90.0
  0
LINE
  5
296
330
1F
100
AcDbEntity
  8
0
  6
Continuous
 62
     7
370
    25
100
AcDbLine
 10
13.414345203
 20
1.664463166
 30
0.0
 11
13.6152044869
 21
2.361149913
 31
0.0
  0
ARC
  5
297
330
1F
100
AcDbEntity
  8
0
  6
Continuous
 62
     7
370
    25
100
AcDbCircle
 10
13.354291249
 20
1.6817771084
 30
0.0
 40
0.0624999999999998
100
AcDbArc
 50
270.0
 51
343.9173872205
  0
LINE
  5
298
330
1F
100
AcDbEntity
  8
0
  6
Continuous
 62
     7
370
    25
100
AcDbLine
 10
14.6346819112
 20
1.9373493976
 30
0.0
 11
14.5406775183
 21
1.9373493976
 31
0.0
  0
ARC
  5
299
330
1F
100
AcDbEntity
  8
0
  6
Continuous
 62
     7
370
    25
100
AcDbCircle
 10
14.6346819112
 20
1.9685993976
 30
0.0
 40
0.0312500000000006
100
AcDbArc
 50
270.0
 51
343.92939499
  0
LINE
  5
29A
330
1F
100
AcDbEntity
  8
0
  6
Continuous
 62
     7
370
    25
100
AcDbLine
 10
14.7339656628
 20
2.2003509975
 30
0.0
 11
14.6647107019
 21
1.9599487195
 31
0.0
  0
ARC
  5
29B
330
1F
100
AcDbEntity
  8
0
  6
Continuous
 62
     7
370
    25
100
AcDbCircle
 10
14.7940232441
 20
2.1830496413
 30
0.0
 40
0.0624999999999998
100
AcDbArc
 50
83.1721415991
 51
163.92939499
  0
ARC
  5
29C
330
1F
100
AcDbEntity
  8
0
  6
Continuous
 62
     7
370
    25
100
AcDbCircle
 10
14.82
 20
2.4
 30
0.0
 40
0.1560000000000001
100
AcDbArc
 50
263.1721415991
 51
293.6067924996
  0
ARC
  5
29D
330
1F
100
AcDbEntity
  8
0
  6
Continuous
 62
     7
370
    25
100
AcDbCircle
 10
14.9075
 20
2.1997851154
 30
0.0
 40
0.0625000000001741
100
AcDbArc
 50
0.0
 51
113.6067924996
  0
LINE
  5
29E
330
1F
100
AcDbEntity
  8
0
  6
Continuous
 62
     7
370
    25
100
AcDbLine
 10
14.97
 20
2.1997851154
 30
0.0
 11
14.97
 21
1.1628012048
 31
0.0
  0
ARC
  5
29F
330
1F
100
AcDbEntity
  8
0
  6
Continuous
 62
     7
370
    25
100
AcDbCircle
 10
14.9075
 20
1.1628012048
 30
0.0
 40
0.0625
100
AcDbArc
 50
270.0
 51
0.0
  0
LINE
  5
2A0
330
1F
100
AcDbEntity
  8
0
  6
Continuous
 62
     7
370
    25
100
AcDbLine
 10
14.4996110774
 20
1.1003012048
 30
0.0
 11
14.9075
 21
1.1003012048
 31
0.0
  0
ARC
  5
2A1
330
1F
100
AcDbEntity
  8
0
  6
Continuous
 62
     7
370
    25
100
AcDbCircle
 10
14.4996110774
 20
1.1628012048
 30
0.0
 40
0.0625000000000013
100
AcDbArc
 50
163.91627241
 51
270.0
  0
LINE
  5
2A2
330
1F
100
AcDbEntity
  8
0
  6
Continuous
 62
     7
370
    25
100
AcDbLine
 10
14.524103493
 20
1.4733454566
 30
0.0
 11
14.4395574602
 21
1.1801163157
 31
0.0
  0
ARC
  5
2A3
330
1F
100
AcDbEntity
  8
0
  6
Continuous
 62
     7
370
    25
100
AcDbCircle
 10
14.4940766844
 20
1.482003012
 30
0.0
 40
0.03125
100
AcDbArc
 50
343.91627241
 51
90.0
  0
LINE
  5
2A4
330
1F
100
AcDbEntity
  8
0
  6
Continuous
 62
     7
370
    25
100
AcDbLine
 10
14.18802179
 20
1.513253012
 30
0.0
 11
14.4940766844
 21
1.513253012
 31
0.0
  0
ARC
  5
2A5
330
1F
100
AcDbEntity
  8
0
  6
Continuous
 62
     7
370
    25
100
AcDbCircle
 10
14.18802179
 20
1.482003012
 30
0.0
 40
0.03125
100
AcDbArc
 50
90.0
 51
163.8774012223
  0
LINE
  5
2A6
330
1F
100
AcDbEntity
  8
0
  6
Continuous
 62
     7
370
    25
100
AcDbLine
 10
14.1300958826
 20
1.394144792
 30
0.0
 11
14.1580008618
 21
1.4906809366
 31
0.0
  0
ARC
  5
2A7
330
1F
100
AcDbEntity
  8
0
  6
Continuous
 62
     7
370
    25
100
AcDbCircle
 10
14.1601168107
 20
1.3854668675
 30
0.0
 40
0.0312500000000009
100
AcDbArc
 50
163.8774012223
 51
270.0
  0
LINE
  5
2A8
330
1F
100
AcDbEntity
  8
0
  6
Continuous
 62
     7
370
    25
100
AcDbLine
 10
14.2475603751
 20
1.3542168675
 30
0.0
 11
14.1601168107
 21
1.3542168675
 31
0.0
  0
ARC
  5
2A9
330
1F
100
AcDbEntity
  8
0
  6
Continuous
 62
     7
370
    25
100
AcDbCircle
 10
14.2475603751
 20
1.2917168675
 30
0.0
 40
0.0625
100
AcDbArc
 50
343.9324972329
 51
90.0
  0
LINE
  5
2AA
330
1F
100
AcDbEntity
  8
0
  6
Continuous
 62
     7
370
    25
100
AcDbLine
 10
14.1145928828
 20
0.6042380402
 30
0.0
 11
14.3076188931
 21
1.2744187631
 31
0.0
  0
ARC
  5
2AB
330
1F
100
AcDbEntity
  8
0
  6
Continuous
 62
     7
370
    25
100
AcDbCircle
 10
14.0545343648
 20
0.6215361446
 30
0.0
 40
0.0625
100
AcDbArc
 50
270.0
 51
343.9324972329
  0
LINE
  5
2AC
330
1F
100
AcDbEntity
  8
0
  6
Continuous
 62
     7
370
    25
100
AcDbLine
 10
13.760541105
 20
0.5590361446
 30
0.0
 11
14.0545343648
 21
0.5590361446
 31
0.0
  0
ARC
  5
2AD
330
1F
100
AcDbEntity
  8
0
  6
Continuous
 62
     7
370
    25
100
AcDbCircle
 10
13.760541105
 20
0.6215361446
 30
0.0
 40
0.0625000000000003
100
AcDbArc
 50
163.9181382853
 51
270.0
  0
LINE
  5
2AE
330
1F
100
AcDbEntity
  8
0
  6
Continuous
 62
     7
370
    25
100
AcDbLine
 10
14.206995573
 20
2.3957770106
 30
0.0
 11
13.700486924
 21
0.6388492998
 31
0.0
  0
ARC
  5
2AF
330
1F
100
AcDbEntity
  8
0
  6
Continuous
 62
     7
370
    25
100
AcDbCircle
 10
14.2670497541
 20
2.3784638554
 30
0.0
 40
0.0625000000000007
100
AcDbArc
 50
90.0
 51
163.9181382853
  0
LINE
  5
2B0
330
1F
100
AcDbEntity
  8
0
  6
Continuous
 62
     7
370
    25
100
AcDbLine
 10
14.5610922525
 20
2.4409638554
 30
0.0
 11
14.2670497541
 21
2.4409638554
 31
0.0
  0
ARC
  5
2B1
330
1F
100
AcDbEntity
  8
0
  6
Continuous
 62
     7
370
    25
100
AcDbCircle
 10
14.5610922525
 20
2.3784638554
 30
0.0
 40
0.0625000000000001
100
AcDbArc
 50
343.9426498309
 51
90.0
  0
LINE
  5
2B2
330
1F
100
AcDbEntity
  8
0
  6
Continuous
 62
     7
370
    25
100
AcDbLine
 10
14.5106467272
 20
1.9772431286
 30
0.0
 11
14.6211538347
 21
2.3611763934
 31
0.0
  0
ARC
  5
2B3
330
1F
100
AcDbEntity
  8
0
  6
Continuous
 62
     7
370
    25
100
AcDbCircle
 10
14.5406775183
 20
1.9685993976
 30
0.0
 40
0.0312500000000002
100
AcDbArc
 50
163.9426498309
 51
270.0
  0
LINE
  5
2B4
330
1F
100
AcDbEntity
  8
0
  6
Continuous
 62
     7
370
    25
100
AcDbLine
 10
3.4361524319
 20
1.664463166
 30
0.0
 11
3.6370117158
 21
2.361149913
 31
0.0
  0
ARC
  5
2B5
330
1F
100
AcDbEntity
  8
0
  6
Continuous
 62
     7
370
    25
100
AcDbCircle
 10
3.3760984779
 20
1.6817771084
 30
0.0
 40
0.0625
100
AcDbArc
 50
270.0
 51
343.9173872205
  0
LINE
  5
2B6
330
1F
100
AcDbEntity
  8
0
  6
Continuous
 62
     7
370
    25
100
AcDbLine
 10
3.0820594497
 20
1.6192771084
 30
0.0
 11
3.3760984779
 21
1.6192771084
 31
0.0
  0
ARC
  5
2B7
330
1F
100
AcDbEntity
  8
0
  6
Continuous
 62
     7
370
    25
100
AcDbCircle
 10
3.0820594497
 20
1.6817771084
 30
0.0
 40
0.0624999999999998
100
AcDbArc
 50
163.9149633681
 51
270.0
  0
LINE
  5
2B8
330
1F
100
AcDbEntity
  8
0
  6
Continuous
 62
     7
370
    25
100
AcDbLine
 10
3.0220062281
 20
1.6990935914
 30
0.0
 11
3.222897435
 21
2.3957803383
 31
0.0
  0
ARC
  5
2B9
330
1F
100
AcDbEntity
  8
0
  6
Continuous
 62
     7
370
    25
100
AcDbCircle
 10
3.2829506565
 20
2.3784638554
 30
0.0
 40
0.0624999999999996
100
AcDbArc
 50
90.0
 51
163.9149633681
  0
LINE
  5
2BA
330
1F
100
AcDbEntity
  8
0
  6
Continuous
 62
     7
370
    25
100
AcDbLine
 10
3.5769577618
 20
2.4409638554
 30
0.0
 11
3.2829506565
 21
2.4409638554
 31
0.0
  0
ARC
  5
2BB
330
1F
100
AcDbEntity
  8
0
  6
Continuous
 62
     7
370
    25
100
AcDbCircle
 10
3.5769577618
 20
2.3784638554
 30
0.0
 40
0.0625000000000001
100
AcDbArc
 50
343.9173872205
 51
90.0
  0
SPLINE
  5
2BC
330
1F
100
AcDbEntity
  8
0
  6
Continuous
 62
     7
370
    25
100
AcDbSpline
210
0.0
220
0.0
230
1.0
 70
     8
 71
     3
 72
     9
 73
     5
 74
     0
 42
0.00000001
 43
0.00000001
 40
0.011622737513893
 40
0.011622737513893
 40
0.011622737513893
 40
0.011622737513893
 40
0.2161515791861245
 40
0.346485101353753
 40
0.346485101353753
 40
0.346485101353753
 40
0.346485101353753
 10
3.354022700057289
 20
1.460254492074043
 30
0.0
 10
3.347097507908369
 20
1.460334142835176
 30
0.0
 10
3.33575978916752
 20
1.460477401384173
 30
0.0
 10
3.324436322014456
 20
1.461011959223887
 30
0.0
 10
3.320030354712149
 20
1.461254670803294
 30
0.0
  0
ARC
  5
2BD
330
1F
100
AcDbEntity
  8
0
  6
Continuous
 62
     7
370
    25
100
AcDbCircle
 10
3.3547415023
 20
1.5227503585
 30
0.0
 40
0.0625000000000004
100
AcDbArc
 50
269.3410361577
 51
271.5057559902
  0
SPLINE
  5
2BE
330
1F
100
AcDbEntity
  8
0
  6
Continuous
 62
     7
370
    25
100
AcDbSpline
210
0.0
220
0.0
230
1.0
 70
     8
 71
     3
 72
    11
 73
     7
 74
     0
 42
0.00000001
 43
0.00000001
 40
0.5750516825582488
 40
0.5750516825582488
 40
0.5750516825582488
 40
0.5750516825582488
 40
0.605696539890459
 40
0.7272798813732235
 40
0.8580022116237538
 40
0.9961209287713653
 40
0.9961209287713653
 40
0.9961209287713653
 40
0.9961209287713653
 10
3.480350626644259
 20
1.487131755212261
 30
0.0
 10
3.47760006798716
 20
1.485689799128825
 30
0.0
 10
3.463762367036344
 20
1.478873581815631
 30
0.0
 10
3.436515107422638
 20
1.469603068849536
 30
0.0
 10
3.397660084229612
 20
1.461425150948608
 30
0.0
 10
3.37039507754802
 20
1.46064024615604
 30
0.0
 10
3.356383838174807
 20
1.460271940388993
 30
0.0
  0
ARC
  5
2BF
330
1F
100
AcDbEntity
  8
0
  6
Continuous
 62
     7
370
    25
100
AcDbCircle
 10
3.5093698113
 20
1.4317771084
 30
0.0
 40
0.0625000000000002
100
AcDbArc
 50
90.0
 51
117.6653785872
  0
LINE
  5
2C0
330
1F
100
AcDbEntity
  8
0
  6
Continuous
 62
     7
370
    25
100
AcDbLine
 10
3.5093698113
 20
1.4942771084
 30
0.0
 11
3.7267979979
 21
1.4942771084
 31
0.0
  0
ARC
  5
2C1
330
1F
100
AcDbEntity
  8
0
  6
Continuous
 62
     7
370
    25
100
AcDbCircle
 10
3.7267979979
 20
1.4317771084
 30
0.0
 40
0.0625000000000005
100
AcDbArc
 50
343.9122475556
 51
90.0
  0
LINE
  5
2C2
330
1F
100
AcDbEntity
  8
0
  6
Continuous
 62
     7
370
    25
100
AcDbLine
 10
3.4467426181
 20
0.2351806706
 30
0.0
 11
3.7868503986
 21
1.414457779
 31
0.0
  0
ARC
  5
2C3
330
1F
100
AcDbEntity
  8
0
  6
Continuous
 62
     7
370
    25
100
AcDbCircle
 10
3.3866902174
 20
0.2525
 30
0.0
 40
0.0625
100
AcDbArc
 50
270.0
 51
343.9122475556
  0
LINE
  5
2C4
330
1F
100
AcDbEntity
  8
0
  6
Continuous
 62
     7
370
    25
100
AcDbLine
 10
3.3196621058
 20
0.19
 30
0.0
 11
3.3866902174
 21
0.19
 31
0.0
  0
ARC
  5
2C5
330
1F
100
AcDbEntity
  8
0
  6
Continuous
 62
     7
370
    25
100
AcDbCircle
 10
3.3196621058
 20
0.2525
 30
0.0
 40
0.0625
100
AcDbArc
 50
180.0442418105
 51
270.0
  0
LINE
  5
2C6
330
1F
100
AcDbEntity
  8
0
  6
Continuous
 62
     7
370
    25
100
AcDbLine
 10
3.2571621244
 20
0.2524517397
 30
0.0
 11
3.2570481928
 21
0.4
 31
0.0
  0
SPLINE
  5
2C7
330
1F
100
AcDbEntity
  8
0
  6
Continuous
 62
     7
370
    25
100
AcDbSpline
210
0.0
220
0.0
230
1.0
 70
     8
 71
     3
 72
     9
 73
     5
 74
     0
 42
0.00000001
 43
0.00000001
 40
0.061887965867446
 40
0.061887965867446
 40
0.061887965867446
 40
0.061887965867446
 40
0.4992242217353127
 40
1.0
 40
1.0
 40
1.0
 40
1.0
 10
3.254093546460457
 20
1.398510538794445
 30
0.0
 10
3.254934536928696
 20
1.243347297178286
 30
0.0
 10
3.256653992490709
 20
0.9105127393028865
 30
0.0
 10
3.256910999342593
 20
0.5776736255153303
 30
0.0
 10
3.257048192771084
 20
0.4
 30
0.0
  0
ARC
  5
2C8
330
1F
100
AcDbEntity
  8
0
  6
Continuous
 62
     7
370
    25
100
AcDbCircle
 10
3.3165926285
 20
1.3988492861
 30
0.0
 40
0.0625
100
AcDbArc
 50
86.8469334648
 51
180.3105421884
  0
LINE
  5
2C9
330
1F
100
AcDbEntity
  8
0
  6
Continuous
 62
     7
370
    25
100
AcDbLine
 10
2.6699241471
 20
0.19
 30
0.0
 11
3.0360293887
 21
0.19
 31
0.0
  0
ARC
  5
2CA
330
1F
100
AcDbEntity
  8
0
  6
Continuous
 62
     7
370
    25
100
AcDbCircle
 10
2.6699241471
 20
0.2525
 30
0.0
 40
0.0625
100
AcDbArc
 50
163.9149633681
 51
270.0
  0
LINE
  5
2CB
330
1F
100
AcDbEntity
  8
0
  6
Continuous
 62
     7
370
    25
100
AcDbLine
 10
2.6098709255
 20
0.2698164829
 30
0.0
 11
2.9499181599
 21
1.4490935914
 31
0.0
  0
ARC
  5
2CC
330
1F
100
AcDbEntity
  8
0
  6
Continuous
 62
     7
370
    25
100
AcDbCircle
 10
3.0099713815
 20
1.4317771084
 30
0.0
 40
0.0625000000000001
100
AcDbArc
 50
90.0
 51
163.9149633681
  0
LINE
  5
2CD
330
1F
100
AcDbEntity
  8
0
  6
Continuous
 62
     7
370
    25
100
AcDbLine
 10
3.0099713815
 20
1.4942771084
 30
0.0
 11
3.0318901219
 21
1.4942771084
 31
0.0
  0
ARC
  5
2CE
330
1F
100
AcDbEntity
  8
0
  6
Continuous
 62
     7
370
    25
100
AcDbCircle
 10
3.0318901219
 20
1.4317771084
 30
0.0
 40
0.0625000000000002
100
AcDbArc
 50
0.2011075613
 51
90.0
  0
LINE
  5
2CF
330
1F
100
AcDbEntity
  8
0
  6
Continuous
 62
     7
370
    25
100
AcDbLine
 10
3.0985290037
 20
0.2527193739
 30
0.0
 11
3.0943897369
 21
1.4319964823
 31
0.0
  0
ARC
  5
2D0
330
1F
100
AcDbEntity
  8
0
  6
Continuous
 62
     7
370
    25
100
AcDbCircle
 10
3.0360293887
 20
0.2525
 30
0.0
 40
0.0625000000000002
100
AcDbArc
 50
270.0
 51
0.2011075613
  0
LINE
  5
2D1
330
1F
100
AcDbEntity
  8
0
  6
Continuous
 62
     7
370
    25
100
AcDbLine
 10
3.1463725118
 20
2.6
 30
0.0
 11
3.3229743976
 21
2.6
 31
0.0
  0
ARC
  5
2D2
330
1F
100
AcDbEntity
  8
0
  6
Continuous
 62
     7
370
    25
100
AcDbCircle
 10
3.1463725118
 20
2.56875
 30
0.0
 40
0.03125
100
AcDbArc
 50
90.0
 51
163.9122475556
  0
LINE
  5
2D3
330
1F
100
AcDbEntity
  8
0
  6
Continuous
 62
     7
370
    25
100
AcDbLine
 10
3.0930865822
 20
2.4967597419
 30
0.0
 11
3.1163463114
 21
2.5774096647
 31
0.0
  0
ARC
  5
2D4
330
1F
100
AcDbEntity
  8
0
  6
Continuous
 62
     7
370
    25
100
AcDbCircle
 10
3.0330341815
 20
2.5140790713
 30
0.0
 40
0.0625000000000007
100
AcDbArc
 50
208.9858536869
 51
343.9122475556
  0
ARC
  5
2D5
330
1F
100
AcDbEntity
  8
0
  6
Continuous
 62
     7
370
    25
100
AcDbCircle
 10
2.7323425197
 20
2.3475
 30
0.0
 40
0.2812500000000002
100
AcDbArc
 50
28.9858536869
 51
96.372399041
  0
ARC
  5
2D6
330
1F
100
AcDbEntity
  8
0
  6
Continuous
 62
     7
370
    25
100
AcDbCircle
 10
2.6941896406
 20
2.6891261411
 30
0.0
 40
0.0624999999999998
100
AcDbArc
 50
173.1725385808
 51
276.372399041
  0
LINE
  5
2D7
330
1F
100
AcDbEntity
  8
0
  6
Continuous
 62
     7
370
    25
100
AcDbLine
 10
2.6321328503
 20
2.6965561334
 30
0.0
 11
2.6391218891
 21
2.7549299922
 31
0.0
  0
ARC
  5
2D8
330
1F
100
AcDbEntity
  8
0
  6
Continuous
 62
     7
370
    25
100
AcDbCircle
 10
2.7011786794
 20
2.7475
 30
0.0
 40
0.0625000000000004
100
AcDbArc
 50
90.0
 51
173.1725385808
  0
LINE
  5
2D9
330
1F
100
AcDbEntity
  8
0
  6
Continuous
 62
     7
370
    25
100
AcDbLine
 10
3.3229743976
 20
2.81
 30
0.0
 11
2.7011786794
 21
2.81
 31
0.0
  0
ARC
  5
2DA
330
1F
100
AcDbEntity
  8
0
  6
Continuous
 62
     7
370
    25
100
AcDbCircle
 10
3.3229743976
 20
2.7475
 30
0.0
 40
0.0625000000000004
100
AcDbArc
 50
0.0
 51
90.0
  0
LINE
  5
2DB
330
1F
100
AcDbEntity
  8
0
  6
Continuous
 62
     7
370
    25
100
AcDbLine
 10
3.3854743976
 20
2.6625
 30
0.0
 11
3.3854743976
 21
2.7475
 31
0.0
  0
ARC
  5
2DC
330
1F
100
AcDbEntity
  8
0
  6
Continuous
 62
     7
370
    25
100
AcDbCircle
 10
3.3229743976
 20
2.6625
 30
0.0
 40
0.0625000000000004
100
AcDbArc
 50
270.0
 51
0.0
  0
ENDSEC
  0
SECTION
  2
OBJECTS
  0
DICTIONARY
  5
C
330
0
100
AcDbDictionary
281
     1
  3
ACAD_GROUP
350
D
  3
ACAD_LAYOUT
350
1A
  3
ACAD_MLINESTYLE
350
17
  3
ACAD_PLOTSETTINGS
350
19
  3
ACAD_PLOTSTYLENAME
350
E
  3
ACAD_SCALELIST
350
47
  3
DWGPROPS
350
2DD
  0
DICTIONARY
  5
D
102
{ACAD_REACTORS
330
C
102
}
330
C
100
AcDbDictionary
281
     1
  0
DICTIONARY
  5
1A
102
{ACAD_REACTORS
330
C
102
}
330
C
100
AcDbDictionary
281
     1
  3
Layout1
350
1E
  3
Layout2
350
26
  3
Model
350
22
  0
DICTIONARY
  5
17
102
{ACAD_REACTORS
330
C
102
}
330
C
100
AcDbDictionary
281
     1
  3
Standard
350
18
  0
DICTIONARY
  5
19
102
{ACAD_REACTORS
330
C
102
}
330
C
100
AcDbDictionary
281
     1
  0
ACDBDICTIONARYWDFLT
  5
E
102
{ACAD_REACTORS
330
C
102
}
330
C
100
AcDbDictionary
281
     1
  3
Normal
350
F
100
AcDbDictionaryWithDefault
340
F
  0
DICTIONARY
  5
47
102
{ACAD_REACTORS
330
C
102
}
330
C
100
AcDbDictionary
281
     1
  3
A0
350
48
  3
A1
350
49
  3
A2
350
4A
  3
A3
350
4B
  3
A4
350
4C
  3
A5
350
4D
  3
A6
350
4E
  3
A7
350
4F
  3
A8
350
50
  3
A9
350
51
  3
B1
350
52
  3
B2
350
53
  3
B3
350
54
  3
B4
350
55
  3
B5
350
56
  3
B6
350
57
  3
B7
350
58
  0
XRECORD
  5
2DD
102
{ACAD_REACTORS
330
C
102
}
330
C
100
AcDbXrecord
280
     1
  1
DWGPROPS COOKIE
  2

  3

  4

  6

  7

  8
randy
  9

300
=
301
=
302
=
303
=
304
=
305
=
306
=
307
=
308
=
309
=
 40
0.0
 41
2460739.782558669
 42
2460739.782583947
  1

 90
        0
  0
LAYOUT
  5
1E
102
{ACAD_REACTORS
330
1A
102
}
330
1A
100
AcDbPlotSettings
  1

  2
none_device
  4

  6

 40
0.0
 41
0.0
 42
0.0
 43
0.0
 44
0.0
 45
0.0
 46
0.0
 47
0.0
 48
0.0
 49
0.0
140
0.0
141
0.0
142
1.0
143
1.0
 70
   688
 72
     0
 73
     0
 74
     5
  7

 75
    16
147
1.0
148
0.0
149
0.0
100
AcDbLayout
  1
Layout1
 70
     1
 71
     1
 10
0.0
 20
0.0
 11
12.0
 21
9.0
 12
0.0
 22
0.0
 32
0.0
 14
1.0000000000E+20
 24
1.0000000000E+20
 34
1.0000000000E+20
 15
-1.0000000000E+20
 25
-1.0000000000E+20
 35
-1.0000000000E+20
146
0.0
 13
0.0
 23
0.0
 33
0.0
 16
1.0
 26
0.0
 36
0.0
 17
0.0
 27
1.0
 37
0.0
 76
     0
330
1B
  0
LAYOUT
  5
26
102
{ACAD_REACTORS
330
1A
102
}
330
1A
100
AcDbPlotSettings
  1

  2
none_device
  4

  6

 40
0.0
 41
0.0
 42
0.0
 43
0.0
 44
0.0
 45
0.0
 46
0.0
 47
0.0
 48
0.0
 49
0.0
140
0.0
141
0.0
142
1.0
143
1.0
 70
   688
 72
     0
 73
     0
 74
     5
  7

 75
    16
147
1.0
148
0.0
149
0.0
100
AcDbLayout
  1
Layout2
 70
     1
 71
     2
 10
0.0
 20
0.0
 11
0.0
 21
0.0
 12
0.0
 22
0.0
 32
0.0
 14
0.0
 24
0.0
 34
0.0
 15
0.0
 25
0.0
 35
0.0
146
0.0
 13
0.0
 23
0.0
 33
0.0
 16
1.0
 26
0.0
 36
0.0
 17
0.0
 27
1.0
 37
0.0
 76
     0
330
23
  0
LAYOUT
  5
22
102
{ACAD_REACTORS
330
1A
102
}
330
1A
100
AcDbPlotSettings
  1

  2
none_device
  4
ANSI_A_(11.00_x_8.50_Inches)
  6

 40
6.35
 41
19.05
 42
6.35000508
 43
19.05000254
 44
279.4
 45
215.9
 46
-4.95300254
 47
61.5313311838
 48
0.0
 49
0.0
140
0.0
141
0.0
142
0.7183377309
143
1.0
 70
  1696
 72
     0
 73
     0
 74
     0
  7

 75
     0
147
0.5913241897
148
-39.4088153714
149
0.0
100
AcDbLayout
  1
Model
 70
     1
 71
     0
 10
0.0
 20
0.0
 11
12.0
 21
9.0
 12
0.0
 22
0.0
 32
0.0
 14
0.0
 24
0.0
 34
0.0
 15
15.16
 25
3.0
 35
0.0
146
0.0
 13
0.0
 23
0.0
 33
0.0
 16
1.0
 26
0.0
 36
0.0
 17
0.0
 27
1.0
 37
0.0
 76
     0
330
1F
331
29
  0
MLINESTYLE
  5
18
102
{ACAD_REACTORS
330
17
102
}
330
17
100
AcDbMlineStyle
  2
Standard
 70
     0
  3

 62
   256
 51
90.0
 52
90.0
 71
     2
 49
0.5
 62
   256
  6
BYLAYER
 49
-0.5
 62
   256
  6
BYLAYER
  0
ACDBPLACEHOLDER
  5
F
102
{ACAD_REACTORS
330
E
102
}
330
E
  0
SCALE
  5
48
102
{ACAD_REACTORS
330
47
102
}
330
47
100
AcDbScale
 70
     0
300
1:1
140
1.0
141
1.0
290
     1
  0
SCALE
  5
49
102
{ACAD_REACTORS
330
47
102
}
330
47
100
AcDbScale
 70
     0
300
1/128" = 1'-0"
140
0.0078125
141
12.0
290
     0
  0
SCALE
  5
4A
102
{ACAD_REACTORS
330
47
102
}
330
47
100
AcDbScale
 70
     0
300
1/64" = 1'-0"
140
0.015625
141
12.0
290
     0
  0
SCALE
  5
4B
102
{ACAD_REACTORS
330
47
102
}
330
47
100
AcDbScale
 70
     0
300
1/32" = 1'-0"
140
0.03125
141
12.0
290
     0
  0
SCALE
  5
4C
102
{ACAD_REACTORS
330
47
102
}
330
47
100
AcDbScale
 70
     0
300
1/16" = 1'-0"
140
0.0625
141
12.0
290
     0
  0
SCALE
  5
4D
102
{ACAD_REACTORS
330
47
102
}
330
47
100
AcDbScale
 70
     0
300
3/32" = 1'-0"
140
0.09375
141
12.0
290
     0
  0
SCALE
  5
4E
102
{ACAD_REACTORS
330
47
102
}
330
47
100
AcDbScale
 70
     0
300
1/8" = 1'-0"
140
0.125
141
12.0
290
     0
  0
SCALE
  5
4F
102
{ACAD_REACTORS
330
47
102
}
330
47
100
AcDbScale
 70
     0
300
3/16" = 1'-0"
140
0.1875
141
12.0
290
     0
  0
SCALE
  5
50
102
{ACAD_REACTORS
330
47
102
}
330
47
100
AcDbScale
 70
     0
300
1/4" = 1'-0"
140
0.25
141
12.0
290
     0
  0
SCALE
  5
51
102
{ACAD_REACTORS
330
47
102
}
330
47
100
AcDbScale
 70
     0
300
3/8" = 1'-0"
140
0.375
141
12.0
290
     0
  0
SCALE
  5
52
102
{ACAD_REACTORS
330
47
102
}
330
47
100
AcDbScale
 70
     0
300
1/2" = 1'-0"
140
0.5
141
12.0
290
     0
  0
SCALE
  5
53
102
{ACAD_REACTORS
330
47
102
}
330
47
100
AcDbScale
 70
     0
300
3/4" = 1'-0"
140
0.75
141
12.0
290
     0
  0
SCALE
  5
54
102
{ACAD_REACTORS
330
47
102
}
330
47
100
AcDbScale
 70
     0
300
1" = 1'-0"
140
1.0
141
12.0
290
     0
  0
SCALE
  5
55
102
{ACAD_REACTORS
330
47
102
}
330
47
100
AcDbScale
 70
     0
300
1-1/2" = 1'-0"
140
1.5
141
12.0
290
     0
  0
SCALE
  5
56
102
{ACAD_REACTORS
330
47
102
}
330
47
100
AcDbScale
 70
     0
300
3" = 1'-0"
140
3.0
141
12.0
290
     0
  0
SCALE
  5
57
102
{ACAD_REACTORS
330
47
102
}
330
47
100
AcDbScale
 70
     0
300
6" = 1'-0"
140
6.0
141
12.0
290
     0
  0
SCALE
  5
58
102
{ACAD_REACTORS
330
47
102
}
330
47
100
AcDbScale
 70
     0
300
1'-0" = 1'-0"
140
12.0
141
12.0
290
     0
  0
ENDSEC
  0
EOF
